<?xml version="1.0" encoding="utf-8"?>
<!-- Generator: Adobe Illustrator 19.2.1, SVG Export Plug-In . SVG Version: 6.00 Build 0)  -->
<svg version="1.1" xmlns="http://www.w3.org/2000/svg" xmlns:xlink="http://www.w3.org/1999/xlink" x="0px" y="0px"
	 viewBox="0 0 600 630" style="enable-background:new 0 0 600 630;" xml:space="preserve">
<style type="text/css">
	.st0{fill:#C0CD2E;}
	.st1{fill:#EEE415;}
	.st2{fill:#8CB63C;}
	.st3{fill:#B1B1B1;}
	.st4{fill:#4C4F51;}
	.st5{fill:url(#SVGID_1_);}
	.st6{opacity:0.3;}
	.st7{fill:url(#SVGID_2_);}
	.st8{opacity:0.2;}
	.st9{fill:#1D1D1B;}
	.st10{fill:url(#SVGID_3_);}
	.st11{opacity:0.21;fill:#1D1D1B;}
	.st12{fill:#F5F5F5;}
	.st13{fill:#F5F5F5;stroke:#E1E1E1;stroke-width:3;stroke-linecap:round;stroke-linejoin:round;stroke-miterlimit:10;}
	.st14{fill:url(#SVGID_4_);}
	.st15{fill:url(#SVGID_5_);}
	.st16{fill:url(#SVGID_6_);}
	.st17{fill:url(#SVGID_7_);}
	.st18{fill:url(#SVGID_8_);}
	.st19{fill:url(#SVGID_9_);}
	.st20{fill:none;stroke:#1D1D1B;stroke-width:0.25;stroke-miterlimit:10;}
	.st21{fill:url(#SVGID_10_);}
	.st22{fill:url(#SVGID_11_);}
	.st23{fill:url(#SVGID_12_);}
	.st24{fill:url(#SVGID_13_);}
	.st25{fill:url(#SVGID_14_);}
</style>
<g id="Layer_1">
	<polygon class="st0" points="84,388 91.5,375 106.5,375 114,388 106.5,401 91.5,401 	"/>
	<polygon class="st1" points="197,392 204.5,379 219.5,379 227,392 219.5,405 204.5,405 	"/>
	<path class="st2" d="M197.2,334.7l7.2-12.4c0.1-0.2,0.3-0.3,0.5-0.3h14.3c0.2,0,0.4,0.1,0.5,0.3l7.2,12.4c0.1,0.2,0.1,0.4,0,0.6
		l-7.2,12.4c-0.1,0.2-0.3,0.3-0.5,0.3h-14.3c-0.2,0-0.4-0.1-0.5-0.3l-7.2-12.4C197.1,335.1,197.1,334.9,197.2,334.7z"/>
	<polygon class="st3" points="87,340 94.5,327 109.5,327 117,340 109.5,353 94.5,353 	"/>
	<polygon class="st3" points="223,375 230.5,362 245.5,362 253,375 245.5,388 230.5,388 	"/>
	<g>
		<polygon class="st0" points="105,92 112.5,79 127.5,79 135,92 127.5,105 112.5,105 		"/>
		<polygon class="st3" points="171,229 178.5,216 193.5,216 201,229 193.5,242 178.5,242 		"/>
		<polygon class="st3" points="127,229 134.5,216 149.5,216 157,229 149.5,242 134.5,242 		"/>
		<polygon class="st2" points="149,216 156.5,203 171.5,203 179,216 171.5,229 156.5,229 		"/>
		<polygon class="st4" points="126,203 133.5,190 148.5,190 156,203 148.5,216 133.5,216 		"/>
		<polygon class="st1" points="172,204 179.5,191 194.5,191 202,204 194.5,217 179.5,217 		"/>
		<polygon class="st0" points="104,217 111.5,204 126.5,204 134,217 126.5,230 111.5,230 		"/>
		<polygon class="st0" points="194,218 201.5,205 216.5,205 224,218 216.5,231 201.5,231 		"/>
		<polygon class="st2" points="104,191 111.5,178 126.5,178 134,191 126.5,204 111.5,204 		"/>
		<polygon class="st2" points="195,193 202.5,180 217.5,180 225,193 217.5,206 202.5,206 		"/>
		<polygon class="st1" points="82,205 89.5,192 104.5,192 112,205 104.5,218 89.5,218 		"/>
		<polygon class="st1" points="217,206 224.5,193 239.5,193 247,206 239.5,219 224.5,219 		"/>
		<polygon class="st3" points="127,179 134.5,166 149.5,166 157,179 149.5,192 134.5,192 		"/>
		<polygon class="st3" points="173,180 180.5,167 195.5,167 203,180 195.5,193 180.5,193 		"/>
		<polygon class="st0" points="81,179 88.5,166 103.5,166 111,179 103.5,192 88.5,192 		"/>
		<polygon class="st0" points="217,181 224.5,168 239.5,168 247,181 239.5,194 224.5,194 		"/>
		<polygon class="st1" points="104,167 111.5,154 126.5,154 134,167 126.5,180 111.5,180 		"/>
		<polygon class="st1" points="196,167 203.5,154 218.5,154 226,167 218.5,180 203.5,180 		"/>
		<polygon class="st3" points="129,81 136.5,68 151.5,68 159,81 151.5,94 136.5,94 		"/>
		<polygon class="st2" points="104,142 111.5,129 126.5,129 134,142 126.5,155 111.5,155 		"/>
		<polygon class="st2" points="196,143 203.5,130 218.5,130 226,143 218.5,156 203.5,156 		"/>
		<polygon class="st2" points="58,167 65.5,154 80.5,154 88,167 80.5,180 65.5,180 		"/>
		<polygon class="st2" points="239,168 246.5,155 261.5,155 269,168 261.5,181 246.5,181 		"/>
		<polygon class="st3" points="218,156 225.5,143 240.5,143 248,156 240.5,169 225.5,169 		"/>
		<polygon class="st3" points="81,154 88.5,141 103.5,141 111,154 103.5,167 88.5,167 		"/>
		<polygon class="st0" points="173,155 180.5,142 195.5,142 203,155 195.5,168 180.5,168 		"/>
		<polygon class="st0" points="127,154 134.5,141 149.5,141 157,154 149.5,167 134.5,167 		"/>
		<polygon class="st2" points="150,167 157.5,154 172.5,154 180,167 172.5,180 157.5,180 		"/>
		<polygon class="st1" points="58,142 65.5,129 80.5,129 88,142 80.5,155 65.5,155 		"/>
		<polygon class="st1" points="240,143 247.5,130 262.5,130 270,143 262.5,156 247.5,156 		"/>
		<polygon class="st1" points="127,130 134.5,117 149.5,117 157,130 149.5,143 134.5,143 		"/>
		<polygon class="st3" points="150,142 157.5,129 172.5,129 180,142 172.5,155 157.5,155 		"/>
		<polygon class="st1" points="173,130 180.5,117 195.5,117 203,130 195.5,143 180.5,143 		"/>
		<polygon class="st0" points="218,130 225.5,117 240.5,117 248,130 240.5,143 225.5,143 		"/>
		<polygon class="st0" points="81,130 88.5,117 103.5,117 111,130 103.5,143 88.5,143 		"/>
		<polygon class="st3" points="196,118 203.5,105 218.5,105 226,118 218.5,131 203.5,131 		"/>
		<polygon class="st3" points="104,118 111.5,105 126.5,105 134,118 126.5,131 111.5,131 		"/>
		<polygon class="st0" points="151,119 158.5,106 173.5,106 181,119 173.5,132 158.5,132 		"/>
		<polygon class="st0" points="149,191 156.5,178 171.5,178 179,191 171.5,204 156.5,204 		"/>
		<polygon class="st2" points="173,105 180.5,92 195.5,92 203,105 195.5,118 180.5,118 		"/>
		<polygon class="st2" points="127,107 134.5,94 149.5,94 157,107 149.5,120 134.5,120 		"/>
		<polygon class="st1" points="150,94 157.5,81 172.5,81 180,94 172.5,107 157.5,107 		"/>
		<path class="st2" d="M82.3,103.7l7.2-12.4c0.1-0.2,0.3-0.3,0.5-0.3h14.3c0.2,0,0.4,0.1,0.5,0.3l7.2,12.4c0.1,0.2,0.1,0.4,0,0.6
			l-7.2,12.4c-0.1,0.2-0.3,0.3-0.5,0.3H89.9c-0.2,0-0.4-0.1-0.5-0.3l-7.2-12.4C82.2,104.1,82.2,103.9,82.3,103.7z"/>
		<polygon class="st1" points="149,242 156.5,229 171.5,229 179,242 171.5,255 156.5,255 		"/>
	</g>
	<radialGradient id="SVGID_1_" cx="410" cy="250.6667" r="115" gradientUnits="userSpaceOnUse">
		<stop  offset="0" style="stop-color:#FFFFFF"/>
		<stop  offset="0" style="stop-color:#F5FBFF"/>
		<stop  offset="0" style="stop-color:#EAF6FF"/>
		<stop  offset="0" style="stop-color:#E3F4FF"/>
		<stop  offset="0" style="stop-color:#E1F3FF"/>
		<stop  offset="0.3547" style="stop-color:#81FFFF"/>
		<stop  offset="0.5396" style="stop-color:#78E6F8"/>
		<stop  offset="1" style="stop-color:#64ACE9"/>
	</radialGradient>
	<circle class="st5" cx="446" cy="296" r="115"/>
	<g>
		<g>
			<polygon class="st0" points="397.8,343.4 404.9,337.6 418.6,337.6 425.4,343.4 418.4,349.3 404.5,349.3 			"/>
			<polygon class="st3" points="460.6,405.3 467.7,399.4 482.5,399.4 490.2,405.3 483.2,411.1 468.2,411.1 			"/>
			<polygon class="st3" points="417.2,405.3 424.6,399.4 439.3,399.4 446.8,405.3 439.4,411.1 424.5,411.1 			"/>
			<polygon class="st2" points="438.8,399.4 446.1,393.5 460.7,393.5 468.2,399.4 461.1,405.3 446.3,405.3 			"/>
			<polygon class="st4" points="416.3,393.5 423.7,387.7 438.2,387.7 445.6,393.5 438.3,399.4 423.6,399.4 			"/>
			<polygon class="st1" points="461.2,394 468.2,388.1 482.8,388.1 490.4,394 483.5,399.8 468.7,399.8 			"/>
			<polygon class="st0" points="394.7,399.8 402.2,394 416.8,394 424.1,399.8 416.7,405.7 401.8,405.7 			"/>
			<polygon class="st0" points="483,400.3 490,394.4 504.6,394.4 512.4,400.3 505.6,406.2 490.8,406.2 			"/>
			<polygon class="st2" points="395.1,388.1 402.6,382.2 417,382.2 424.2,388.1 416.8,394 402.2,394 			"/>
			<polygon class="st2" points="483.3,389 490.2,383.1 504.6,383.1 512.4,389 505.6,394.9 491,394.9 			"/>
			<polygon class="st1" points="373.4,394.4 381.1,388.6 395.6,388.6 402.7,394.4 395.1,400.3 380.4,400.3 			"/>
			<polygon class="st1" points="505.1,394.9 511.9,389 526.4,389 534.4,394.9 527.7,400.7 513,400.7 			"/>
			<polygon class="st3" points="417.5,382.7 424.7,376.8 439.1,376.8 446.3,382.7 439.2,388.6 424.7,388.6 			"/>
			<polygon class="st3" points="461.8,383.1 468.7,377.3 483.1,377.3 490.6,383.1 483.8,389 469.2,389 			"/>
			<polygon class="st0" points="373.2,382.7 380.8,376.8 395.1,376.8 402.1,382.7 394.6,388.6 380.1,388.6 			"/>
			<polygon class="st0" points="504.2,383.6 510.8,377.7 525.2,377.7 533.1,383.6 526.5,389.5 511.9,389.5 			"/>
			<polygon class="st1" points="395.6,377.3 402.9,371.4 417.2,371.4 424.2,377.3 417,383.1 402.5,383.1 			"/>
			<polygon class="st1" points="483.5,377.3 490.3,371.4 504.5,371.4 512.2,377.3 505.6,383.1 491.1,383.1 			"/>
			<polygon class="st3" points="419.9,338.4 426.8,332.6 440.4,332.6 447.3,338.4 440.5,344.3 426.7,344.3 			"/>
			<polygon class="st2" points="396,366 403.3,360.1 417.3,360.1 424.3,366 417.1,371.8 402.9,371.8 			"/>
			<polygon class="st2" points="482.9,366.4 489.5,360.6 503.6,360.6 511.2,366.4 504.6,372.3 490.4,372.3 			"/>
			<polygon class="st2" points="351.6,377.3 359.2,371.4 373.5,371.4 380.3,377.3 372.7,383.1 358.3,383.1 			"/>
			<polygon class="st2" points="524.7,377.7 531.2,371.9 545.4,371.9 553.4,377.7 547,383.6 532.6,383.6 			"/>
			<polygon class="st3" points="504.1,372.3 510.7,366.5 524.9,366.5 532.7,372.3 526.2,378.2 511.8,378.2 			"/>
			<polygon class="st3" points="373.9,371.4 381.4,365.5 395.5,365.5 402.4,371.4 395.1,377.3 380.7,377.3 			"/>
			<polygon class="st0" points="461.3,371.9 468.2,366 482.4,366 489.8,371.9 483.1,377.7 468.7,377.7 			"/>
			<polygon class="st0" points="417.6,371.4 424.8,365.5 438.9,365.5 446.1,371.4 439.1,377.3 424.7,377.3 			"/>
			<polygon class="st2" points="439.5,377.3 446.6,371.4 460.8,371.4 468.2,377.3 461.3,383.1 446.8,383.1 			"/>
			<polygon class="st1" points="352.6,366 360.1,360.1 374.2,360.1 380.9,366 373.4,371.8 359.2,371.8 			"/>
			<polygon class="st1" points="524.4,366.4 530.8,360.6 544.9,360.6 552.7,366.4 546.5,372.3 532.2,372.3 			"/>
			<polygon class="st1" points="417.8,360.6 424.8,354.7 438.8,354.7 445.9,360.6 438.9,366.4 424.8,366.4 			"/>
			<polygon class="st3" points="439.4,366 446.4,360.1 460.4,360.1 467.7,366 460.9,371.9 446.6,371.9 			"/>
			<polygon class="st1" points="460.9,360.6 467.7,354.7 481.7,354.7 489.1,360.6 482.4,366.4 468.2,366.4 			"/>
			<polygon class="st0" points="503.1,360.6 509.6,354.7 523.6,354.7 531.3,360.6 524.9,366.4 510.7,366.4 			"/>
			<polygon class="st0" points="374.6,360.6 382,354.7 396,354.7 402.8,360.6 395.5,366.4 381.3,366.4 			"/>
			<polygon class="st3" points="482.2,355.2 488.7,349.3 502.6,349.3 510.1,355.2 503.6,361 489.6,361 			"/>
			<polygon class="st3" points="396.4,355.2 403.6,349.3 417.5,349.3 424.4,355.2 417.3,361 403.2,361 			"/>
			<polygon class="st0" points="440.2,355.6 447.1,349.7 461,349.7 468.2,355.6 461.4,361.5 447.3,361.5 			"/>
			<polygon class="st0" points="438.7,388.1 445.9,382.2 460.3,382.2 467.7,388.1 460.7,394 446.1,394 			"/>
			<polygon class="st2" points="460.5,349.3 467.2,343.4 481,343.4 488.3,349.3 481.7,355.2 467.7,355.2 			"/>
			<polygon class="st2" points="417.9,350.2 424.9,344.3 438.7,344.3 445.7,350.2 438.8,356.1 424.8,356.1 			"/>
			<polygon class="st1" points="439.2,344.3 445.9,338.5 459.7,338.5 466.8,344.3 460.1,350.2 446.2,350.2 			"/>
			<path class="st2" d="M376.6,348.7l6.9-5.6c0.1-0.1,0.3-0.1,0.5-0.1h13.2c0.2,0,0.4,0,0.5,0.1l6.4,5.6c0.1,0.1,0.1,0.2,0,0.3
				l-6.8,5.6c-0.1,0.1-0.3,0.1-0.5,0.1h-13.4c-0.2,0-0.4,0-0.5-0.1l-6.3-5.6C376.5,348.9,376.5,348.8,376.6,348.7z"/>
			<polygon class="st1" points="438.9,411.1 446.3,405.3 461.1,405.3 468.7,411.1 461.5,417 446.5,417 			"/>
		</g>
	</g>
	<g>
		<g>
			<g>
				<g id="Plate_25_">
					<g class="st6">
						<path d="M542,335.2c-1.4,1.6-3.4,2.4-5.4,2.4l-37.8-1l-60.6-1.5v-19v-19l59.7-1.5l37.3-0.9c2-0.1,4,0.8,5.5,2.4l14.9,16
							c1.6,1.7,1.7,4.5,0.2,6.2L542,335.2z"/>
						<path d="M535.3,300.3c0.9,0,1.7,0.3,2.4,1l13.9,14.8l-12.9,14.8c-0.6,0.6-1.4,1-2.3,1l-37.8-0.7l-55.8-1.1l0-14.1l0-14.1
							l55.2-1L535.3,300.3 M535.1,294.7l-37.3,0.9l-59.7,1.5v19v19l60.6,1.5l37.8,1c2.1,0.1,4-0.8,5.4-2.4l13.8-15.9
							c1.4-1.7,1.3-4.5-0.2-6.2l-14.9-16C539.2,295.5,537.2,294.6,535.1,294.7L535.1,294.7z"/>
						<path d="M535.3,299.2c1.3,0,2.7,0.5,3.6,1.6l15,16c0.2,0.2,0.2,0.4,0.2,0.5c0,0.2-0.1,0.4-0.2,0.5l-13.8,15.9
							c-0.9,1-2.2,1.6-3.6,1.5l-95.6-2.2l0-32.1L535.3,299.2 M535.2,296.9l-96.1,2.1l0,36l97.5,2.5c1.8,0,3.6-0.7,4.8-2.1l13.8-15.9
							c0.5-0.6,0.8-1.4,0.7-2.2c0-0.8-0.4-1.6-0.9-2.2l-15-16C538.8,297.7,537,296.9,535.2,296.9L535.2,296.9z"/>
						<path d="M535.2,298.1c1.3,0,2.7,0.5,3.6,1.6l14.9,16c0.2,0.2,0.2,0.4,0.2,0.5c0,0.2-0.1,0.4-0.2,0.5L540,332.6
							c-0.9,1-2.2,1.6-3.6,1.6l-95.5-2.1l0-32.1L535.2,298.1 M535.2,295.8l-96.1,2.2l0,36l97.5,2.4c1.8,0,3.6-0.7,4.8-2.1l13.8-15.9
							c0.5-0.6,0.8-1.4,0.7-2.2c0-0.8-0.4-1.6-0.9-2.2l-14.9-16C538.7,296.5,537,295.8,535.2,295.8L535.2,295.8z"/>
						<path d="M535.2,295.8c1.8,0,3.6,0.7,4.9,2.1l14.9,16c0.6,0.6,0.9,1.4,0.9,2.2c0,0.8-0.2,1.6-0.7,2.2l-13.8,15.9
							c-1.2,1.4-3,2.2-4.8,2.1l-37.8-0.9l-59.7-1.4l0-18l0-18l58.8-1.4L535.2,295.8 M535.1,294.7l-37.3,0.9l-59.7,1.5v19v19
							l60.6,1.5l37.8,1c2.1,0.1,4-0.8,5.4-2.4l13.8-15.9c1.4-1.7,1.3-4.5-0.2-6.2l-14.9-16C539.2,295.5,537.2,294.6,535.1,294.7
							L535.1,294.7z"/>
					</g>
					<g>
						<linearGradient id="SVGID_2_" gradientUnits="userSpaceOnUse" x1="438.1173" y1="314.9947" x2="556.824" y2="314.9947">
							<stop  offset="0" style="stop-color:#FFFFFF"/>
							<stop  offset="0" style="stop-color:#DEDADB"/>
							<stop  offset="0" style="stop-color:#B9B1B2"/>
							<stop  offset="0" style="stop-color:#988B8E"/>
							<stop  offset="0" style="stop-color:#7B6B6E"/>
							<stop  offset="0" style="stop-color:#634F53"/>
							<stop  offset="0" style="stop-color:#4F393E"/>
							<stop  offset="0" style="stop-color:#40282D"/>
							<stop  offset="0" style="stop-color:#361D21"/>
							<stop  offset="0" style="stop-color:#30161B"/>
							<stop  offset="0" style="stop-color:#2E1419"/>
							<stop  offset="5.911330e-002" style="stop-color:#4C4F51"/>
							<stop  offset="0.5074" style="stop-color:#4C4F51"/>
						</linearGradient>
						<path class="st7" d="M542,334c-1.4,1.6-3.4,2.4-5.4,2.4l-37.8-0.9l-60.6-1.5v-19v-19l59.7-1.5l37.3-1c2-0.1,4,0.8,5.5,2.4
							l14.9,15.9c1.6,1.7,1.7,4.5,0.2,6.2L542,334z"/>
						<g class="st8">
							<path class="st9" d="M535.3,299.2c0.9,0,1.7,0.3,2.4,1l13.9,14.8l-12.8,14.8c-0.6,0.6-1.4,1-2.3,1l-37.7-0.7l-55.8-1l0-14.1
								l0-14.1l55.2-1.1L535.3,299.2 M535.1,293.6l-37.3,1l-59.7,1.5v19v19l60.6,1.5l37.8,0.9c2.1,0.1,4-0.8,5.4-2.4l13.8-16
								c1.4-1.7,1.3-4.5-0.2-6.2l-14.9-15.9C539.1,294.4,537.1,293.5,535.1,293.6L535.1,293.6z"/>
						</g>
						<g>
							<g class="st6">
								<path d="M535.2,298.1c1.3,0,2.7,0.5,3.6,1.6l14.9,16c0.2,0.2,0.2,0.4,0.2,0.5c0,0.2-0.1,0.4-0.2,0.5L540,332.6
									c-0.9,1-2.2,1.6-3.6,1.6l-95.5-2.1l0-32.1L535.2,298.1 M535.2,295.8l-96.1,2.2l0,36l97.5,2.4c1.8,0,3.6-0.7,4.8-2.1
									l13.8-15.9c0.5-0.6,0.8-1.4,0.7-2.2c0-0.8-0.4-1.6-0.9-2.2l-14.9-16C538.7,296.5,537,295.8,535.2,295.8L535.2,295.8z"/>
							</g>
							<linearGradient id="SVGID_3_" gradientUnits="userSpaceOnUse" x1="439.0459" y1="314.9948" x2="555.8871" y2="314.9948">
								<stop  offset="0" style="stop-color:#FFFFFF"/>
								<stop  offset="0" style="stop-color:#F4F4F4"/>
								<stop  offset="0" style="stop-color:#DEDEDE"/>
								<stop  offset="0" style="stop-color:#CDCDCD"/>
								<stop  offset="0" style="stop-color:#C2C2C2"/>
								<stop  offset="0" style="stop-color:#BBBBBB"/>
								<stop  offset="0" style="stop-color:#B9B9B9"/>
								<stop  offset="5.911330e-002" style="stop-color:#E1E1E1"/>
								<stop  offset="1" style="stop-color:#E1E1E1"/>
							</linearGradient>
							<path class="st10" d="M535.2,296.9c1.3,0,2.7,0.5,3.6,1.6l14.9,15.9c0.2,0.2,0.2,0.4,0.2,0.5c0,0.2-0.1,0.4-0.2,0.5l-13.8,16
								c-0.9,1-2.2,1.6-3.6,1.6l-95.5-1.9l0-32.1L535.2,296.9 M535.1,294.7l-96.1,2.4l0,36l97.4,2.2c1.8,0,3.6-0.7,4.8-2.1l13.8-16
								c0.5-0.6,0.8-1.4,0.7-2.2c0-0.8-0.4-1.6-0.9-2.2L540,296.8C538.7,295.4,536.9,294.6,535.1,294.7L535.1,294.7z"/>
						</g>
						<path class="st4" d="M535.1,294.7c1.8,0,3.6,0.7,4.9,2.1l14.9,15.9c0.6,0.6,0.9,1.4,0.9,2.2c0,0.8-0.2,1.6-0.7,2.2l-13.8,16
							c-1.2,1.4-3,2.2-4.8,2.1l-37.8-0.9l-59.6-1.4l0-18l0-18l58.8-1.4L535.1,294.7 M535.1,293.6l-37.3,1l-59.7,1.5v19v19l60.6,1.5
							l37.8,0.9c2.1,0.1,4-0.8,5.4-2.4l13.8-16c1.4-1.7,1.3-4.5-0.2-6.2l-14.9-15.9C539.1,294.4,537.1,293.5,535.1,293.6
							L535.1,293.6z"/>
					</g>
				</g>
				<g>
					<polygon class="st11" points="449.8,334.3 442,334.1 442,296 449.7,295.8 					"/>
				</g>
				<g>
					<path class="st12" d="M476,318.8c0,0.1-0.1,0.2-0.2,0.2c-0.1,0-0.4-0.1-0.8-0.2c-0.5-0.1-0.7-0.2-0.8-0.2
						c-1.1,0.4-2.1,0.6-3,0.6c-1.6,0-2.9-0.5-3.9-1.6c-1-1-1.5-2.4-1.5-3.9c0-1.6,0.4-3,1.4-4.1c1-1.1,2.3-1.7,3.8-1.7
						c0.8,0,1.5,0.1,2.2,0.4c0.7,0.3,1.3,0.8,1.7,1.4c0.1,0.1,0.1,0.2,0.1,0.3c0,0.2-0.2,0.5-0.7,1.1c-0.4,0.6-0.7,0.9-0.9,0.9
						c0,0-0.1-0.1-0.4-0.3c-0.3-0.3-0.5-0.4-0.8-0.6c-0.4-0.2-0.8-0.3-1.3-0.3c-0.8,0-1.4,0.3-1.8,0.9c-0.4,0.5-0.6,1.2-0.6,2
						c0,0.8,0.2,1.5,0.7,2c0.5,0.5,1.1,0.8,1.9,0.8c0.5,0,1.1-0.1,1.7-0.4c0-0.2-0.1-0.6-0.2-1.3c-0.1-0.5-0.1-1-0.1-1.3
						c0-0.1,0-0.2,0.1-0.2c0,0,0.1,0,0.1,0c0.1,0,0.4,0,0.7,0c0.3,0,0.5,0,0.7,0c0.2,0,0.4,0,0.7,0c0.3,0,0.6,0,0.7,0
						c0.1,0,0.2,0.1,0.2,0.3c0,0.2,0,0.6,0,1.1c0,0.5,0,0.9,0,1.1C475.8,316.3,475.9,317.4,476,318.8L476,318.8z"/>
					<path class="st12" d="M484.7,311.9c0,0.4,0,1,0,1.7c0,0.8,0,1.4,0,1.7c0,0.4,0,0.9,0.1,1.7c0,0.8,0.1,1.3,0.1,1.7
						c0,0.1-0.1,0.2-0.2,0.3c-0.2,0.1-0.6,0.1-1.2,0.1c-0.6,0-0.9,0-1.2-0.1c-0.1,0-0.2-0.1-0.2-0.2c0-0.2,0-0.3-0.1-0.5
						c0-0.2-0.1-0.4-0.1-0.4c0.1,0-0.2,0.2-0.8,0.5c-0.6,0.4-1.1,0.5-1.6,0.5c-1.3,0-2.1-0.6-2.4-1.9c-0.1-0.6-0.2-1.4-0.2-2.5
						c0-1.2,0.1-2.1,0.2-2.8c0.1-0.2,0.2-0.3,0.3-0.3c0.2,0,0.6,0,1.1,0c0.5,0,0.8,0,1.1,0c0.2,0,0.2,0.1,0.2,0.2c0,0,0,0.1,0,0.2
						c-0.1,0.7-0.1,1.4-0.1,2.2c0,0.9,0.1,1.5,0.1,1.9c0.1,0.6,0.4,0.9,1,0.9c0.2,0,0.5-0.1,0.7-0.3c0.3-0.2,0.4-0.4,0.4-0.6
						c0-0.2,0-1.5,0-3.9c0-0.2,0-0.3,0-0.3c0-0.1,0.1-0.1,0.3-0.1c0.2,0,0.6,0,1.1,0c0.5,0,0.9,0,1.1,0c0.2,0,0.2,0,0.3,0.1
						C484.7,311.8,484.7,311.8,484.7,311.9z"/>
					<path class="st12" d="M488.8,315.4c0,0.4,0,1,0.1,1.7c0,0.8,0,1.3,0.1,1.7c0,0.1-0.1,0.2-0.2,0.2c-0.2,0-0.6,0-1.2,0
						c-0.6,0-1,0-1.2-0.1c-0.1,0-0.2-0.1-0.2-0.1c0,0,0-0.1,0-0.2c0-0.4,0-0.9,0-1.6c0-0.7,0-1.3,0-1.6c0-1.5-0.1-2.7-0.2-3.6
						c0-0.1,0-0.1,0-0.2c0-0.1,0.1-0.2,0.2-0.2c0.1,0,0.4,0,0.6,0c0.3,0,0.5,0,0.7,0c0.1,0,0.4,0,0.7,0c0.3,0,0.5,0,0.7,0
						c0.1,0,0.2,0.1,0.2,0.2c0,0,0,0.1,0,0.2C488.8,312.9,488.8,314.1,488.8,315.4z M488.9,309.6c0,0.9-0.5,1.4-1.5,1.4
						c-0.4,0-0.8-0.1-1.1-0.3c-0.3-0.3-0.5-0.6-0.5-1c0-0.4,0.1-0.7,0.5-1c0.3-0.2,0.6-0.4,1-0.4c0.4,0,0.7,0.1,1,0.4
						C488.7,308.8,488.9,309.2,488.9,309.6z"/>
					<path class="st12" d="M498.2,307.8c0-0.1,0,0.1,0,0.5c0,0.6-0.1,1.4-0.1,2.3c0,1,0,2.2,0,3.6c0,2.2,0.1,3.8,0.3,4.7
						c0,0.1,0,0.2,0,0.2c0,0.1,0,0.1-0.1,0.1c-0.2,0-0.9,0-2,0c-0.3,0-0.4-0.1-0.5-0.2c0-0.2,0-0.4,0-0.6c0,0,0-0.1-0.1-0.1
						c0,0-0.1,0-0.1,0.1c-0.5,0.6-1.2,0.8-2,0.8c-1.1,0-1.9-0.4-2.6-1.2c-0.6-0.7-0.9-1.7-1-2.8c0-1.2,0.3-2.1,0.8-2.8
						c0.6-0.8,1.5-1.2,2.6-1.2c0.8,0,1.4,0.2,1.8,0.8c0.1,0.1,0.1,0.1,0.2,0.1c0,0,0.1-0.1,0.1-0.2c0-0.4,0-1-0.1-1.8
						c0-0.8-0.1-1.4-0.1-1.8c0-0.2,0-0.2,0.1-0.3c0.3,0,0.8-0.1,1.3-0.1c1-0.1,1.4-0.2,1.3-0.2C498.1,307.6,498.2,307.6,498.2,307.8
						z M495.5,315.1c0-0.4-0.2-0.8-0.4-1.1c-0.3-0.3-0.6-0.5-1-0.5c-0.4,0-0.7,0.2-1,0.5c-0.2,0.3-0.4,0.7-0.3,1.1
						c0,0.4,0.1,0.8,0.4,1.1c0.3,0.3,0.6,0.5,1,0.5c0.4,0,0.7-0.2,1-0.5C495.3,315.9,495.5,315.5,495.5,315.1z"/>
					<path class="st12" d="M506.4,314.8c0,0.5-0.1,0.9-0.5,0.9c-0.1,0-0.6,0.1-1.6,0.2c-0.6,0.1-1.5,0.2-2.7,0.2
						c0.1,0.3,0.3,0.6,0.7,0.8c0.3,0.2,0.6,0.2,1,0.2c0.5,0,0.9-0.1,1.3-0.4c0.2-0.1,0.4-0.3,0.6-0.4c0.1,0.1,0.3,0.3,0.6,0.8
						c0.3,0.5,0.4,0.8,0.4,0.9c0,0,0,0.1-0.1,0.2c-0.6,0.7-1.6,1.1-2.9,1c-1.2,0-2.2-0.4-2.9-1.1c-0.8-0.8-1.2-1.8-1.2-3
						c0-1.2,0.3-2.2,0.9-3c0.7-0.8,1.6-1.2,2.7-1.2c1,0,1.8,0.4,2.5,1.1C506,312.8,506.4,313.7,506.4,314.8z M503.7,314.3
						c0-0.3-0.1-0.6-0.4-0.9c-0.2-0.3-0.5-0.4-0.8-0.4c-0.3,0-0.6,0.1-0.8,0.4c-0.2,0.3-0.3,0.6-0.3,0.9c0,0.1,0.1,0.2,0.2,0.2
						c0.4,0,1-0.1,1.7-0.2C503.6,314.4,503.7,314.3,503.7,314.3z"/>
				</g>
			</g>
		</g>
		<polygon class="st13" points="540.2,323.4 549.3,314.3 540.2,305.2 549.3,314.3 		"/>
		<g id="signPlate">
			<g>
				<g id="Plate_24_">
					<g class="st6">
						<path d="M504.3,243.2c-0.9,1.1-2.2,1.8-3.5,1.9l-24.1,2.5l-38.6,4v-19v-19l38.6,2.9l24.1,1.8c1.3,0.1,2.6,0.8,3.5,1.8l9.2,9.7
							c1,1,1,2.5,0,3.5L504.3,243.2z"/>
						<path d="M500.8,221.8c0.6,0,1.1,0.3,1.5,0.7l8.6,9l-8.6,9.2c-0.4,0.4-0.9,0.7-1.5,0.8l-24.1,1.9l-35.6,2.8v-13.8v-13.8
							l35.6,1.9L500.8,221.8 M500.8,218.3l-24.1-1.8l-38.6-2.9v19v19l38.6-4l24.1-2.5c1.3-0.1,2.6-0.8,3.5-1.9l9.2-9.9
							c1-1,1-2.5,0-3.5l-9.2-9.7C503.4,219,502.1,218.4,500.8,218.3L500.8,218.3z"/>
						<path d="M500.8,221.1c0.9,0,1.7,0.5,2.3,1.1l9.2,9.6c0.1,0.1,0.1,0.2,0.1,0.3s-0.1,0.2-0.1,0.3l-9.2,10
							c-0.6,0.7-1.4,1.1-2.3,1.2l-60.9,5.7v-31.7L500.8,221.1 M500.8,219.7l-62.1-4.1v35.9l62.1-6.4c1.2-0.1,2.3-0.7,3.1-1.7l9.2-10
							c0.3-0.3,0.5-0.8,0.5-1.3s-0.2-0.9-0.5-1.3l-9.2-9.6C503.1,220.4,501.9,219.8,500.8,219.7L500.8,219.7z"/>
						<path d="M500.8,220.4c0.9,0.1,1.7,0.5,2.3,1.1l9.2,9.7c0.1,0.1,0.1,0.2,0.1,0.3c0,0.1-0.1,0.2-0.1,0.3l-9.2,9.9
							c-0.6,0.7-1.4,1.1-2.3,1.2l-60.9,5.4v-31.7L500.8,220.4 M500.8,219l-62.1-4.4v35.9l62.1-6.1c1.2-0.1,2.3-0.7,3.1-1.7l9.2-9.9
							c0.3-0.3,0.5-0.8,0.5-1.3c0-0.5-0.2-0.9-0.5-1.3l-9.2-9.7C503.1,219.7,501.9,219.1,500.8,219L500.8,219z"/>
						<path d="M500.8,219c1.2,0.1,2.3,0.7,3.1,1.6l9.2,9.7c0.3,0.3,0.5,0.8,0.5,1.3c0,0.5-0.2,0.9-0.5,1.3l-9.2,9.9
							c-0.8,0.9-2,1.5-3.1,1.7l-24.1,2.4l-38,3.7v-17.9v-17.9l38,2.7L500.8,219 M500.8,218.3l-24.1-1.8l-38.6-2.9v19v19l38.6-4
							l24.1-2.5c1.3-0.1,2.6-0.8,3.5-1.9l9.2-9.9c1-1,1-2.5,0-3.5l-9.2-9.7C503.4,219,502.1,218.4,500.8,218.3L500.8,218.3z"/>
					</g>
					<g>
						<linearGradient id="SVGID_4_" gradientUnits="userSpaceOnUse" x1="438.1173" y1="231.5244" x2="514.2469" y2="231.5244">
							<stop  offset="0" style="stop-color:#FFFFFF"/>
							<stop  offset="0" style="stop-color:#DEDADB"/>
							<stop  offset="0" style="stop-color:#B9B1B2"/>
							<stop  offset="0" style="stop-color:#988B8E"/>
							<stop  offset="0" style="stop-color:#7B6B6E"/>
							<stop  offset="0" style="stop-color:#634F53"/>
							<stop  offset="0" style="stop-color:#4F393E"/>
							<stop  offset="0" style="stop-color:#40282D"/>
							<stop  offset="0" style="stop-color:#361D21"/>
							<stop  offset="0" style="stop-color:#30161B"/>
							<stop  offset="0" style="stop-color:#2E1419"/>
							<stop  offset="5.911330e-002" style="stop-color:#4C4F51"/>
							<stop  offset="0.5074" style="stop-color:#4C4F51"/>
						</linearGradient>
						<path class="st14" d="M504.3,242.5c-0.9,1.1-2.2,1.7-3.5,1.9l-24.1,2.4l-38.6,3.8v-19v-19l38.6,3.1l24.1,1.9
							c1.3,0.1,2.6,0.8,3.5,1.8l9.2,9.7c1,1,1,2.5,0,3.5L504.3,242.5z"/>
						<g class="st8">
							<path class="st9" d="M500.8,221.1c0.6,0,1.1,0.3,1.5,0.7l8.6,9.1l-8.6,9.2c-0.4,0.4-0.9,0.7-1.5,0.7l-24.1,1.8l-35.6,2.6
								v-13.8v-13.8l35.6,2L500.8,221.1 M500.8,217.6l-24.1-1.9l-38.6-3.1v19v19l38.6-3.8l24.1-2.4c1.3-0.1,2.6-0.8,3.5-1.9l9.2-9.9
								c1-1,1-2.5,0-3.5l-9.2-9.7C503.4,218.3,502.1,217.7,500.8,217.6L500.8,217.6z"/>
						</g>
						<g>
							<g class="st6">
								<path d="M500.8,220.4c0.9,0.1,1.7,0.5,2.3,1.1l9.2,9.7c0.1,0.1,0.1,0.2,0.1,0.3c0,0.1-0.1,0.2-0.1,0.3l-9.2,9.9
									c-0.6,0.7-1.4,1.1-2.3,1.2l-60.9,5.4v-31.7L500.8,220.4 M500.8,219l-62.1-4.4v35.9l62.1-6.1c1.2-0.1,2.3-0.7,3.1-1.7
									l9.2-9.9c0.3-0.3,0.5-0.8,0.5-1.3c0-0.5-0.2-0.9-0.5-1.3l-9.2-9.7C503.1,219.7,501.9,219.1,500.8,219L500.8,219z"/>
							</g>
							<linearGradient id="SVGID_5_" gradientUnits="userSpaceOnUse" x1="438.7171" y1="231.5192" x2="513.6468" y2="231.5192">
								<stop  offset="0" style="stop-color:#FFFFFF"/>
								<stop  offset="0" style="stop-color:#F4F4F4"/>
								<stop  offset="0" style="stop-color:#DEDEDE"/>
								<stop  offset="0" style="stop-color:#CDCDCD"/>
								<stop  offset="0" style="stop-color:#C2C2C2"/>
								<stop  offset="0" style="stop-color:#BBBBBB"/>
								<stop  offset="0" style="stop-color:#B9B9B9"/>
								<stop  offset="5.911330e-002" style="stop-color:#E1E1E1"/>
								<stop  offset="1" style="stop-color:#E1E1E1"/>
							</linearGradient>
							<path class="st15" d="M500.8,219.7c0.9,0.1,1.7,0.5,2.3,1.2l9.2,9.7c0.1,0.1,0.1,0.2,0.1,0.3s-0.1,0.2-0.1,0.3l-9.2,9.9
								c-0.6,0.7-1.4,1.1-2.3,1.2l-60.9,5.1v-31.7L500.8,219.7 M500.8,218.3l-62.1-4.7v35.9l62.1-5.8c1.2-0.1,2.3-0.7,3.1-1.6
								l9.2-9.9c0.3-0.3,0.5-0.8,0.5-1.3s-0.2-0.9-0.5-1.3l-9.2-9.7C503.1,219,501.9,218.4,500.8,218.3L500.8,218.3z"/>
						</g>
						<path class="st4" d="M500.8,218.3c1.2,0.1,2.3,0.7,3.1,1.6l9.2,9.7c0.3,0.3,0.5,0.8,0.5,1.3c0,0.5-0.2,0.9-0.5,1.3l-9.2,9.9
							c-0.8,0.9-2,1.5-3.1,1.6l-24.1,2.2l-38,3.5v-17.9v-17.9l38,2.9L500.8,218.3 M500.8,217.6l-24.1-1.9l-38.6-3.1v19v19l38.6-3.8
							l24.1-2.4c1.3-0.1,2.6-0.8,3.5-1.9l9.2-9.9c1-1,1-2.5,0-3.5l-9.2-9.7C503.4,218.3,502.1,217.7,500.8,217.6L500.8,217.6z"/>
					</g>
				</g>
				<g>
					<polygon class="st11" points="445.6,249.8 440.6,250.3 440.6,212.7 445.6,213.1 					"/>
				</g>
				<g>
					<path class="st12" d="M460.5,234.8c-0.3,0-0.6,0-1.1,0c-0.6,0-0.9,0-1.1,0l-1.5,0c-0.1,0-0.4,0-0.6,0c-0.1,0-0.1-0.1-0.1-0.2
						c0-0.5,0-1.2,0-2.2c0-1,0-1.7,0-2.2c0-0.5,0-1.3,0-2.4c0-1,0-1.8,0-2.4c0-0.1,0-0.1,0.1-0.1c0.1,0,0.2,0,0.4,0
						c0.2,0,0.3,0,0.4,0c0.1,0,0.3,0,0.5,0c0.2,0,0.4,0,0.5,0c0,0,0.1,0,0.1,0.1l0,0.1c0,0.8-0.1,2.1-0.1,3.8l0,1.8c0,0.6,0,1,0,1.3
						c0,0.1,0,0.1,0,0.2c0,0.1,0,0.1,0.1,0.1c0,0,0,0,0.1,0c0.3,0,0.7,0,1.3-0.1c0.6-0.1,1-0.1,1.3-0.1c0.1,0,0.1,0,0.1,0.2
						c0,0.8,0,1.4-0.1,2c0,0.1-0.1,0.2-0.1,0.2C460.6,234.8,460.6,234.8,460.5,234.8z"/>
					<path class="st12" d="M466.3,231.4c0,0.3,0,0.8,0,1.5c0,0.7,0,1.1,0,1.5c0,0.2-0.1,0.3-0.2,0.3c-0.4,0-0.9,0.1-1.4,0.1
						c-0.1,0-0.1-0.1-0.1-0.4c0-0.2,0-0.4-0.1-0.4c0,0-0.1,0.1-0.1,0.1c-0.4,0.5-0.8,0.8-1.2,0.8c-0.6,0-1.2-0.3-1.6-1
						c-0.4-0.6-0.6-1.4-0.6-2.3c0-1,0.2-1.8,0.6-2.5c0.4-0.6,1-1,1.7-0.9c0.5,0,0.9,0.2,1.2,0.7c0,0,0,0,0,0c0,0,0.1-0.1,0.1-0.3
						c0-0.2,0.1-0.3,0.1-0.3c0.1,0,0.3,0,0.7,0.1c0.3,0.1,0.6,0.2,0.7,0.2c0,0,0.1,0.1,0.1,0.1c0,0,0,0.1,0,0.1
						C466.3,229.7,466.3,230.5,466.3,231.4z M464.7,231.4c0-0.4-0.1-0.7-0.3-0.9c-0.2-0.2-0.4-0.4-0.7-0.4c-0.3,0-0.5,0.1-0.7,0.4
						c-0.2,0.2-0.3,0.5-0.3,0.9c0,0.4,0.1,0.7,0.3,0.9c0.2,0.3,0.4,0.4,0.7,0.4c0.3,0,0.5-0.1,0.7-0.4
						C464.6,232.1,464.7,231.8,464.7,231.4z"/>
					<path class="st12" d="M472.1,234.2c0,0.1,0,0.2-0.1,0.2c-0.1,0-0.3,0-0.7,0c-0.4,0-0.7,0-0.8,0c-0.1,0-0.1-0.1-0.1-0.3
						c0-0.2,0-0.5,0-0.9c0-0.4,0-0.7,0-0.9c0-0.2,0-0.4,0-0.7c0-0.3,0-0.5,0-0.7c0-0.6-0.2-0.9-0.6-0.9c-0.1,0-0.3,0.1-0.4,0.2
						c-0.2,0.2-0.3,0.3-0.3,0.5v3.4c0,0.1-0.1,0.2-0.2,0.2c-0.1,0-0.3,0-0.7,0c-0.4,0-0.6,0-0.7,0c-0.1,0-0.2-0.1-0.2-0.2
						c0-0.3,0-0.8,0-1.5c0-0.7,0-1.2,0-1.5c0-1.1-0.1-1.9-0.2-2.5c0,0,0-0.1,0-0.1c0-0.1,0-0.1,0.1-0.1c0.2,0,0.5-0.1,0.8-0.1
						c0.5-0.1,0.8-0.2,0.9-0.2c0,0,0.1,0.1,0.1,0.4c0,0.3,0,0.4,0.1,0.4c0,0,0.1-0.1,0.5-0.4c0.4-0.3,0.7-0.4,1-0.4
						c0.4,0,0.8,0.1,1,0.4c0.3,0.3,0.5,0.7,0.5,1.2v2c0,0.3,0,0.7,0,1.2C472.1,233.6,472.1,234,472.1,234.2z"/>
					<path class="st12" d="M478,225.7c0-0.1,0,0,0,0.4c0,0.4-0.1,1-0.1,1.7c0,0.8,0,1.7,0,2.7c0,1.7,0,2.8,0.1,3.5
						c0,0.1,0,0.1,0,0.1c0,0,0,0.1-0.1,0.1c-0.1,0-0.5,0-1.3,0.1c-0.2,0-0.3,0-0.3-0.1c0-0.2,0-0.3,0-0.5c0,0,0-0.1,0-0.1
						c0,0,0,0-0.1,0.1c-0.3,0.4-0.8,0.7-1.3,0.7c-0.7,0-1.2-0.3-1.6-0.9c-0.4-0.6-0.6-1.3-0.6-2.2c0-0.9,0.2-1.6,0.6-2.2
						c0.4-0.6,1-0.9,1.7-0.9c0.5,0,0.9,0.2,1.1,0.6c0,0.1,0.1,0.1,0.1,0.1c0,0,0-0.1,0-0.2c0-0.3,0-0.8,0-1.4c0-0.6,0-1.1,0-1.4
						c0-0.1,0-0.2,0.1-0.2c0.2,0,0.5,0,0.9-0.1c0.6-0.1,0.9-0.1,0.9-0.1C478,225.6,478,225.6,478,225.7z M476.2,231.3
						c0-0.3-0.1-0.6-0.3-0.8c-0.2-0.2-0.4-0.4-0.6-0.4c-0.3,0-0.5,0.1-0.6,0.4c-0.2,0.2-0.2,0.5-0.2,0.9c0,0.3,0.1,0.6,0.2,0.8
						c0.2,0.2,0.4,0.4,0.6,0.4c0.3,0,0.5-0.1,0.7-0.4C476.1,231.9,476.2,231.6,476.2,231.3z"/>
				</g>
				<polygon class="st13" points="499.3,236.9 504.8,230.4 499.3,224 504.8,230.4 				"/>
			</g>
		</g>
		<g>
			<linearGradient id="SVGID_6_" gradientUnits="userSpaceOnUse" x1="424.9746" y1="292.6101" x2="437.42" y2="292.6101">
				<stop  offset="0" style="stop-color:#FFFFFF"/>
				<stop  offset="0" style="stop-color:#D5D6D7"/>
				<stop  offset="0" style="stop-color:#ACAEAF"/>
				<stop  offset="0" style="stop-color:#86898B"/>
				<stop  offset="0" style="stop-color:#66696C"/>
				<stop  offset="0" style="stop-color:#4A4E52"/>
				<stop  offset="0" style="stop-color:#34393D"/>
				<stop  offset="0" style="stop-color:#23282D"/>
				<stop  offset="0" style="stop-color:#181C21"/>
				<stop  offset="0" style="stop-color:#11161B"/>
				<stop  offset="0" style="stop-color:#0F1419"/>
				<stop  offset="0.3547" style="stop-color:#64696E"/>
				<stop  offset="0.6502" style="stop-color:#373C41"/>
				<stop  offset="0.8079" style="stop-color:#5A5F64"/>
				<stop  offset="0.8895" style="stop-color:#494E53"/>
				<stop  offset="1" style="stop-color:#373C41"/>
			</linearGradient>
			<path class="st16" d="M437.4,390c0,0.5-0.4,1.4-0.9,1.8c-3.1,2.4-7.6,2.4-10.7,0c-0.5-0.4-0.9-1.2-0.9-1.8
				c0-65.3,0-130.6,0-195.9c0-0.5,0.4-1.2,1-1.4c3.4-1.4,7.2-1.4,10.5,0c0.5,0.2,1,0.9,1,1.4C437.4,259.4,437.4,324.7,437.4,390z"/>
		</g>
		
			<radialGradient id="SVGID_7_" cx="424.2099" cy="208.3257" r="5.5" gradientTransform="matrix(0.8297 0 0 0.7594 77.9927 30.0339)" gradientUnits="userSpaceOnUse">
			<stop  offset="0" style="stop-color:#FFFFFF"/>
			<stop  offset="0" style="stop-color:#F5F5F5"/>
			<stop  offset="0" style="stop-color:#EAEAEA"/>
			<stop  offset="0" style="stop-color:#E3E3E3"/>
			<stop  offset="0" style="stop-color:#E1E1E1"/>
			<stop  offset="1" style="stop-color:#5F5F5F"/>
		</radialGradient>
		<ellipse class="st17" cx="431.2" cy="190" rx="4.6" ry="4.2"/>
		
			<radialGradient id="SVGID_8_" cx="423.119" cy="213.3659" r="7.1645" gradientTransform="matrix(0.8297 0 0 0.7594 77.9927 30.0339)" gradientUnits="userSpaceOnUse">
			<stop  offset="0" style="stop-color:#FFFFFF"/>
			<stop  offset="0" style="stop-color:#F5F5F5"/>
			<stop  offset="0" style="stop-color:#EAEAEA"/>
			<stop  offset="0" style="stop-color:#E3E3E3"/>
			<stop  offset="0" style="stop-color:#E1E1E1"/>
			<stop  offset="1" style="stop-color:#5F5F5F"/>
		</radialGradient>
		<path class="st18" d="M431.2,190.1c-4.4,0-7.9,1.4-7.9,3v3.8h15.8v-3.8C439.1,191.5,435.6,190.1,431.2,190.1z"/>
		<g>
			<g>
				<linearGradient id="SVGID_9_" gradientUnits="userSpaceOnUse" x1="424.151" y1="314.2998" x2="438.2556" y2="314.2998">
					<stop  offset="0" style="stop-color:#FFFFFF"/>
					<stop  offset="0" style="stop-color:#D5D6D7"/>
					<stop  offset="0" style="stop-color:#ACAEAF"/>
					<stop  offset="0" style="stop-color:#86898B"/>
					<stop  offset="0" style="stop-color:#66696C"/>
					<stop  offset="0" style="stop-color:#4A4E52"/>
					<stop  offset="0" style="stop-color:#34393D"/>
					<stop  offset="0" style="stop-color:#23282D"/>
					<stop  offset="0" style="stop-color:#181C21"/>
					<stop  offset="0" style="stop-color:#11161B"/>
					<stop  offset="0" style="stop-color:#0F1419"/>
					<stop  offset="0.3547" style="stop-color:#64696E"/>
					<stop  offset="0.6502" style="stop-color:#373C41"/>
					<stop  offset="0.8079" style="stop-color:#5A5F64"/>
					<stop  offset="0.8895" style="stop-color:#494E53"/>
					<stop  offset="1" style="stop-color:#373C41"/>
				</linearGradient>
				<rect x="424.2" y="294.6" class="st19" width="14.1" height="39.5"/>
				<rect x="424.2" y="294.6" class="st20" width="14.1" height="39.5"/>
			</g>
			<g>
				<linearGradient id="SVGID_10_" gradientUnits="userSpaceOnUse" x1="424.151" y1="272.5324" x2="438.2556" y2="272.5324">
					<stop  offset="0" style="stop-color:#FFFFFF"/>
					<stop  offset="0" style="stop-color:#D5D6D7"/>
					<stop  offset="0" style="stop-color:#ACAEAF"/>
					<stop  offset="0" style="stop-color:#86898B"/>
					<stop  offset="0" style="stop-color:#66696C"/>
					<stop  offset="0" style="stop-color:#4A4E52"/>
					<stop  offset="0" style="stop-color:#34393D"/>
					<stop  offset="0" style="stop-color:#23282D"/>
					<stop  offset="0" style="stop-color:#181C21"/>
					<stop  offset="0" style="stop-color:#11161B"/>
					<stop  offset="0" style="stop-color:#0F1419"/>
					<stop  offset="0.3547" style="stop-color:#64696E"/>
					<stop  offset="0.6502" style="stop-color:#373C41"/>
					<stop  offset="0.8079" style="stop-color:#5A5F64"/>
					<stop  offset="0.8895" style="stop-color:#494E53"/>
					<stop  offset="1" style="stop-color:#373C41"/>
				</linearGradient>
				<rect x="424.2" y="252.8" class="st21" width="14.1" height="39.5"/>
				<rect x="424.2" y="252.8" class="st20" width="14.1" height="39.5"/>
			</g>
			<g>
				<linearGradient id="SVGID_11_" gradientUnits="userSpaceOnUse" x1="424.151" y1="230.765" x2="438.2556" y2="230.765">
					<stop  offset="0" style="stop-color:#FFFFFF"/>
					<stop  offset="0" style="stop-color:#D5D6D7"/>
					<stop  offset="0" style="stop-color:#ACAEAF"/>
					<stop  offset="0" style="stop-color:#86898B"/>
					<stop  offset="0" style="stop-color:#66696C"/>
					<stop  offset="0" style="stop-color:#4A4E52"/>
					<stop  offset="0" style="stop-color:#34393D"/>
					<stop  offset="0" style="stop-color:#23282D"/>
					<stop  offset="0" style="stop-color:#181C21"/>
					<stop  offset="0" style="stop-color:#11161B"/>
					<stop  offset="0" style="stop-color:#0F1419"/>
					<stop  offset="0.3547" style="stop-color:#64696E"/>
					<stop  offset="0.6502" style="stop-color:#373C41"/>
					<stop  offset="0.8079" style="stop-color:#5A5F64"/>
					<stop  offset="0.8895" style="stop-color:#494E53"/>
					<stop  offset="1" style="stop-color:#373C41"/>
				</linearGradient>
				<rect x="424.2" y="211" class="st22" width="14.1" height="39.5"/>
				<rect x="424.2" y="211" class="st20" width="14.1" height="39.5"/>
			</g>
		</g>
		<linearGradient id="SVGID_12_" gradientUnits="userSpaceOnUse" x1="341.5974" y1="235.0683" x2="341.5974" y2="235.0683">
			<stop  offset="0" style="stop-color:#FFFFFF"/>
			<stop  offset="0" style="stop-color:#DEDADB"/>
			<stop  offset="0" style="stop-color:#B9B1B2"/>
			<stop  offset="0" style="stop-color:#988B8E"/>
			<stop  offset="0" style="stop-color:#7B6B6E"/>
			<stop  offset="0" style="stop-color:#634F53"/>
			<stop  offset="0" style="stop-color:#4F393E"/>
			<stop  offset="0" style="stop-color:#40282D"/>
			<stop  offset="0" style="stop-color:#361D21"/>
			<stop  offset="0" style="stop-color:#30161B"/>
			<stop  offset="0" style="stop-color:#2E1419"/>
			<stop  offset="5.911330e-002" style="stop-color:#4C4F51"/>
			<stop  offset="0.5074" style="stop-color:#4C4F51"/>
		</linearGradient>
		<path class="st23" d="M341.6,235.1"/>
		<g>
			<g>
				<g id="signPlate_20_">
					<g id="Plate_29_">
						<g class="st6">
							<path d="M349.1,288.9c1.1,1.3,2.5,2,4,2l27.2,0.9l43.6,1.4v-19v-19l-43.6,1.8l-27.2,1.1c-1.5,0.1-2.9,0.8-4,2.1l-10.4,12.2
								c-1.1,1.2-1.1,3.3,0,4.5L349.1,288.9z"/>
							<path d="M420.6,260.4v13.9v13.9l-40.2-0.9l-27.2-0.6c-0.6,0-1.3-0.3-1.7-0.8l-9.7-11.2l9.7-11.3c0.4-0.5,1-0.8,1.7-0.8
								l27.2-0.8L420.6,260.4 M424,255.3l-43.6,1.8l-27.2,1.1c-1.5,0.1-2.9,0.8-4,2.1l-10.4,12.2c-1.1,1.2-1.1,3.3,0,4.5l10.4,12.1
								c1.1,1.3,2.5,2,4,2l27.2,0.9l43.6,1.4v-19V255.3L424,255.3z"/>
							<path d="M421.9,259.4v31.8l-68.8-2c-1,0-1.9-0.5-2.6-1.3l-10.4-12.1c-0.1-0.1-0.2-0.2-0.2-0.4c0-0.1,0.1-0.3,0.2-0.4
								l10.4-12.1c0.7-0.8,1.6-1.3,2.6-1.3L421.9,259.4 M423.3,257.3l-70.2,2.6c-1.3,0-2.6,0.7-3.5,1.8l-10.4,12.1
								c-0.4,0.4-0.6,1-0.6,1.6c0,0.6,0.2,1.2,0.6,1.6l10.4,12.1c0.9,1.1,2.2,1.8,3.5,1.8l70.2,2.3V257.3L423.3,257.3z"/>
							<path d="M421.9,258.4v31.8l-68.8-1.8c-1,0-1.9-0.5-2.6-1.3L340.1,275c-0.1-0.1-0.2-0.2-0.2-0.4c0-0.1,0.1-0.3,0.2-0.4
								l10.4-12.1c0.7-0.8,1.6-1.3,2.6-1.3L421.9,258.4 M423.3,256.3l-70.2,2.7c-1.3,0.1-2.6,0.7-3.5,1.8L339.1,273
								c-0.4,0.4-0.6,1-0.6,1.6c0,0.6,0.2,1.2,0.6,1.6l10.4,12.1c0.9,1.1,2.2,1.7,3.5,1.8l70.2,2.1V256.3L423.3,256.3z"/>
							<path d="M423.3,256.3v18v18l-43-1.3l-27.2-0.8c-1.3,0-2.6-0.7-3.5-1.8l-10.4-12.1c-0.4-0.4-0.6-1-0.6-1.6
								c0-0.6,0.2-1.2,0.6-1.6l10.4-12.2c0.9-1.1,2.2-1.8,3.5-1.8l27.2-1L423.3,256.3 M424,255.3l-43.6,1.8l-27.2,1.1
								c-1.5,0.1-2.9,0.8-4,2.1l-10.4,12.2c-1.1,1.2-1.1,3.3,0,4.5l10.4,12.1c1.1,1.3,2.5,2,4,2l27.2,0.9l43.6,1.4v-19V255.3
								L424,255.3z"/>
						</g>
						<g>
							
								<linearGradient id="SVGID_13_" gradientUnits="userSpaceOnUse" x1="433.1173" y1="273.2918" x2="519.2163" y2="273.2918" gradientTransform="matrix(-1 0 0 1 857.071 0)">
								<stop  offset="0" style="stop-color:#FFFFFF"/>
								<stop  offset="0" style="stop-color:#DEDADB"/>
								<stop  offset="0" style="stop-color:#B9B1B2"/>
								<stop  offset="0" style="stop-color:#988B8E"/>
								<stop  offset="0" style="stop-color:#7B6B6E"/>
								<stop  offset="0" style="stop-color:#634F53"/>
								<stop  offset="0" style="stop-color:#4F393E"/>
								<stop  offset="0" style="stop-color:#40282D"/>
								<stop  offset="0" style="stop-color:#361D21"/>
								<stop  offset="0" style="stop-color:#30161B"/>
								<stop  offset="0" style="stop-color:#2E1419"/>
								<stop  offset="5.911330e-002" style="stop-color:#4C4F51"/>
								<stop  offset="0.5074" style="stop-color:#4C4F51"/>
							</linearGradient>
							<path class="st24" d="M349.1,288.1c1.1,1.3,2.5,2,4,2l27.2,0.8l43.6,1.3v-19v-19l-43.6,1.8l-27.2,1.1c-1.5,0.1-2.9,0.8-4,2.1
								l-10.4,12.2c-1.1,1.2-1.1,3.3,0,4.5L349.1,288.1z"/>
							<g class="st8">
								<path class="st9" d="M420.6,259.4v13.9v13.9l-40.2-0.8l-27.2-0.6c-0.6,0-1.3-0.3-1.7-0.8l-9.7-11.2l9.7-11.3
									c0.4-0.5,1-0.8,1.7-0.8l27.2-0.9L420.6,259.4 M424,254.3l-43.6,1.8l-27.2,1.1c-1.5,0.1-2.9,0.8-4,2.1l-10.4,12.2
									c-1.1,1.2-1.1,3.3,0,4.5l10.4,12.1c1.1,1.3,2.5,2,4,2l27.2,0.8l43.6,1.3v-19V254.3L424,254.3z"/>
							</g>
							<g>
								<g class="st6">
									<path d="M421.9,258.4v31.8l-68.8-1.8c-1,0-1.9-0.5-2.6-1.3L340.1,275c-0.1-0.1-0.2-0.2-0.2-0.4c0-0.1,0.1-0.3,0.2-0.4
										l10.4-12.1c0.7-0.8,1.6-1.3,2.6-1.3L421.9,258.4 M423.3,256.3l-70.2,2.7c-1.3,0.1-2.6,0.7-3.5,1.8L339.1,273
										c-0.4,0.4-0.6,1-0.6,1.6c0,0.6,0.2,1.2,0.6,1.6l10.4,12.1c0.9,1.1,2.2,1.7,3.5,1.8l70.2,2.1V256.3L423.3,256.3z"/>
								</g>
								<linearGradient id="SVGID_14_" gradientUnits="userSpaceOnUse" x1="423.2753" y1="273.2957" x2="338.5334" y2="273.2957">
									<stop  offset="0" style="stop-color:#FFFFFF"/>
									<stop  offset="0" style="stop-color:#F4F4F4"/>
									<stop  offset="0" style="stop-color:#DEDEDE"/>
									<stop  offset="0" style="stop-color:#CDCDCD"/>
									<stop  offset="0" style="stop-color:#C2C2C2"/>
									<stop  offset="0" style="stop-color:#BBBBBB"/>
									<stop  offset="0" style="stop-color:#B9B9B9"/>
									<stop  offset="5.911330e-002" style="stop-color:#E1E1E1"/>
									<stop  offset="1" style="stop-color:#E1E1E1"/>
								</linearGradient>
								<path class="st25" d="M421.9,257.4v31.8l-68.8-1.7c-1,0-1.9-0.5-2.6-1.3l-10.4-12c-0.1-0.1-0.2-0.2-0.2-0.4
									c0-0.1,0.1-0.3,0.2-0.4l10.4-12.2c0.7-0.8,1.6-1.3,2.6-1.3L421.9,257.4 M423.3,255.3l-70.2,2.8c-1.3,0.1-2.6,0.7-3.5,1.8
									l-10.4,12.2c-0.4,0.4-0.6,1-0.6,1.6c0,0.6,0.2,1.2,0.6,1.6l10.4,12.1c0.9,1.1,2.2,1.7,3.5,1.8l70.2,2V255.3L423.3,255.3z"/>
							</g>
							<path class="st4" d="M423.3,255.3v18v18l-43-1.2l-27.2-0.8c-1.3,0-2.6-0.7-3.5-1.8l-10.4-12.1c-0.4-0.4-0.6-1-0.6-1.6
								s0.2-1.2,0.6-1.6l10.4-12.2c0.9-1.1,2.2-1.8,3.5-1.8l27.2-1.1L423.3,255.3 M424,254.3l-43.6,1.8l-27.2,1.1
								c-1.5,0.1-2.9,0.8-4,2.1l-10.4,12.2c-1.1,1.2-1.1,3.3,0,4.5l10.4,12.1c1.1,1.3,2.5,2,4,2l27.2,0.8l43.6,1.3v-19V254.3
								L424,254.3z"/>
						</g>
					</g>
					<g>
						<polygon class="st11" points="415.5,292 421.1,292.2 421.1,254.4 415.5,254.7 						"/>
					</g>
					<polygon class="st13" points="354.7,280.9 348.5,273.1 354.7,265.1 348.5,273.1 					"/>
				</g>
				<g>
					<path class="st12" d="M375.9,277c0,0,0,0.1-0.1,0.1c-0.1,0-0.5,0-1.1,0c-0.5,0-0.8,0-1,0c-0.1,0-0.1,0-0.1,0c0,0,0-0.1-0.1-0.1
						c-0.1-0.2-0.1-0.4-0.2-0.8c-0.1-0.4-0.4-1.1-0.7-2c-0.1-0.2-0.2-0.3-0.5-0.3c0.1,0-0.1,0-0.6,0c-0.1,0-0.1,0.1-0.1,0.3
						c0,0.3,0,0.8,0.1,1.4c0,0.6,0.1,1.1,0.1,1.4c0,0.1,0,0.1,0,0.1c-0.1,0-0.1,0-0.2,0c-0.2,0-0.6,0-1,0c-0.5,0-0.8,0-0.9,0
						c-0.1,0-0.2-0.1-0.2-0.2c0-0.5,0-1.2,0.1-2.2c0-1,0.1-1.7,0.1-2.2c0-1.9,0-3.3-0.1-4.4l0-0.1c0-0.1,0.1-0.1,0.2-0.2
						c0.1,0,0.7-0.1,1.7-0.1c0.7,0,1.2,0,1.6-0.1c0.8,0,1.5,0.2,2,0.7c0.6,0.5,0.9,1.3,0.9,2.2c0,0.7-0.1,1.2-0.2,1.6
						c-0.2,0.4-0.4,0.8-0.9,1.1c-0.1,0.1-0.1,0.1-0.1,0.2c0,0,0.2,0.6,0.7,1.7C375.7,276.2,375.9,276.8,375.9,277z M373.6,270.9
						c0-0.5-0.1-0.9-0.4-1.1c-0.2-0.2-0.6-0.2-1.1-0.2c-0.3,0-0.5,0.1-0.6,0.2c0,0.2,0,0.6,0,1.3c0,0.1,0,0.3,0,0.5
						c0,0.2,0,0.3,0,0.4c0,0,0.1,0,0.2,0.1c0.2,0,0.5,0.1,0.7,0.1C373.2,272.1,373.6,271.7,373.6,270.9z"/>
					<path class="st12" d="M381.5,273.3c0,0.5-0.1,0.7-0.4,0.8c0,0-0.4,0.1-1.1,0.2c-0.4,0.1-1.1,0.1-1.9,0.2
						c0.1,0.3,0.2,0.5,0.5,0.7c0.2,0.1,0.5,0.2,0.7,0.2c0.3,0,0.7-0.1,1-0.3c0.1-0.1,0.3-0.2,0.4-0.3c0.1,0,0.2,0.3,0.4,0.7
						c0.2,0.4,0.3,0.7,0.3,0.8c0,0,0,0.1-0.1,0.2c-0.4,0.6-1.1,0.9-2.1,0.9c-0.9,0-1.6-0.3-2.1-0.9c-0.6-0.6-0.8-1.5-0.8-2.5
						c0-1,0.2-1.9,0.7-2.5c0.5-0.7,1.2-1,2-1.1c0.7,0,1.3,0.3,1.8,0.9C381.3,271.7,381.5,272.5,381.5,273.3z M379.6,272.9
						c0-0.3-0.1-0.5-0.2-0.7c-0.2-0.2-0.4-0.3-0.6-0.3c-0.2,0-0.4,0.1-0.6,0.4c-0.1,0.2-0.2,0.5-0.2,0.8c0,0.1,0.1,0.2,0.2,0.2
						c0.3,0,0.7-0.1,1.3-0.2C379.5,273,379.6,273,379.6,272.9z"/>
					<path class="st12" d="M387.6,275.2c0,1.3-0.2,2.3-0.7,2.8c-0.5,0.6-1.2,0.9-2.3,0.9c-0.3,0-0.7-0.1-1.3-0.2
						c-0.7-0.2-1-0.3-1-0.6c0-0.1,0.1-0.5,0.2-1.3c0-0.1,0.1-0.2,0.1-0.2c0,0,0,0,0.1,0c0.6,0.3,1.1,0.5,1.6,0.5
						c0.3,0,0.5-0.1,0.8-0.2c0.3-0.2,0.5-0.4,0.5-0.7v-0.5c-0.4,0.4-0.9,0.7-1.4,0.7c-0.7,0-1.3-0.3-1.7-0.9
						c-0.4-0.6-0.6-1.3-0.6-2.2c0-0.9,0.2-1.6,0.6-2.2c0.4-0.6,1-0.9,1.7-0.9c0.6,0,1,0.2,1.3,0.7c0.1,0.1,0.1,0.2,0.1,0.2
						c0,0,0-0.1,0-0.2c0-0.4,0-0.6,0.1-0.6c0.1,0,0.4,0,1,0.1c0.6,0.1,0.9,0.1,0.9,0.1c0.1,0,0.1,0.1,0.1,0.2c0,0.3,0,0.8,0,1.4
						c0,0.6,0,1.1,0,1.4c0,0.2,0,0.5,0,0.8C387.6,274.8,387.6,275.1,387.6,275.2z M385.7,273.3c0-0.3-0.1-0.6-0.3-0.9
						c-0.2-0.2-0.4-0.4-0.7-0.4c-0.3,0-0.5,0.1-0.7,0.4c-0.2,0.3-0.3,0.5-0.3,0.9c0,0.3,0.1,0.6,0.3,0.9c0.2,0.2,0.4,0.4,0.7,0.4
						c0.3,0,0.5-0.1,0.7-0.4C385.6,274,385.7,273.7,385.7,273.3z"/>
					<path class="st12" d="M390.6,273.9c0,0.3,0,0.8,0,1.5c0,0.7,0,1.2,0,1.5c0,0.1,0,0.2-0.1,0.2c-0.1,0-0.4,0-0.8,0
						c-0.4,0-0.7,0-0.8,0c-0.1,0-0.1,0-0.1-0.1c0,0,0-0.1,0-0.2c0-0.3,0-0.8,0-1.4c0-0.6,0-1.1,0-1.4c0-1.3,0-2.4-0.1-3.1
						c0-0.1,0-0.1,0-0.1c0-0.1,0-0.1,0.1-0.1c0.1,0,0.3,0,0.5,0c0.2,0,0.4,0,0.5,0c0.1,0,0.3,0,0.5,0c0.2,0,0.4,0,0.5,0
						c0.1,0,0.1,0,0.1,0.1c0,0,0,0.1,0,0.1C390.6,271.6,390.6,272.7,390.6,273.9z M390.7,268.7c0,0.8-0.4,1.2-1.1,1.2
						c-0.3,0-0.6-0.1-0.8-0.3c-0.2-0.2-0.3-0.5-0.3-0.9c0-0.4,0.1-0.7,0.3-0.9c0.2-0.2,0.5-0.3,0.8-0.3c0.3,0,0.5,0.1,0.7,0.3
						C390.6,268,390.7,268.3,390.7,268.7z"/>
					<path class="st12" d="M394.8,271.4c0,0,0,0.1-0.1,0.2c-0.1,0-0.2,0-0.3,0c-0.2,0-0.4,0.1-0.5,0.2c-0.2,0.1-0.3,0.3-0.3,0.6
						c0,0.2,0.1,0.4,0.3,0.6c0.3,0.4,0.5,0.6,0.5,0.8c0.2,0.4,0.3,0.7,0.3,1.1c0,0.2,0,0.5-0.1,0.8c-0.1,0.3-0.2,0.5-0.3,0.6
						c-0.3,0.3-0.6,0.5-1,0.8c-0.4,0.2-0.8,0.3-1.1,0.3c-0.1,0-0.2-0.3-0.5-0.8c-0.3-0.5-0.4-0.8-0.4-0.9c0,0,0-0.1,0.1-0.1
						c0.3-0.1,0.5-0.1,0.8-0.2c0.3-0.1,0.5-0.3,0.5-0.6c0-0.2-0.1-0.4-0.3-0.7c-0.3-0.5-0.5-0.7-0.5-0.7c-0.2-0.3-0.3-0.7-0.3-1.1
						c0-0.7,0.3-1.3,0.8-1.8c0.5-0.4,1-0.7,1.6-0.7c0.1,0,0.2,0.2,0.4,0.7C394.7,271,394.8,271.3,394.8,271.4z"/>
					<path class="st12" d="M399.3,275c0,0.1,0,0.4,0,0.6c0,0.3,0,0.5,0,0.6c0,0.1,0,0.2,0,0.3c0,0-0.1,0.1-0.2,0.2
						c-0.5,0.3-1,0.5-1.6,0.5c-1.1,0-1.6-0.5-1.6-1.6c0-0.3,0-0.8,0-1.4c0-0.6,0-1.1,0-1.4c0-0.2-0.1-0.3-0.3-0.3c0,0,0,0-0.1,0
						c0,0-0.1,0-0.1,0c-0.1,0-0.2-0.1-0.2-0.2c0-0.1,0-0.2,0-0.3c0-0.2,0-0.3,0-0.3c0-0.1,0-0.2,0-0.4c0-0.2,0-0.4,0-0.4
						c0-0.1,0.1-0.1,0.4-0.2c0.1,0,0.2-0.1,0.2-0.1c0-0.2,0-0.5,0-0.8c0-0.6,0-0.9,0-0.9c0-0.5,0-0.8,0.1-0.8c0.1,0,0.2,0,0.4,0.1
						c0.2,0.1,0.4,0.1,0.4,0.1c0.2,0,0.5,0.1,0.8,0.1c0.1,0,0.1,0,0.1,0.1c0,0.2,0,0.5,0,0.9c0,0.4,0,0.7,0,0.9
						c0,0.2,0.1,0.3,0.2,0.3c0.1,0,0.3,0,0.6,0c0.3,0,0.5,0,0.6,0c0.1,0,0.1,0,0.1,0.1c0,0.1,0,0.3,0,0.5c0,0.2,0,0.4,0,0.5
						c0,0.1,0,0.3,0,0.5c0,0.2,0,0.4,0,0.5c0,0.1-0.1,0.1-0.2,0.1c-0.1,0-0.2,0-0.4,0c-0.2,0-0.3,0-0.4,0l-0.4,0
						c-0.1,0-0.1,0.1-0.1,0.3c0,0.1,0,0.3,0,0.5c0,0.2,0,0.4,0,0.5c0,0.4,0,0.7,0.1,0.8c0.1,0.2,0.3,0.3,0.6,0.3
						c0.1,0,0.2,0,0.4-0.1c0.2-0.1,0.3-0.1,0.4-0.1C399.3,274.8,399.3,274.9,399.3,275z"/>
					<path class="st12" d="M403.5,272.6c0,0.2-0.1,0.3-0.2,0.3c-0.1,0-0.2,0-0.3,0c-0.1,0-0.2,0-0.3,0c-0.3,0-0.5,0.1-0.6,0.2
						c-0.1,0.1-0.2,0.4-0.2,0.7c0,0.2,0,0.5,0,0.9c0,0.4,0,0.7,0,0.9c0,0.1,0,0.3,0,0.6c0,0.3,0,0.5,0,0.6c0,0.1-0.1,0.2-0.2,0.2
						c-0.2,0-0.4,0-0.8,0c-0.3,0-0.6,0-0.8,0c-0.1,0-0.2-0.1-0.2-0.2c0-0.4,0-0.9,0-1.7c0-0.8,0-1.3,0-1.7c0-1.1-0.1-2-0.2-2.7
						c0,0,0-0.1,0-0.1c0-0.1,0-0.1,0.1-0.1c0.2,0,0.5-0.1,0.9-0.2c0.6-0.2,0.9-0.2,0.9-0.2c0.1,0,0.1,0.1,0.1,0.4
						c0,0.3,0.1,0.4,0.1,0.4c-0.1,0,0.1-0.1,0.5-0.4c0.4-0.3,0.7-0.4,1-0.4c0.2,0,0.3,0.1,0.3,0.2c0,0.1,0,0.3,0,0.6
						c0,0.3,0,0.5,0,0.6c0,0.1,0,0.3,0,0.5C403.5,272.3,403.5,272.5,403.5,272.6z"/>
					<path class="st12" d="M409.6,271.9c0,0.9,0,1.5-0.1,1.7c-0.1,0.2-0.5,1.1-1.2,2.6c-0.1,0.2-0.4,0.8-0.9,1.6
						c-0.5,0.9-0.8,1.4-0.9,1.5c-0.1,0.1-0.7,0.1-1.7,0.1c-0.2,0-0.3,0-0.3-0.1c0-0.2-0.1-0.4-0.2-0.7c-0.1-0.2-0.1-0.3-0.2-0.5
						c-0.1-0.2-0.1-0.4-0.1-0.5c0-0.1,0-0.1,0.1-0.1c1,0,1.5-0.3,1.5-0.9c0-0.1-0.2-0.5-0.7-1.4c-0.5-0.9-0.8-1.5-0.9-1.7
						c0-0.1,0-0.6,0-1.5c0-0.2,0-0.4,0-0.8s0-0.6,0-0.8c0-0.1,0.1-0.2,0.2-0.2c0.2,0,0.5,0,0.8,0c0.4,0,0.7,0,0.8,0
						c0.1,0,0.1,0.1,0.1,0.2c0,0.1,0,0.3,0,0.6c0,0.3,0,0.5,0,0.6c0,0.6,0,1,0,1.2c0,0.2,0.1,0.5,0.3,0.9c0.2,0.5,0.4,0.7,0.5,0.7
						c0.1,0,0.2-0.2,0.4-0.7c0.2-0.4,0.3-0.7,0.3-0.9c0-0.4,0.1-0.9,0.1-1.4c0-0.1,0-0.3,0-0.6s0-0.5,0-0.6c0-0.1,0-0.1,0.1-0.1
						c0.2,0,0.5,0,0.8,0c0.4,0,0.7,0,0.8,0c0.1,0,0.2,0.1,0.2,0.2C409.6,270.6,409.6,271.1,409.6,271.9z"/>
				</g>
			</g>
		</g>
	</g>
</g>
<g id="Plate">
</g>
<g id="Layer_2">
</g>
</svg>
