<?xml version="1.0" encoding="utf-8"?>
<!-- Generator: Adobe Illustrator 19.2.1, SVG Export Plug-In . SVG Version: 6.00 Build 0)  -->
<svg version="1.1" id="Layer_1" xmlns="http://www.w3.org/2000/svg" xmlns:xlink="http://www.w3.org/1999/xlink" x="0px" y="0px"
	 viewBox="0 0 600 630" style="enable-background:new 0 0 600 630;" xml:space="preserve">
<style type="text/css">
	.st0{fill:url(#SVGID_1_);}
	.st1{fill:#C0CD2E;}
	.st2{fill:#B1B1B1;}
	.st3{fill:#8CB63C;}
	.st4{fill:#4C4F51;}
	.st5{fill:#EEE415;}
	.st6{opacity:0.3;}
	.st7{fill:url(#SVGID_2_);}
	.st8{opacity:0.2;}
	.st9{fill:#1D1D1B;}
	.st10{fill:url(#SVGID_3_);}
	.st11{opacity:0.21;fill:#1D1D1B;}
	.st12{fill:#F5F5F5;}
	.st13{fill:#F5F5F5;stroke:#E1E1E1;stroke-width:3;stroke-linecap:round;stroke-linejoin:round;stroke-miterlimit:10;}
	.st14{fill:url(#SVGID_4_);}
	.st15{fill:url(#SVGID_5_);}
	.st16{fill:url(#SVGID_6_);}
	.st17{fill:url(#SVGID_7_);}
	.st18{fill:url(#SVGID_8_);}
	.st19{fill:url(#SVGID_9_);}
	.st20{fill:none;stroke:#1D1D1B;stroke-width:0.25;stroke-miterlimit:10;}
	.st21{fill:url(#SVGID_10_);}
	.st22{fill:url(#SVGID_11_);}
	.st23{fill:url(#SVGID_12_);}
	.st24{fill:url(#SVGID_13_);}
	.st25{fill:url(#SVGID_14_);}
</style>
<g>
	<radialGradient id="SVGID_1_" cx="257.9645" cy="218.3333" r="230" gradientUnits="userSpaceOnUse">
		<stop  offset="0" style="stop-color:#FFFFFF"/>
		<stop  offset="0" style="stop-color:#F5FBFF"/>
		<stop  offset="0" style="stop-color:#EAF6FF"/>
		<stop  offset="0" style="stop-color:#E3F4FF"/>
		<stop  offset="0" style="stop-color:#E1F3FF"/>
		<stop  offset="0.3547" style="stop-color:#81FFFF"/>
		<stop  offset="0.5396" style="stop-color:#78E6F8"/>
		<stop  offset="1" style="stop-color:#64ACE9"/>
	</radialGradient>
	<circle class="st0" cx="330" cy="309" r="230"/>
	<g>
		<g>
			<polygon class="st1" points="233.6,403.8 247.7,392.1 275.1,392.1 288.7,403.8 274.8,415.6 247,415.6 			"/>
			<polygon class="st2" points="359.2,527.5 373.5,515.8 402.9,515.8 418.4,527.5 404.3,539.3 374.5,539.3 			"/>
			<polygon class="st2" points="272.3,527.5 287.2,515.8 316.6,515.8 331.5,527.5 316.8,539.3 287,539.3 			"/>
			<polygon class="st3" points="315.6,515.8 330.1,504.1 359.3,504.1 374.4,515.8 360.1,527.5 330.5,527.5 			"/>
			<polygon class="st4" points="270.7,504.1 285.4,492.3 314.4,492.3 329.1,504.1 314.6,515.8 285.2,515.8 			"/>
			<polygon class="st5" points="360.3,504.9 374.4,493.2 403.5,493.2 418.8,504.9 404.9,516.7 375.5,516.7 			"/>
			<polygon class="st1" points="227.3,516.7 242.4,505 271.6,505 286.2,516.7 271.3,528.4 241.7,528.4 			"/>
			<polygon class="st1" points="404,517.6 417.9,505.9 447.1,505.9 462.9,517.6 449.1,529.3 419.5,529.3 			"/>
			<polygon class="st3" points="228.2,493.2 243.1,481.5 272,481.5 286.3,493.2 271.6,504.9 242.4,504.9 			"/>
			<polygon class="st3" points="404.5,495 418.3,483.3 447.2,483.3 462.7,495 449.2,506.7 419.9,506.7 			"/>
			<polygon class="st5" points="184.8,505.8 200.1,494.1 229.2,494.1 243.3,505.8 228.3,517.6 198.8,517.6 			"/>
			<polygon class="st5" points="448.2,506.8 461.7,495 490.8,495 506.7,506.8 493.4,518.5 463.9,518.5 			"/>
			<polygon class="st2" points="272.9,482.4 287.4,470.6 316.1,470.6 330.6,482.4 316.3,494.1 287.3,494.1 			"/>
			<polygon class="st2" points="361.5,483.3 375.4,471.6 404.1,471.6 419.2,483.3 405.5,495 376.4,495 			"/>
			<polygon class="st1" points="184.4,482.4 199.5,470.7 228.1,470.7 242.1,482.4 227.2,494.1 198.2,494.1 			"/>
			<polygon class="st1" points="446.3,484.2 459.6,472.5 488.3,472.5 504.1,484.2 490.9,495.9 461.8,495.9 			"/>
			<polygon class="st5" points="229.1,471.5 243.8,459.8 272.3,459.8 286.4,471.5 271.9,483.3 243.1,483.3 			"/>
			<polygon class="st5" points="405,471.6 418.5,459.8 447,459.8 462.4,471.6 449.1,483.3 420.2,483.3 			"/>
			<polygon class="st2" points="277.8,393.9 291.5,382.2 318.7,382.2 332.6,393.9 319.1,405.6 291.5,405.6 			"/>
			<polygon class="st3" points="230,449 244.5,437.2 272.6,437.2 286.6,449 272.3,460.7 243.7,460.7 			"/>
			<polygon class="st3" points="403.7,449.9 417,438.2 445.2,438.2 460.3,449.9 447.2,461.6 418.7,461.6 			"/>
			<polygon class="st3" points="141.1,471.6 156.4,459.8 184.9,459.8 198.5,471.6 183.4,483.3 154.5,483.3 			"/>
			<polygon class="st3" points="487.4,472.4 500.3,460.7 528.9,460.7 544.8,472.4 532,484.2 503.1,484.2 			"/>
			<polygon class="st2" points="446.3,461.6 459.4,449.9 487.7,449.9 503.3,461.6 490.3,473.4 461.6,473.4 			"/>
			<polygon class="st2" points="185.8,459.8 200.7,448.1 229,448.1 242.8,459.8 228.1,471.5 199.4,471.5 			"/>
			<polygon class="st1" points="360.6,460.7 374.4,449 402.7,449 417.7,460.7 404.1,472.4 375.4,472.4 			"/>
			<polygon class="st1" points="273.2,459.8 287.5,448.1 315.8,448.1 330.2,459.8 316.1,471.6 287.4,471.6 			"/>
			<polygon class="st3" points="317.1,471.6 331.2,459.8 359.7,459.8 374.4,471.6 360.5,483.3 331.6,483.3 			"/>
			<polygon class="st5" points="143.1,449 158.2,437.2 186.4,437.2 199.7,449 184.8,460.7 156.3,460.7 			"/>
			<polygon class="st5" points="486.8,449.9 499.6,438.1 527.7,438.1 543.5,449.9 530.9,461.6 502.3,461.6 			"/>
			<polygon class="st5" points="273.5,438.1 287.7,426.4 315.6,426.4 329.8,438.1 315.9,449.9 287.5,449.9 			"/>
			<polygon class="st2" points="316.8,449 330.7,437.3 358.8,437.3 373.4,449 359.7,460.7 331.2,460.7 			"/>
			<polygon class="st5" points="359.8,438.1 373.4,426.4 401.3,426.4 416.1,438.1 402.7,449.9 374.4,449.9 			"/>
			<polygon class="st1" points="444.2,438.1 457.2,426.4 485.1,426.4 500.5,438.1 487.7,449.9 459.4,449.9 			"/>
			<polygon class="st1" points="187.2,438.1 202,426.4 229.9,426.4 243.5,438.1 229,449.9 200.6,449.9 			"/>
			<polygon class="st2" points="402.3,427.3 415.4,415.6 443.2,415.6 458.2,427.3 445.2,439 417.1,439 			"/>
			<polygon class="st2" points="230.8,427.3 245.1,415.6 272.9,415.6 286.7,427.3 272.6,439 244.4,439 			"/>
			<polygon class="st1" points="318.4,428.2 332.2,416.5 359.9,416.5 374.4,428.2 360.8,439.9 332.6,439.9 			"/>
			<polygon class="st1" points="315.4,493.2 329.7,481.5 358.5,481.5 373.5,493.2 359.3,505 330.1,505 			"/>
			<polygon class="st3" points="359,415.6 372.3,403.9 399.9,403.9 414.5,415.6 401.4,427.3 373.4,427.3 			"/>
			<polygon class="st3" points="273.8,417.4 287.8,405.6 315.4,405.6 329.4,417.4 315.6,429.1 287.6,429.1 			"/>
			<polygon class="st5" points="316.3,405.7 329.9,393.9 357.3,393.9 371.5,405.7 358.1,417.4 330.3,417.4 			"/>
			<path class="st3" d="M190.9,414.6l14.2-11.5c0.1-0.1,0.3-0.1,0.5-0.1h26.9c0.2,0,0.4,0,0.5,0.1l13.1,11.5c0.1,0.1,0.1,0.2,0,0.3
				l-14,11.5c-0.1,0.1-0.3,0.1-0.5,0.1h-27.3c-0.2,0-0.4,0-0.5-0.1l-12.9-11.5C190.8,414.7,190.8,414.6,190.9,414.6z"/>
			<polygon class="st5" points="315.8,539.3 330.5,527.5 360.1,527.5 375.5,539.3 361,551 331,551 			"/>
		</g>
	</g>
	<g>
		<g>
			<g>
				<g id="Plate_25_">
					<g class="st6">
						<path d="M522,386.3c-2.8,3.2-6.7,4.9-10.9,4.8l-75.7-1.9l-121.3-3.1v-38v-38l119.4-3l74.5-1.9c4.1-0.1,8.1,1.6,11.1,4.8
							l29.9,31.9c3.2,3.4,3.4,9,0.5,12.4L522,386.3z"/>
						<path d="M508.4,311c2.9-0.1,5.8,1.2,7.9,3.4l29.9,31.9c0.7,0.7,0.8,1.4,0.8,1.9c0,0.5-0.1,1.2-0.7,1.9L518.7,382
							c-2,2.2-4.8,3.4-7.7,3.4l-75.6-1.7l-116.4-2.6l0-33.1l0-33.1l114.9-2.5L508.4,311 M508.2,305.3l-74.5,1.9l-119.4,3v38v38
							l121.3,3.1l75.7,1.9c4.1,0.1,8.1-1.6,10.9-4.8l27.7-31.9c2.9-3.4,2.7-9-0.5-12.4l-29.9-31.9
							C516.2,306.9,512.3,305.2,508.2,305.3L508.2,305.3z"/>
						<path d="M508.3,309.8c3.4-0.1,6.7,1.4,9.2,4l29.9,31.9c0.9,1,1.5,2.3,1.5,3.6c0.1,1.4-0.4,2.7-1.2,3.6L520,384.9
							c-2.3,2.6-5.6,4-9,3.9l-194-4.6l0-70.1L508.3,309.8 M508.2,307.6l-193.1,4.5l0,74l196,4.9c3.9,0.1,7.6-1.5,10.3-4.5l27.7-31.9
							c1.2-1.4,1.8-3.3,1.8-5.3c-0.1-2-0.9-3.9-2.2-5.4l-29.9-31.9C515.9,309.1,512.1,307.5,508.2,307.6L508.2,307.6z"/>
						<path d="M508.3,308.7c3.4-0.1,6.7,1.4,9.2,3.9l29.9,31.9c0.9,1,1.5,2.3,1.5,3.6c0.1,1.4-0.4,2.7-1.2,3.6L520,383.7
							c-2.3,2.6-5.6,4-9,3.9l-194-4.5l0-70.1L508.3,308.7 M508.2,306.4l-193.1,4.7l0,74l195.9,4.8c3.9,0.1,7.6-1.5,10.3-4.5
							l27.7-31.9c1.2-1.4,1.8-3.3,1.8-5.3c-0.1-2-0.9-3.9-2.2-5.3L518.6,311C515.8,308,512,306.4,508.2,306.4L508.2,306.4z"/>
						<path d="M508.2,306.4c3.8-0.1,7.6,1.5,10.4,4.5l29.9,31.9c1.3,1.4,2.1,3.3,2.2,5.3c0.1,2-0.5,3.9-1.8,5.3l-27.7,31.9
							c-2.6,3-6.4,4.6-10.3,4.5l-75.6-1.9l-120.3-3l0-37l0-37l118.5-2.9L508.2,306.4 M508.2,305.3l-74.5,1.9l-119.4,3v38v38
							l121.3,3.1l75.7,1.9c4.1,0.1,8.1-1.6,10.9-4.8l27.7-31.9c2.9-3.4,2.7-9-0.5-12.4l-29.9-31.9
							C516.2,306.9,512.3,305.2,508.2,305.3L508.2,305.3z"/>
					</g>
					<g>
						<linearGradient id="SVGID_2_" gradientUnits="userSpaceOnUse" x1="314.1991" y1="347.0539" x2="551.6356" y2="347.0539">
							<stop  offset="0" style="stop-color:#FFFFFF"/>
							<stop  offset="0" style="stop-color:#DEDADB"/>
							<stop  offset="0" style="stop-color:#B9B1B2"/>
							<stop  offset="0" style="stop-color:#988B8E"/>
							<stop  offset="0" style="stop-color:#7B6B6E"/>
							<stop  offset="0" style="stop-color:#634F53"/>
							<stop  offset="0" style="stop-color:#4F393E"/>
							<stop  offset="0" style="stop-color:#40282D"/>
							<stop  offset="0" style="stop-color:#361D21"/>
							<stop  offset="0" style="stop-color:#30161B"/>
							<stop  offset="0" style="stop-color:#2E1419"/>
							<stop  offset="5.911330e-002" style="stop-color:#4C4F51"/>
							<stop  offset="0.5074" style="stop-color:#4C4F51"/>
						</linearGradient>
						<path class="st7" d="M521.9,385.1c-2.8,3.2-6.7,4.9-10.9,4.8l-75.6-1.9l-121.2-3v-38v-38l119.4-3.1l74.5-1.9
							c4.1-0.1,8.1,1.6,11.1,4.8l29.9,31.9c3.2,3.4,3.4,9,0.5,12.4L521.9,385.1z"/>
						<g class="st8">
							<path class="st9" d="M508.3,309.8c2.9-0.1,5.8,1.2,7.9,3.4l29.9,31.9c0.7,0.7,0.8,1.4,0.8,1.9s-0.1,1.2-0.7,1.9l-27.7,31.9
								c-2,2.2-4.8,3.5-7.7,3.4l-75.6-1.6l-116.4-2.5l0-33.1l0-33.1l114.9-2.6L508.3,309.8 M508.1,304.2l-74.5,1.9l-119.4,3.1v38v38
								l121.2,3l75.6,1.9c4.1,0.1,8.1-1.6,10.9-4.8l27.7-31.9c2.9-3.4,2.7-9-0.5-12.4L519.2,309
								C516.2,305.8,512.2,304.1,508.1,304.2L508.1,304.2z"/>
						</g>
						<g>
							<g class="st6">
								<path d="M508.3,308.7c3.4-0.1,6.7,1.4,9.2,3.9l29.9,31.9c0.9,1,1.5,2.3,1.5,3.6c0.1,1.4-0.4,2.7-1.2,3.6L520,383.7
									c-2.3,2.6-5.6,4-9,3.9l-194-4.5l0-70.1L508.3,308.7 M508.2,306.4l-193.1,4.7l0,74l195.9,4.8c3.9,0.1,7.6-1.5,10.3-4.5
									l27.7-31.9c1.2-1.4,1.8-3.3,1.8-5.3c-0.1-2-0.9-3.9-2.2-5.3L518.6,311C515.8,308,512,306.4,508.2,306.4L508.2,306.4z"/>
							</g>
							<linearGradient id="SVGID_3_" gradientUnits="userSpaceOnUse" x1="315.128" y1="347.0539" x2="550.6993" y2="347.0539">
								<stop  offset="0" style="stop-color:#FFFFFF"/>
								<stop  offset="0" style="stop-color:#F4F4F4"/>
								<stop  offset="0" style="stop-color:#DEDEDE"/>
								<stop  offset="0" style="stop-color:#CDCDCD"/>
								<stop  offset="0" style="stop-color:#C2C2C2"/>
								<stop  offset="0" style="stop-color:#BBBBBB"/>
								<stop  offset="0" style="stop-color:#B9B9B9"/>
								<stop  offset="5.911330e-002" style="stop-color:#E1E1E1"/>
								<stop  offset="1" style="stop-color:#E1E1E1"/>
							</linearGradient>
							<path class="st10" d="M508.2,307.6c3.4-0.1,6.7,1.4,9.2,3.9l29.9,31.9c0.9,1,1.5,2.3,1.5,3.6c0.1,1.4-0.4,2.7-1.2,3.6
								L520,382.6c-2.3,2.6-5.6,4-9,3.9L317,382.2l0-70.1L508.2,307.6 M508.2,305.3l-193,4.8l0,74l195.9,4.7
								c3.9,0.1,7.6-1.5,10.3-4.5l27.7-31.9c1.2-1.4,1.8-3.3,1.8-5.4c-0.1-2-0.9-3.9-2.2-5.3l-29.9-31.9
								C515.8,306.9,512,305.2,508.2,305.3L508.2,305.3z"/>
						</g>
						<path class="st4" d="M508.2,305.3c3.8-0.1,7.6,1.5,10.4,4.5l29.9,31.9c1.3,1.4,2.1,3.3,2.2,5.3c0.1,2-0.5,3.9-1.8,5.3
							l-27.7,31.9c-2.6,3-6.4,4.6-10.3,4.5l-75.6-1.8l-120.3-2.9l0-37l0-37l118.5-3L508.2,305.3 M508.1,304.2l-74.5,1.9l-119.4,3.1
							v38v38l121.2,3l75.6,1.9c4.1,0.1,8.1-1.6,10.9-4.8l27.7-31.9c2.9-3.4,2.7-9-0.5-12.4L519.2,309
							C516.2,305.8,512.2,304.1,508.1,304.2L508.1,304.2z"/>
					</g>
				</g>
				<g>
					<polygon class="st11" points="337.7,385.7 322,385.3 321.9,309 337.3,308.6 					"/>
				</g>
				<g>
					<path class="st12" d="M390,354.6c0,0.3-0.1,0.4-0.4,0.4c-0.2,0-0.7-0.1-1.7-0.3c-0.9-0.2-1.5-0.4-1.7-0.5
						c-2.1,0.8-4.1,1.3-6.1,1.2c-3.1,0-5.7-1.1-7.7-3.2c-2-2.1-3-4.7-3.1-7.9c0-3.2,0.9-5.9,2.8-8.1c2-2.2,4.5-3.4,7.7-3.4
						c1.5,0,3,0.3,4.3,0.9c1.5,0.6,2.6,1.6,3.5,2.8c0.2,0.2,0.3,0.4,0.3,0.5c0,0.3-0.4,1.1-1.3,2.2c-0.9,1.2-1.5,1.7-1.7,1.7
						c-0.1,0-0.3-0.2-0.7-0.6c-0.5-0.5-1-0.9-1.5-1.2c-0.8-0.4-1.6-0.6-2.6-0.6c-1.5,0-2.7,0.6-3.6,1.8c-0.8,1.1-1.2,2.4-1.2,4
						c0,1.7,0.5,3,1.3,4c0.9,1,2.2,1.5,3.8,1.5c1,0,2.2-0.3,3.4-0.8c0-0.3-0.1-1.2-0.3-2.6c-0.1-1.1-0.2-1.9-0.2-2.6
						c0-0.2,0.1-0.3,0.2-0.4c0,0,0.1,0,0.2,0c0.3,0,0.7,0,1.3,0.1c0.6,0.1,1,0.1,1.3,0.1c0.3,0,0.8,0,1.5-0.1c0.6,0,1.1-0.1,1.5-0.1
						c0.3,0,0.4,0.2,0.4,0.5c0,0.5,0,1.3-0.1,2.3c0,1-0.1,1.8-0.1,2.3c0,1.3,0.1,3.3,0.4,6L390,354.6z"/>
					<path class="st12" d="M407.4,340.8c0,0.8,0,1.9,0,3.5c0,1.6-0.1,2.7,0,3.5c0,0.8,0.1,1.9,0.1,3.4c0.1,1.5,0.1,2.6,0.1,3.4
						c0,0.3-0.1,0.5-0.4,0.5c-0.4,0.1-1.2,0.2-2.4,0.1c-1.1,0-1.9,0-2.3-0.1c-0.2,0-0.3-0.2-0.4-0.4c0-0.3-0.1-0.6-0.1-0.9
						c-0.1-0.5-0.1-0.7-0.2-0.7c0.1,0-0.4,0.4-1.5,1.1c-1.2,0.7-2.2,1.1-3.2,1.1c-2.7,0-4.3-1.3-4.8-3.8c-0.2-1.2-0.4-2.8-0.4-5
						c0-2.4,0.1-4.2,0.5-5.6c0.1-0.4,0.3-0.6,0.6-0.6c0.5,0,1.2,0,2.1,0c0.9,0,1.7,0,2.1,0c0.3,0,0.5,0.1,0.5,0.4c0,0.1,0,0.2,0,0.3
						c-0.2,1.4-0.3,2.9-0.3,4.3c0,1.8,0.1,3.1,0.2,3.7c0.2,1.1,0.9,1.7,2,1.7c0.4,0,0.9-0.2,1.4-0.6c0.5-0.4,0.8-0.8,0.8-1.3
						c0-0.4,0-3-0.1-7.9c0-0.3,0-0.5,0.1-0.6c0.1-0.1,0.2-0.2,0.5-0.2c0.5,0,1.2,0,2.2,0c1,0,1.7,0,2.2,0c0.3,0,0.5,0.1,0.5,0.2
						C407.4,340.5,407.4,340.7,407.4,340.8z"/>
					<path class="st12" d="M415.6,347.9c0,0.8,0.1,1.9,0.1,3.4c0.1,1.5,0.1,2.7,0.1,3.4c0,0.2-0.1,0.4-0.4,0.4
						c-0.3,0.1-1.1,0.1-2.3,0.1c-1.2,0-2,0-2.3-0.1c-0.2,0-0.4-0.1-0.4-0.2c0,0,0-0.2,0-0.5c0-0.7,0-1.8,0-3.3c0-1.5,0-2.6,0-3.3
						c-0.1-3-0.2-5.4-0.5-7.1c0-0.2,0-0.3,0-0.3c0-0.2,0.1-0.3,0.4-0.3c0.3,0,0.7,0,1.3,0.1c0.6,0.1,1,0.1,1.3,0.1
						c0.3,0,0.7,0,1.3-0.1c0.6-0.1,1-0.1,1.3-0.1c0.2,0,0.4,0.1,0.4,0.3c0,0,0,0.1,0,0.3C415.6,342.8,415.6,345.2,415.6,347.9z
						 M415.8,336.2c0,1.8-0.9,2.8-2.9,2.8c-0.8,0-1.6-0.2-2.1-0.7c-0.6-0.5-0.9-1.2-0.9-2c0-0.8,0.3-1.5,0.9-2
						c0.6-0.5,1.3-0.7,2.1-0.7c0.8,0,1.5,0.2,2.1,0.7C415.5,334.7,415.8,335.4,415.8,336.2z"/>
					<path class="st12" d="M434.3,332.6c0-0.2,0,0.1-0.1,1.1c-0.1,1.2-0.1,2.7-0.2,4.5c0,2.1,0,4.5,0,7.1c0.1,4.4,0.3,7.5,0.6,9.4
						c0,0.2,0,0.3,0,0.4c0,0.1-0.1,0.2-0.2,0.2c-0.4,0.1-1.7,0.1-4,0.1c-0.5,0-0.9-0.1-0.9-0.3c0-0.4-0.1-0.8-0.1-1.2
						c0-0.1-0.1-0.2-0.1-0.3c-0.1,0-0.1,0.1-0.2,0.2c-1.1,1.1-2.4,1.7-4.1,1.7c-2.1,0-3.9-0.8-5.2-2.4c-1.3-1.5-1.9-3.4-1.9-5.6
						c0-2.3,0.5-4.2,1.7-5.7c1.2-1.6,2.9-2.4,5.1-2.4c1.5,0,2.7,0.5,3.6,1.5c0.1,0.2,0.2,0.3,0.3,0.3c0.1,0,0.1-0.1,0.1-0.4
						c0-0.8-0.1-2-0.1-3.7c-0.1-1.6-0.1-2.8-0.1-3.7c0-0.3,0.1-0.5,0.2-0.5c0.6,0,1.5-0.1,2.7-0.2c2-0.3,2.9-0.4,2.7-0.4
						C434.2,332.2,434.3,332.3,434.3,332.6z M428.9,347.3c0-0.8-0.3-1.6-0.9-2.2c-0.6-0.6-1.2-0.9-2-0.9c-0.8,0-1.5,0.3-2,0.9
						c-0.5,0.6-0.7,1.4-0.7,2.3c0,0.9,0.3,1.6,0.8,2.2c0.5,0.6,1.2,1,2,1c0.8,0,1.5-0.3,2-1C428.7,348.9,428.9,348.1,428.9,347.3z"
						/>
					<path class="st12" d="M450.7,346.6c0,1.1-0.3,1.7-0.9,1.9c-0.1,0-1.2,0.1-3.1,0.4c-1.2,0.1-3,0.3-5.3,0.5
						c0.2,0.7,0.6,1.2,1.3,1.6c0.6,0.3,1.3,0.5,2,0.5c0.9,0,1.8-0.3,2.7-0.8c0.4-0.3,0.8-0.5,1.1-0.8c0.2,0.1,0.6,0.7,1.1,1.6
						c0.5,1,0.8,1.6,0.8,1.9c0,0.1-0.1,0.2-0.2,0.4c-1.2,1.4-3.1,2.1-5.7,2.1c-2.4,0-4.4-0.8-5.9-2.3c-1.6-1.5-2.4-3.5-2.4-6
						c-0.1-2.5,0.6-4.5,1.9-6c1.4-1.6,3.2-2.5,5.5-2.5c1.9,0,3.6,0.7,5,2.2C450,342.7,450.7,344.5,450.7,346.6z M445.4,345.6
						c0-0.7-0.3-1.3-0.7-1.8c-0.5-0.5-1-0.8-1.6-0.8c-0.6,0-1.2,0.3-1.6,0.9c-0.4,0.5-0.5,1.1-0.5,1.9c0,0.3,0.2,0.4,0.4,0.4
						c0.7,0,1.9-0.1,3.5-0.4C445.2,345.8,445.4,345.7,445.4,345.6z"/>
				</g>
			</g>
		</g>
		<polygon class="st13" points="518.3,363.8 536.6,345.6 518.3,327.4 536.6,345.6 		"/>
		<g id="signPlate">
			<g>
				<g id="Plate_24_">
					<g class="st6">
						<path d="M446.5,202.6c-1.9,2.1-4.4,3.5-7,3.8l-48.1,4.9l-77.2,7.8v-38v-38l77.2,6l48.1,3.7c2.6,0.2,5.2,1.5,7,3.6l18.5,19.4
							c1.9,1.9,1.9,5,0,6.9L446.5,202.6z"/>
						<path d="M439.5,156.3c1.9,0.1,3.7,1,5,2.5l18.5,19.4c0.4,0.4,0.5,0.8,0.5,1.1c0,0.3-0.1,0.7-0.5,1.1l-18.5,19.8
							c-1.3,1.5-3.1,2.5-5,2.6l-48.1,4.3l-74.2,6.6V181v-32.7l74.2,4.9L439.5,156.3 M439.5,152.7l-48.1-3.7l-77.2-6v38v38l77.2-7.8
							l48.1-4.9c2.6-0.3,5.2-1.6,7-3.8l18.5-19.9c1.9-2,1.9-5,0-6.9l-18.5-19.4C444.7,154.3,442.1,152.9,439.5,152.7L439.5,152.7z"
							/>
						<path d="M439.5,155.6c2.2,0.1,4.3,1.2,5.8,2.9l18.5,19.4c0.6,0.6,0.9,1.3,0.9,2c0,0.8-0.3,1.5-0.9,2.1l-18.5,19.9
							c-1.5,1.8-3.6,2.9-5.8,3.1L316,216.8v-69.6L439.5,155.6 M439.5,154.2l-124.7-9V219l124.7-12.6c2.5-0.3,4.9-1.6,6.6-3.6
							l18.5-19.9c0.8-0.8,1.3-1.9,1.3-3c0-1.1-0.4-2.2-1.3-3l-18.5-19.4C444.4,155.6,442,154.3,439.5,154.2L439.5,154.2z"/>
						<path d="M439.5,154.9c2.2,0.2,4.3,1.2,5.8,2.9l18.5,19.4c0.6,0.6,0.9,1.3,0.9,2c0,0.8-0.3,1.5-0.9,2.1l-18.5,19.8
							c-1.5,1.7-3.6,2.9-5.8,3.1L316,215.8v-69.6L439.5,154.9 M439.5,153.5l-124.7-9.3V218l124.7-12.3c2.5-0.2,4.9-1.5,6.6-3.5
							l18.5-19.9c0.8-0.8,1.3-1.9,1.3-3c0-1.1-0.4-2.2-1.3-3l-18.5-19.4C444.4,154.9,442,153.6,439.5,153.5L439.5,153.5z"/>
						<path d="M439.5,153.5c2.5,0.2,4.9,1.4,6.6,3.4l18.5,19.4c0.8,0.8,1.3,1.9,1.3,3c0,1.1-0.4,2.2-1.3,3l-18.5,19.9
							c-1.7,2-4.2,3.3-6.6,3.5l-48.1,4.8l-76.6,7.6V181v-36.9l76.6,5.7L439.5,153.5 M439.5,152.7l-48.1-3.7l-77.2-6v38v38l77.2-7.8
							l48.1-4.9c2.6-0.3,5.2-1.6,7-3.8l18.5-19.9c1.9-2,1.9-5,0-6.9l-18.5-19.4C444.7,154.3,442.1,152.9,439.5,152.7L439.5,152.7z"
							/>
					</g>
					<g>
						<linearGradient id="SVGID_4_" gradientUnits="userSpaceOnUse" x1="314.1991" y1="180.0487" x2="466.4583" y2="180.0487">
							<stop  offset="0" style="stop-color:#FFFFFF"/>
							<stop  offset="0" style="stop-color:#DEDADB"/>
							<stop  offset="0" style="stop-color:#B9B1B2"/>
							<stop  offset="0" style="stop-color:#988B8E"/>
							<stop  offset="0" style="stop-color:#7B6B6E"/>
							<stop  offset="0" style="stop-color:#634F53"/>
							<stop  offset="0" style="stop-color:#4F393E"/>
							<stop  offset="0" style="stop-color:#40282D"/>
							<stop  offset="0" style="stop-color:#361D21"/>
							<stop  offset="0" style="stop-color:#30161B"/>
							<stop  offset="0" style="stop-color:#2E1419"/>
							<stop  offset="5.911330e-002" style="stop-color:#4C4F51"/>
							<stop  offset="0.5074" style="stop-color:#4C4F51"/>
						</linearGradient>
						<path class="st14" d="M446.5,201.9c-1.9,2.1-4.4,3.5-7,3.8l-48.1,4.8l-77.2,7.6v-38v-38l77.2,6.1l48.1,3.8
							c2.6,0.2,5.2,1.5,7,3.6l18.5,19.5c1.9,1.9,1.9,5,0,6.9L446.5,201.9z"/>
						<g class="st8">
							<path class="st9" d="M439.5,155.6c1.9,0.1,3.7,1,5,2.5l18.5,19.4c0.4,0.4,0.5,0.8,0.5,1.1c0,0.3-0.1,0.7-0.5,1.1l-18.5,19.8
								c-1.3,1.5-3.1,2.4-5,2.6l-48.1,4.2l-74.2,6.5V180v-32.7l74.2,5L439.5,155.6 M439.5,152l-48.1-3.8l-77.2-6.1v38v38l77.2-7.6
								l48.1-4.8c2.6-0.3,5.2-1.6,7-3.8l18.5-19.8c1.9-1.9,1.9-5,0-6.9l-18.5-19.5C444.7,153.6,442.1,152.2,439.5,152L439.5,152z"/>
						</g>
						<g>
							<g class="st6">
								<path d="M439.5,154.9c2.2,0.2,4.3,1.2,5.8,2.9l18.5,19.4c0.6,0.6,0.9,1.3,0.9,2c0,0.8-0.3,1.5-0.9,2.1l-18.5,19.8
									c-1.5,1.7-3.6,2.9-5.8,3.1L316,215.8v-69.6L439.5,154.9 M439.5,153.5l-124.7-9.3V218l124.7-12.3c2.5-0.2,4.9-1.5,6.6-3.5
									l18.5-19.9c0.8-0.8,1.3-1.9,1.3-3c0-1.1-0.4-2.2-1.3-3l-18.5-19.4C444.4,154.9,442,153.6,439.5,153.5L439.5,153.5z"/>
							</g>
							<linearGradient id="SVGID_5_" gradientUnits="userSpaceOnUse" x1="314.7992" y1="180.0428" x2="465.8586" y2="180.0428">
								<stop  offset="0" style="stop-color:#FFFFFF"/>
								<stop  offset="0" style="stop-color:#F4F4F4"/>
								<stop  offset="0" style="stop-color:#DEDEDE"/>
								<stop  offset="0" style="stop-color:#CDCDCD"/>
								<stop  offset="0" style="stop-color:#C2C2C2"/>
								<stop  offset="0" style="stop-color:#BBBBBB"/>
								<stop  offset="0" style="stop-color:#B9B9B9"/>
								<stop  offset="5.911330e-002" style="stop-color:#E1E1E1"/>
								<stop  offset="1" style="stop-color:#E1E1E1"/>
							</linearGradient>
							<path class="st15" d="M439.5,154.2c2.2,0.2,4.3,1.2,5.8,3l18.5,19.4c0.6,0.6,0.9,1.3,0.9,2c0,0.8-0.3,1.5-0.9,2.1l-18.5,19.8
								c-1.5,1.7-3.6,2.9-5.8,3.1L316,214.9v-69.6L439.5,154.2 M439.5,152.7l-124.7-9.6V217l124.7-12c2.5-0.2,4.9-1.5,6.6-3.5
								l18.5-19.8c0.8-0.8,1.3-1.9,1.3-3c0-1.1-0.4-2.2-1.3-3l-18.5-19.5C444.4,154.2,442,152.9,439.5,152.7L439.5,152.7z"/>
						</g>
						<path class="st4" d="M439.5,152.7c2.5,0.2,4.9,1.4,6.6,3.4l18.5,19.5c0.8,0.8,1.3,1.9,1.3,3c0,1.1-0.4,2.2-1.3,3l-18.5,19.8
							c-1.7,2-4.2,3.3-6.6,3.5l-48.1,4.6l-76.6,7.4V180v-36.9l76.6,5.9L439.5,152.7 M439.5,152l-48.1-3.8l-77.2-6.1v38v38l77.2-7.6
							l48.1-4.8c2.6-0.3,5.2-1.6,7-3.8l18.5-19.8c1.9-1.9,1.9-5,0-6.9l-18.5-19.5C444.7,153.6,442.1,152.2,439.5,152L439.5,152z"/>
					</g>
				</g>
				<g>
					<polygon class="st11" points="329.1,216.5 319.2,217.5 319.2,142.5 329.1,143.3 					"/>
				</g>
				<g>
					<path class="st12" d="M358.9,186.6c-0.6,0-1.3,0-2.2,0c-1.2,0-1.9,0-2.2,0l-2.9,0c-0.3,0-0.7,0-1.3,0c-0.2,0-0.3-0.2-0.3-0.4
						c0-1,0-2.5,0-4.4c0-2,0-3.4,0-4.4c0-1.1,0-2.6-0.1-4.7c0-2.1-0.1-3.7-0.1-4.7c0-0.2,0.1-0.3,0.3-0.3c0.2,0,0.5,0,0.9,0.1
						c0.4,0,0.7,0.1,0.9,0.1c0.2,0,0.5,0,1,0c0.4,0,0.7,0,1,0c0.1,0,0.1,0.1,0.1,0.3l0,0.2c-0.1,1.7-0.2,4.2-0.3,7.6l0,3.6
						c0,1.1,0,2,0,2.5c0,0.1,0,0.2,0,0.3c0,0.1,0.1,0.2,0.1,0.2c0,0,0.1,0,0.3,0c0.6,0,1.5-0.1,2.6-0.2c1.2-0.1,2-0.2,2.6-0.2
						c0.2,0,0.3,0.1,0.3,0.3c0,1.5-0.1,2.8-0.2,3.9c0,0.2-0.1,0.4-0.2,0.4C359.2,186.6,359.1,186.6,358.9,186.6z"/>
					<path class="st12" d="M370.5,179.7c0,0.7,0,1.6,0.1,2.9c0.1,1.3,0.1,2.3,0.1,2.9c0,0.3-0.1,0.5-0.3,0.6
						c-0.8,0.1-1.7,0.2-2.8,0.2c-0.1,0-0.2-0.2-0.2-0.7c0-0.5-0.1-0.7-0.2-0.8c-0.1,0-0.1,0.1-0.2,0.2c-0.7,1-1.5,1.5-2.3,1.5
						c-1.3,0-2.3-0.6-3.1-1.9c-0.8-1.3-1.2-2.8-1.2-4.5c0-2,0.4-3.7,1.2-4.9c0.8-1.3,2-1.9,3.5-1.9c1,0,1.8,0.5,2.4,1.4
						c0,0,0,0.1,0.1,0.1c0.1,0,0.1-0.2,0.2-0.6c0.1-0.4,0.2-0.6,0.3-0.6c0.2,0,0.7,0.1,1.4,0.3c0.6,0.2,1.1,0.3,1.4,0.4
						c0.1,0.1,0.1,0.1,0.1,0.2c0,0,0,0.1,0,0.3C370.6,176.3,370.5,177.9,370.5,179.7z M367.4,179.8c0-0.7-0.2-1.3-0.5-1.8
						c-0.3-0.5-0.8-0.7-1.4-0.7c-0.6,0-1,0.2-1.4,0.7c-0.3,0.5-0.5,1.1-0.5,1.9c0,0.7,0.2,1.3,0.5,1.8c0.4,0.5,0.8,0.7,1.3,0.7
						c0.6,0,1-0.3,1.4-0.7C367.2,181.1,367.4,180.5,367.4,179.8z"/>
					<path class="st12" d="M382.1,185.4c0,0.2-0.1,0.4-0.3,0.4c-0.2,0-0.7,0.1-1.4,0.1c-0.8,0-1.3,0-1.5,0c-0.2,0-0.3-0.2-0.3-0.5
						c0-0.4,0-1,0-1.8c0-0.8,0-1.4,0-1.8c0-0.3,0-0.8,0-1.4c0-0.6,0-1.1,0-1.4c0-1.1-0.4-1.7-1.2-1.7c-0.3,0-0.5,0.1-0.9,0.4
						c-0.4,0.3-0.5,0.6-0.5,1v6.8c0,0.3-0.1,0.4-0.3,0.5c-0.2,0-0.7,0.1-1.4,0.1c-0.8,0-1.3,0-1.5,0c-0.2,0-0.3-0.2-0.3-0.4
						c0-0.7,0-1.7,0-3c0-1.3,0-2.3,0-3c0-2.1-0.1-3.8-0.4-5c0-0.1,0-0.1,0-0.2c0-0.1,0-0.2,0.1-0.3c0.4-0.1,1-0.1,1.6-0.3
						c1-0.3,1.6-0.4,1.7-0.4c0.1,0,0.1,0.3,0.2,0.9c0,0.6,0.1,0.9,0.2,0.9c-0.1,0,0.3-0.3,1-0.9c0.8-0.6,1.4-0.9,2-0.9
						c0.8,0,1.5,0.3,2.1,0.8c0.6,0.6,0.9,1.4,0.9,2.4v4c0,0.5,0,1.3,0,2.4C382.1,184.1,382.1,184.9,382.1,185.4z"/>
					<path class="st12" d="M394.1,168.3c0-0.2,0,0.1-0.1,0.8c-0.1,0.9-0.1,2-0.2,3.4c-0.1,1.6-0.1,3.4-0.1,5.4
						c0,3.3,0.1,5.7,0.2,7.1c0,0.2,0,0.2,0,0.3c0,0.1,0,0.1-0.1,0.2c-0.2,0-1.1,0.1-2.6,0.1c-0.4,0-0.6-0.1-0.6-0.2
						c0-0.3,0-0.6,0-0.9c0-0.1,0-0.1-0.1-0.2c0,0-0.1,0.1-0.1,0.1c-0.7,0.9-1.6,1.3-2.6,1.4c-1.4,0-2.5-0.5-3.3-1.7
						c-0.8-1.1-1.2-2.6-1.2-4.4c0-1.8,0.4-3.3,1.2-4.5c0.8-1.2,1.9-1.8,3.3-1.8c1,0,1.7,0.4,2.3,1.2c0.1,0.1,0.2,0.2,0.2,0.2
						c0.1,0,0.1-0.1,0.1-0.3c0-0.6,0-1.6,0-2.8c0-1.2,0-2.2,0-2.8c0-0.2,0.1-0.4,0.2-0.4c0.4,0,1-0.1,1.7-0.1
						c1.3-0.2,1.9-0.3,1.7-0.3C394,168,394.1,168.1,394.1,168.3z M390.4,179.5c0-0.6-0.2-1.2-0.5-1.7c-0.4-0.5-0.8-0.7-1.3-0.7
						c-0.5,0-1,0.2-1.3,0.7c-0.3,0.5-0.5,1.1-0.5,1.8c0,0.7,0.2,1.2,0.5,1.7c0.3,0.5,0.7,0.7,1.3,0.7c0.5,0,1-0.3,1.3-0.8
						C390.2,180.7,390.4,180.1,390.4,179.5z"/>
				</g>
				<polygon class="st13" points="436.7,190.8 447.6,177.7 436.7,164.8 447.6,177.7 				"/>
			</g>
		</g>
		<g>
			<linearGradient id="SVGID_6_" gradientUnits="userSpaceOnUse" x1="287.9138" y1="302.2206" x2="312.8043" y2="302.2206">
				<stop  offset="0" style="stop-color:#FFFFFF"/>
				<stop  offset="0" style="stop-color:#D5D6D7"/>
				<stop  offset="0" style="stop-color:#ACAEAF"/>
				<stop  offset="0" style="stop-color:#86898B"/>
				<stop  offset="0" style="stop-color:#66696C"/>
				<stop  offset="0" style="stop-color:#4A4E52"/>
				<stop  offset="0" style="stop-color:#34393D"/>
				<stop  offset="0" style="stop-color:#23282D"/>
				<stop  offset="0" style="stop-color:#181C21"/>
				<stop  offset="0" style="stop-color:#11161B"/>
				<stop  offset="0" style="stop-color:#0F1419"/>
				<stop  offset="0.3547" style="stop-color:#64696E"/>
				<stop  offset="0.6502" style="stop-color:#373C41"/>
				<stop  offset="0.8079" style="stop-color:#5A5F64"/>
				<stop  offset="0.8895" style="stop-color:#494E53"/>
				<stop  offset="1" style="stop-color:#373C41"/>
			</linearGradient>
			<path class="st16" d="M312.8,498c0,0.5-0.4,1.4-0.8,1.8c-6.6,5.8-16.6,5.8-23.2,0c-0.5-0.4-0.8-1.2-0.8-1.8
				c0-131.2,0-262.5,0-393.7c0-0.5,0.4-1.2,0.9-1.5c7.3-3.4,15.7-3.4,23,0c0.5,0.2,0.9,0.9,0.9,1.5
				C312.8,235.5,312.8,366.8,312.8,498z"/>
		</g>
		
			<radialGradient id="SVGID_7_" cx="265.0133" cy="83.5418" r="11" gradientTransform="matrix(0.8297 0 0 0.7594 77.9927 30.0339)" gradientUnits="userSpaceOnUse">
			<stop  offset="0" style="stop-color:#FFFFFF"/>
			<stop  offset="0" style="stop-color:#F5F5F5"/>
			<stop  offset="0" style="stop-color:#EAEAEA"/>
			<stop  offset="0" style="stop-color:#E3E3E3"/>
			<stop  offset="0" style="stop-color:#E1E1E1"/>
			<stop  offset="1" style="stop-color:#5F5F5F"/>
		</radialGradient>
		<ellipse class="st17" cx="300.4" cy="97" rx="9.1" ry="8.4"/>
		
			<radialGradient id="SVGID_8_" cx="262.8315" cy="93.6222" r="14.329" gradientTransform="matrix(0.8297 0 0 0.7594 77.9927 30.0339)" gradientUnits="userSpaceOnUse">
			<stop  offset="0" style="stop-color:#FFFFFF"/>
			<stop  offset="0" style="stop-color:#F5F5F5"/>
			<stop  offset="0" style="stop-color:#EAEAEA"/>
			<stop  offset="0" style="stop-color:#E3E3E3"/>
			<stop  offset="0" style="stop-color:#E1E1E1"/>
			<stop  offset="1" style="stop-color:#5F5F5F"/>
		</radialGradient>
		<path class="st18" d="M300.4,97.2c-8.7,0-15.8,2.7-15.8,6.1v7.6h31.5v-7.6C316.1,99.9,309.1,97.2,300.4,97.2z"/>
		<g>
			<g>
				<linearGradient id="SVGID_9_" gradientUnits="userSpaceOnUse" x1="286.2664" y1="345.5996" x2="314.4757" y2="345.5996">
					<stop  offset="0" style="stop-color:#FFFFFF"/>
					<stop  offset="0" style="stop-color:#D5D6D7"/>
					<stop  offset="0" style="stop-color:#ACAEAF"/>
					<stop  offset="0" style="stop-color:#86898B"/>
					<stop  offset="0" style="stop-color:#66696C"/>
					<stop  offset="0" style="stop-color:#4A4E52"/>
					<stop  offset="0" style="stop-color:#34393D"/>
					<stop  offset="0" style="stop-color:#23282D"/>
					<stop  offset="0" style="stop-color:#181C21"/>
					<stop  offset="0" style="stop-color:#11161B"/>
					<stop  offset="0" style="stop-color:#0F1419"/>
					<stop  offset="0.3547" style="stop-color:#64696E"/>
					<stop  offset="0.6502" style="stop-color:#373C41"/>
					<stop  offset="0.8079" style="stop-color:#5A5F64"/>
					<stop  offset="0.8895" style="stop-color:#494E53"/>
					<stop  offset="1" style="stop-color:#373C41"/>
				</linearGradient>
				<rect x="286.3" y="306.1" class="st19" width="28.2" height="79"/>
				<rect x="286.3" y="306.1" class="st20" width="28.2" height="79"/>
			</g>
			<g>
				<linearGradient id="SVGID_10_" gradientUnits="userSpaceOnUse" x1="286.2664" y1="262.0648" x2="314.4757" y2="262.0648">
					<stop  offset="0" style="stop-color:#FFFFFF"/>
					<stop  offset="0" style="stop-color:#D5D6D7"/>
					<stop  offset="0" style="stop-color:#ACAEAF"/>
					<stop  offset="0" style="stop-color:#86898B"/>
					<stop  offset="0" style="stop-color:#66696C"/>
					<stop  offset="0" style="stop-color:#4A4E52"/>
					<stop  offset="0" style="stop-color:#34393D"/>
					<stop  offset="0" style="stop-color:#23282D"/>
					<stop  offset="0" style="stop-color:#181C21"/>
					<stop  offset="0" style="stop-color:#11161B"/>
					<stop  offset="0" style="stop-color:#0F1419"/>
					<stop  offset="0.3547" style="stop-color:#64696E"/>
					<stop  offset="0.6502" style="stop-color:#373C41"/>
					<stop  offset="0.8079" style="stop-color:#5A5F64"/>
					<stop  offset="0.8895" style="stop-color:#494E53"/>
					<stop  offset="1" style="stop-color:#373C41"/>
				</linearGradient>
				<rect x="286.3" y="222.6" class="st21" width="28.2" height="79"/>
				<rect x="286.3" y="222.6" class="st20" width="28.2" height="79"/>
			</g>
			<g>
				<linearGradient id="SVGID_11_" gradientUnits="userSpaceOnUse" x1="286.2664" y1="178.5299" x2="314.4757" y2="178.5299">
					<stop  offset="0" style="stop-color:#FFFFFF"/>
					<stop  offset="0" style="stop-color:#D5D6D7"/>
					<stop  offset="0" style="stop-color:#ACAEAF"/>
					<stop  offset="0" style="stop-color:#86898B"/>
					<stop  offset="0" style="stop-color:#66696C"/>
					<stop  offset="0" style="stop-color:#4A4E52"/>
					<stop  offset="0" style="stop-color:#34393D"/>
					<stop  offset="0" style="stop-color:#23282D"/>
					<stop  offset="0" style="stop-color:#181C21"/>
					<stop  offset="0" style="stop-color:#11161B"/>
					<stop  offset="0" style="stop-color:#0F1419"/>
					<stop  offset="0.3547" style="stop-color:#64696E"/>
					<stop  offset="0.6502" style="stop-color:#373C41"/>
					<stop  offset="0.8079" style="stop-color:#5A5F64"/>
					<stop  offset="0.8895" style="stop-color:#494E53"/>
					<stop  offset="1" style="stop-color:#373C41"/>
				</linearGradient>
				<rect x="286.3" y="139" class="st22" width="28.2" height="79"/>
				<rect x="286.3" y="139" class="st20" width="28.2" height="79"/>
			</g>
		</g>
		<linearGradient id="SVGID_12_" gradientUnits="userSpaceOnUse" x1="121.1593" y1="187.1366" x2="121.1593" y2="187.1366">
			<stop  offset="0" style="stop-color:#FFFFFF"/>
			<stop  offset="0" style="stop-color:#DEDADB"/>
			<stop  offset="0" style="stop-color:#B9B1B2"/>
			<stop  offset="0" style="stop-color:#988B8E"/>
			<stop  offset="0" style="stop-color:#7B6B6E"/>
			<stop  offset="0" style="stop-color:#634F53"/>
			<stop  offset="0" style="stop-color:#4F393E"/>
			<stop  offset="0" style="stop-color:#40282D"/>
			<stop  offset="0" style="stop-color:#361D21"/>
			<stop  offset="0" style="stop-color:#30161B"/>
			<stop  offset="0" style="stop-color:#2E1419"/>
			<stop  offset="5.911330e-002" style="stop-color:#4C4F51"/>
			<stop  offset="0.5074" style="stop-color:#4C4F51"/>
		</linearGradient>
		<path class="st23" d="M121.2,187.1"/>
		<g>
			<g>
				<g id="signPlate_20_">
					<g id="Plate_29_">
						<g class="st6">
							<path d="M136.2,294c2.1,2.5,5,4,8,4.1l54.5,1.7l87.3,2.8v-38v-38l-87.3,3.5l-54.5,2.2c-3,0.1-5.9,1.6-8,4.1l-20.9,24.3
								c-2.2,2.5-2.2,6.5,0,9L136.2,294z"/>
							<path d="M282.5,231.7v32.9v32.9l-83.9-2.3l-54.5-1.5c-2.1-0.1-4.2-1.1-5.7-2.8l-20.9-24.1c-0.5-0.5-0.5-1-0.5-1.4
								s0.1-0.9,0.5-1.4l20.9-24.3c1.5-1.8,3.5-2.8,5.7-2.9l54.5-2L282.5,231.7 M285.9,226.6l-87.3,3.5l-54.5,2.2
								c-3,0.1-5.9,1.6-8,4.1l-20.9,24.3c-2.2,2.5-2.2,6.5,0,9l20.9,24.1c2.1,2.5,5,4,8,4.1l54.5,1.7l87.3,2.8v-38V226.6
								L285.9,226.6z"/>
							<path d="M283.8,230.7v69.8l-139.7-4.2c-2.5-0.1-4.9-1.3-6.6-3.3l-20.9-24.2c-0.6-0.7-1-1.7-1-2.6c0-1,0.4-1.9,1-2.6
								l20.9-24.3c1.7-2.1,4.1-3.3,6.6-3.4L283.8,230.7 M285.2,228.6l-141,5.5c-2.8,0.1-5.5,1.5-7.5,3.9l-20.9,24.3
								c-0.9,1-1.4,2.4-1.4,3.9c0,1.5,0.5,2.8,1.4,3.9l20.9,24.2c2,2.3,4.7,3.7,7.5,3.8l141,4.5V228.6L285.2,228.6z"/>
							<path d="M283.8,229.7v69.8l-139.7-4.1c-2.5-0.1-4.9-1.3-6.6-3.3L116.7,268c-0.6-0.7-1-1.7-1-2.6c0-1,0.4-1.9,1-2.7l20.9-24.3
								c1.7-2.1,4.1-3.3,6.6-3.4L283.8,229.7 M285.2,227.6l-141,5.6c-2.8,0.1-5.5,1.5-7.5,3.9l-20.9,24.3c-0.9,1-1.4,2.4-1.4,3.9
								s0.5,2.8,1.4,3.9l20.9,24.1c2,2.3,4.7,3.7,7.5,3.8l141,4.4V227.6L285.2,227.6z"/>
							<path d="M285.2,227.6v36.9v36.9l-86.6-2.7l-54.5-1.7c-2.8-0.1-5.5-1.5-7.5-3.8l-20.9-24.1c-0.9-1-1.4-2.4-1.4-3.9
								s0.5-2.8,1.4-3.9l20.9-24.3c2-2.4,4.7-3.8,7.5-3.9l54.5-2.2L285.2,227.6 M285.9,226.6l-87.3,3.5l-54.5,2.2
								c-3,0.1-5.9,1.6-8,4.1l-20.9,24.3c-2.2,2.5-2.2,6.5,0,9l20.9,24.1c2.1,2.5,5,4,8,4.1l54.5,1.7l87.3,2.8v-38V226.6
								L285.9,226.6z"/>
						</g>
						<g>
							
								<linearGradient id="SVGID_13_" gradientUnits="userSpaceOnUse" x1="571.1991" y1="263.5836" x2="743.397" y2="263.5836" gradientTransform="matrix(-1 0 0 1 857.071 0)">
								<stop  offset="0" style="stop-color:#FFFFFF"/>
								<stop  offset="0" style="stop-color:#DEDADB"/>
								<stop  offset="0" style="stop-color:#B9B1B2"/>
								<stop  offset="0" style="stop-color:#988B8E"/>
								<stop  offset="0" style="stop-color:#7B6B6E"/>
								<stop  offset="0" style="stop-color:#634F53"/>
								<stop  offset="0" style="stop-color:#4F393E"/>
								<stop  offset="0" style="stop-color:#40282D"/>
								<stop  offset="0" style="stop-color:#361D21"/>
								<stop  offset="0" style="stop-color:#30161B"/>
								<stop  offset="0" style="stop-color:#2E1419"/>
								<stop  offset="5.911330e-002" style="stop-color:#4C4F51"/>
								<stop  offset="0.5074" style="stop-color:#4C4F51"/>
							</linearGradient>
							<path class="st24" d="M136.2,293.1c2.1,2.5,5,4,8,4.1l54.5,1.7l87.3,2.7v-38v-38l-87.3,3.6l-54.5,2.3c-3,0.1-5.9,1.6-8,4.1
								L115.3,260c-2.2,2.5-2.2,6.5,0,9L136.2,293.1z"/>
							<g class="st8">
								<path class="st9" d="M282.5,230.7v32.9v32.9l-83.9-2.2l-54.5-1.4c-2.1-0.1-4.2-1.1-5.7-2.8l-20.9-24.1
									c-0.5-0.5-0.5-1-0.5-1.4s0.1-0.9,0.5-1.4l20.9-24.3c1.5-1.8,3.5-2.8,5.7-2.9l54.5-2L282.5,230.7 M285.9,225.6l-87.3,3.6
									l-54.5,2.3c-3,0.1-5.9,1.6-8,4.1L115.3,260c-2.2,2.5-2.2,6.5,0,9l20.9,24.1c2.1,2.5,5,4,8,4.1l54.5,1.7l87.3,2.7v-38V225.6
									L285.9,225.6z"/>
							</g>
							<g>
								<g class="st6">
									<path d="M283.8,229.7v69.8l-139.7-4.1c-2.5-0.1-4.9-1.3-6.6-3.3L116.7,268c-0.6-0.7-1-1.7-1-2.6c0-1,0.4-1.9,1-2.7
										l20.9-24.3c1.7-2.1,4.1-3.3,6.6-3.4L283.8,229.7 M285.2,227.6l-141,5.6c-2.8,0.1-5.5,1.5-7.5,3.9l-20.9,24.3
										c-0.9,1-1.4,2.4-1.4,3.9s0.5,2.8,1.4,3.9l20.9,24.1c2,2.3,4.7,3.7,7.5,3.8l141,4.4V227.6L285.2,227.6z"/>
								</g>
								<linearGradient id="SVGID_14_" gradientUnits="userSpaceOnUse" x1="285.1935" y1="263.5873" x2="114.3525" y2="263.5873">
									<stop  offset="0" style="stop-color:#FFFFFF"/>
									<stop  offset="0" style="stop-color:#F4F4F4"/>
									<stop  offset="0" style="stop-color:#DEDEDE"/>
									<stop  offset="0" style="stop-color:#CDCDCD"/>
									<stop  offset="0" style="stop-color:#C2C2C2"/>
									<stop  offset="0" style="stop-color:#BBBBBB"/>
									<stop  offset="0" style="stop-color:#B9B9B9"/>
									<stop  offset="5.911330e-002" style="stop-color:#E1E1E1"/>
									<stop  offset="1" style="stop-color:#E1E1E1"/>
								</linearGradient>
								<path class="st25" d="M283.8,228.7v69.8l-139.7-3.9c-2.5-0.1-4.9-1.3-6.6-3.3l-20.9-24.1c-0.6-0.7-1-1.7-1-2.6
									c0-1,0.4-1.9,1-2.7l20.9-24.3c1.7-2.1,4.1-3.3,6.6-3.4L283.8,228.7 M285.2,226.6l-141,5.7c-2.8,0.1-5.5,1.5-7.5,3.9
									l-20.9,24.3c-0.9,1-1.4,2.4-1.4,3.9c0,1.5,0.5,2.8,1.4,3.9l20.9,24.1c2,2.3,4.7,3.7,7.5,3.8l141,4.2V226.6L285.2,226.6z"/>
							</g>
							<path class="st4" d="M285.2,226.6v36.9v36.9l-86.6-2.6l-54.5-1.6c-2.8-0.1-5.5-1.5-7.5-3.8l-20.9-24.1
								c-0.9-1-1.4-2.4-1.4-3.9s0.5-2.8,1.4-3.9l20.9-24.3c2-2.4,4.7-3.8,7.5-3.9l54.5-2.2L285.2,226.6 M285.9,225.6l-87.3,3.6
								l-54.5,2.3c-3,0.1-5.9,1.6-8,4.1L115.3,260c-2.2,2.5-2.2,6.5,0,9l20.9,24.1c2.1,2.5,5,4,8,4.1l54.5,1.7l87.3,2.7v-38V225.6
								L285.9,225.6z"/>
						</g>
					</g>
					<g>
						<polygon class="st11" points="269,301 280.2,301.4 280.2,225.8 269,226.3 						"/>
					</g>
					<polygon class="st13" points="147.4,278.8 135,263.1 147.4,247.2 135,263.1 					"/>
				</g>
				<g>
					<path class="st12" d="M189.7,270.9c0,0.1-0.1,0.1-0.2,0.1c-0.3,0.1-1,0.1-2.1,0.1c-1,0-1.6,0-2-0.1c-0.2,0-0.3,0-0.3-0.1
						c0,0-0.1-0.1-0.2-0.3c-0.1-0.3-0.3-0.9-0.5-1.6c-0.3-0.9-0.7-2.2-1.3-3.9c-0.1-0.3-0.4-0.5-0.9-0.6c0.2,0-0.2,0-1.1,0
						c-0.1,0-0.2,0.2-0.2,0.7c0,0.6,0,1.5,0.1,2.7c0.1,1.2,0.1,2.1,0.1,2.7c0,0.2,0,0.2-0.1,0.3c-0.1,0-0.2,0-0.3,0
						c-0.4,0-1.1,0.1-2,0c-1,0-1.7,0-1.9-0.1c-0.2-0.1-0.3-0.2-0.3-0.4c0-1,0-2.4,0.1-4.4c0.1-2,0.1-3.4,0.1-4.4
						c0-3.7-0.1-6.7-0.2-8.8l0-0.2c0-0.2,0.1-0.3,0.3-0.3c0.2-0.1,1.4-0.1,3.4-0.2c1.4-0.1,2.4-0.1,3.2-0.1c1.7,0,3,0.4,4.1,1.3
						c1.2,1,1.8,2.5,1.8,4.5c0,1.3-0.2,2.4-0.5,3.1c-0.3,0.8-0.9,1.5-1.7,2.3c-0.2,0.1-0.3,0.3-0.3,0.4c0,0,0.4,1.1,1.3,3.4
						C189.3,269.4,189.7,270.6,189.7,270.9z M185.1,258.8c0-1.1-0.3-1.8-0.9-2.3c-0.5-0.3-1.2-0.5-2.1-0.5c-0.7,0-1.1,0.1-1.1,0.4
						c0,0.3-0.1,1.2-0.1,2.6c0,0.2,0,0.5,0,0.9c0,0.4,0,0.7,0,0.9c0,0,0.1,0.1,0.4,0.1c0.4,0.1,0.9,0.1,1.4,0.1
						C184.3,261.2,185.1,260.4,185.1,258.8z"/>
					<path class="st12" d="M201,263.6c0,0.9-0.2,1.4-0.7,1.6c-0.1,0-0.8,0.1-2.3,0.3c-0.9,0.1-2.2,0.3-3.9,0.4
						c0.1,0.6,0.4,1,0.9,1.3c0.4,0.3,0.9,0.4,1.5,0.4c0.7,0,1.3-0.2,2-0.7c0.3-0.2,0.6-0.4,0.8-0.7c0.2,0.1,0.4,0.6,0.8,1.4
						c0.4,0.8,0.5,1.4,0.5,1.6c0,0.1-0.1,0.2-0.2,0.3c-0.9,1.2-2.3,1.8-4.2,1.8c-1.7,0-3.2-0.6-4.2-1.9c-1.1-1.3-1.6-3-1.6-5.1
						c0-2.1,0.5-3.8,1.5-5.1c1-1.4,2.4-2.1,4-2.1c1.4,0,2.6,0.6,3.6,1.9C200.5,260.3,201,261.9,201,263.6z M197.1,262.8
						c0-0.6-0.2-1.1-0.5-1.5c-0.3-0.4-0.7-0.6-1.2-0.6c-0.5,0-0.8,0.2-1.1,0.7c-0.3,0.4-0.4,1-0.4,1.6c0,0.2,0.1,0.4,0.3,0.4
						c0.5,0,1.4-0.1,2.5-0.3C197,263,197.1,262.9,197.1,262.8z"/>
					<path class="st12" d="M213.1,267.4c0,2.6-0.4,4.5-1.3,5.6c-0.9,1.2-2.4,1.7-4.5,1.7c-0.6,0-1.5-0.1-2.5-0.4
						c-1.4-0.3-2-0.7-2-1.1c0-0.2,0.2-1.1,0.5-2.7c0.1-0.3,0.1-0.4,0.2-0.4c0,0,0.1,0,0.1,0.1c1.1,0.7,2.2,1,3.1,1
						c0.5,0,1.1-0.2,1.6-0.5c0.6-0.4,0.9-0.9,0.9-1.5v-0.9c-0.7,0.9-1.7,1.3-2.9,1.3c-1.4,0-2.5-0.6-3.4-1.8
						c-0.9-1.2-1.3-2.6-1.3-4.4c0-1.7,0.4-3.2,1.2-4.3c0.9-1.2,2-1.8,3.4-1.8c1.1,0,2,0.5,2.5,1.5c0.1,0.2,0.2,0.3,0.2,0.3
						c0.1,0,0.1-0.2,0.1-0.5c0-0.7,0.1-1.1,0.2-1.1c0.1,0,0.8,0.1,1.9,0.2c1.2,0.1,1.7,0.2,1.8,0.2c0.1,0.1,0.2,0.2,0.2,0.4
						c0,0.6,0,1.6,0,2.8c0,1.3,0,2.2,0,2.8c0,0.4,0,0.9,0,1.7C213.1,266.5,213.1,267.1,213.1,267.4z M209.3,263.6
						c0-0.7-0.2-1.2-0.5-1.7c-0.4-0.5-0.8-0.7-1.3-0.7c-0.5,0-1,0.3-1.3,0.8c-0.4,0.5-0.5,1.1-0.5,1.7s0.2,1.2,0.5,1.7
						c0.4,0.5,0.8,0.7,1.3,0.7c0.5,0,1-0.3,1.3-0.7C209.1,264.9,209.3,264.3,209.3,263.6z"/>
					<path class="st12" d="M219.1,264.7c0,0.7,0,1.7,0,3c0,1.3,0,2.3,0,3c0,0.2-0.1,0.3-0.3,0.3c-0.2,0.1-0.8,0.1-1.7,0.1
						c-0.9,0-1.4,0-1.7-0.1c-0.2,0-0.3-0.1-0.3-0.2c0,0,0-0.2,0-0.4c0-0.6,0-1.6,0-2.9c0-1.3,0-2.2,0-2.9c0-2.6-0.1-4.7-0.2-6.2
						c0-0.1,0-0.2,0-0.3c0-0.2,0.1-0.3,0.3-0.3c0.2,0,0.5,0,0.9,0.1c0.4,0.1,0.7,0.1,1,0.1c0.2,0,0.5,0,1-0.1c0.4-0.1,0.7-0.1,1-0.1
						c0.2,0,0.3,0.1,0.3,0.3c0,0,0,0.1,0,0.3C219.2,260.2,219.1,262.3,219.1,264.7z M219.4,254.4c0,1.6-0.7,2.4-2.2,2.4
						c-0.6,0-1.1-0.2-1.5-0.6c-0.4-0.4-0.7-1-0.7-1.8c0-0.7,0.2-1.3,0.7-1.8c0.4-0.4,0.9-0.7,1.5-0.7c0.6,0,1.1,0.2,1.5,0.6
						C219.2,253.1,219.4,253.6,219.4,254.4z"/>
					<path class="st12" d="M227.6,259.7c0,0.1-0.1,0.2-0.2,0.4c-0.2-0.1-0.4-0.1-0.6-0.1c-0.4,0-0.8,0.1-1.1,0.4
						c-0.4,0.3-0.5,0.7-0.5,1.2c0,0.3,0.2,0.7,0.6,1.2c0.6,0.8,0.9,1.3,1,1.5c0.4,0.7,0.6,1.5,0.6,2.3c0,0.5-0.1,1-0.2,1.5
						c-0.2,0.6-0.4,1-0.6,1.3c-0.5,0.6-1.2,1.1-1.9,1.5c-0.8,0.4-1.5,0.6-2.2,0.6c-0.1,0-0.5-0.5-1-1.5c-0.5-1-0.8-1.6-0.8-1.8
						c0-0.1,0-0.1,0.1-0.2c0.5-0.1,1-0.2,1.6-0.4c0.6-0.3,1-0.7,1-1.3c0-0.4-0.2-0.9-0.6-1.4c-0.7-0.9-1-1.4-1-1.5
						c-0.4-0.7-0.6-1.4-0.6-2.1c0-1.4,0.6-2.6,1.7-3.6c1-0.9,2.1-1.3,3.2-1.3c0.1,0,0.4,0.5,0.9,1.5
						C227.4,259,227.6,259.6,227.6,259.7z"/>
					<path class="st12" d="M236.6,266.9c0,0.3,0,0.7-0.1,1.3c-0.1,0.6-0.1,1-0.1,1.3c0,0.3,0,0.4-0.1,0.5c0,0.1-0.2,0.2-0.4,0.3
						c-0.9,0.7-2,1-3.1,1c-2.1,0-3.2-1-3.2-3.1c0-0.6,0-1.5,0.1-2.8c0-1.2,0.1-2.2,0.1-2.8c0-0.4-0.2-0.6-0.6-0.6c0,0-0.1,0-0.1,0
						c-0.1,0-0.1,0-0.1,0c-0.3,0-0.4-0.1-0.4-0.4c0-0.1,0-0.4,0-0.7c0-0.3,0-0.5,0-0.7c0-0.2,0-0.5,0-0.9c0-0.4,0-0.7,0-0.9
						c0-0.2,0.2-0.3,0.7-0.3c0.3,0,0.4-0.1,0.4-0.3c0-0.4,0.1-0.9,0-1.7c0-1.2,0-1.8,0-1.7c0-1.1,0.1-1.6,0.2-1.6
						c0.2,0,0.5,0,0.8,0.2c0.4,0.1,0.7,0.2,0.9,0.2c0.4,0.1,0.9,0.1,1.7,0.2c0.2,0,0.3,0.1,0.3,0.2c0,0.4,0,0.9-0.1,1.7
						c0,0.8-0.1,1.3-0.1,1.7c0,0.5,0.1,0.7,0.3,0.7c0.3,0,0.6,0,1.2-0.1c0.5,0,0.9-0.1,1.2-0.1c0.2,0,0.2,0.1,0.2,0.2
						c0,0.2,0,0.5-0.1,1c0,0.4-0.1,0.8-0.1,1c0,0.2,0,0.6,0,1c0,0.4,0,0.8,0,1c0,0.2-0.1,0.3-0.3,0.3c-0.1,0-0.4,0-0.7,0
						c-0.3,0-0.6,0-0.7,0l-0.8,0c-0.1,0-0.2,0.2-0.2,0.6c0,0.2,0,0.6,0,1c0,0.5,0,0.8,0,1c0,0.8,0.1,1.3,0.2,1.6
						c0.2,0.4,0.6,0.6,1.2,0.6c0.2,0,0.4-0.1,0.8-0.2c0.3-0.1,0.6-0.2,0.7-0.2C236.5,266.6,236.6,266.7,236.6,266.9z"/>
					<path class="st12" d="M245,262.2c0,0.4-0.2,0.6-0.5,0.6c-0.1,0-0.3,0-0.6,0c-0.3,0-0.5,0-0.6,0c-0.6,0-1,0.1-1.2,0.4
						c-0.2,0.2-0.3,0.7-0.3,1.5c0,0.4,0,1,0,1.9c0,0.8,0,1.4,0,1.9c0,0.3,0,0.7,0,1.2c0,0.5,0,1,0,1.2c0,0.2-0.1,0.4-0.4,0.4
						c-0.4,0-0.9,0.1-1.6,0.1c-0.7,0-1.3,0-1.7-0.1c-0.2,0-0.4-0.2-0.4-0.5c0-0.8,0-1.9,0-3.4c0-1.5,0-2.6,0-3.4
						c0-2.2-0.2-4-0.5-5.5c0-0.1,0-0.2,0-0.2c0-0.1,0.1-0.2,0.2-0.3c0.4-0.1,1-0.2,1.8-0.3c1.2-0.3,1.8-0.5,1.8-0.5
						c0.1,0,0.2,0.3,0.3,0.9c0,0.6,0.1,0.9,0.2,0.9c-0.1,0,0.2-0.3,0.9-0.8c0.7-0.5,1.4-0.8,2-0.8c0.4,0,0.6,0.1,0.6,0.3
						c0,0.3,0,0.7-0.1,1.2c0,0.5-0.1,0.9-0.1,1.2c0,0.3,0,0.6,0,1.1C245,261.7,245,262,245,262.2z"/>
					<path class="st12" d="M257.1,260.8c0,1.9,0,3-0.1,3.4c-0.1,0.5-0.9,2.2-2.4,5.2c-0.2,0.5-0.8,1.6-1.8,3.3
						c-1.1,1.9-1.7,2.9-1.8,3c-0.2,0.1-1.3,0.2-3.4,0.2c-0.3,0-0.5-0.1-0.6-0.1c-0.1-0.4-0.2-0.9-0.4-1.4c-0.1-0.3-0.2-0.7-0.4-1
						c-0.2-0.5-0.3-0.8-0.3-1c0-0.2,0.1-0.3,0.2-0.3c2,0,3.1-0.6,3.1-1.8c0-0.1-0.5-1.1-1.5-2.8c-1-1.8-1.6-3-1.7-3.5
						c-0.1-0.3-0.1-1.3-0.1-3c0-0.3,0-0.9,0-1.5c0-0.7,0-1.2,0-1.5c0-0.2,0.1-0.4,0.4-0.4c0.4,0,0.9,0,1.7,0c0.8,0,1.3,0,1.7,0
						c0.2,0,0.2,0.1,0.2,0.4c0,0.3,0,0.7,0,1.2c0,0.5,0,0.9,0,1.2c0,1.2,0,2,0,2.4c0,0.3,0.2,1,0.7,1.9c0.4,0.9,0.8,1.4,1,1.4
						c0.2,0,0.5-0.5,0.9-1.4c0.4-0.9,0.6-1.5,0.6-1.8c0.1-0.8,0.1-1.8,0.1-2.7c0-0.3,0-0.7-0.1-1.2c0-0.5-0.1-0.9-0.1-1.2
						c0-0.2,0.1-0.3,0.2-0.3c0.4,0,0.9,0,1.7-0.1c0.7,0,1.3-0.1,1.7-0.1c0.2,0,0.3,0.1,0.4,0.4C257.1,258.2,257.1,259.2,257.1,260.8
						z"/>
				</g>
			</g>
		</g>
	</g>
</g>
</svg>
