<?xml version="1.0" encoding="utf-8"?>
<!-- Generator: Adobe Illustrator 19.2.1, SVG Export Plug-In . SVG Version: 6.00 Build 0)  -->
<svg version="1.1" xmlns="http://www.w3.org/2000/svg" xmlns:xlink="http://www.w3.org/1999/xlink" x="0px" y="0px"
	 viewBox="0 0 600 630" style="enable-background:new 0 0 600 630;" xml:space="preserve">
<style type="text/css">
	.st0{fill:url(#SVGID_1_);}
	.st1{fill:url(#SVGID_2_);}
	.st2{opacity:0.3;}
	.st3{fill:url(#SVGID_3_);}
	.st4{opacity:0.2;}
	.st5{fill:#1D1D1B;}
	.st6{fill:url(#SVGID_4_);}
	.st7{fill:#4C4F51;}
	.st8{opacity:0.21;fill:#1D1D1B;}
	.st9{fill:#F5F5F5;}
	.st10{fill:#F5F5F5;stroke:#E1E1E1;stroke-width:3;stroke-linecap:round;stroke-linejoin:round;stroke-miterlimit:10;}
	.st11{fill:url(#SVGID_5_);}
	.st12{fill:url(#SVGID_6_);}
	.st13{fill:url(#SVGID_7_);}
	.st14{fill:url(#SVGID_8_);}
	.st15{fill:url(#SVGID_9_);}
	.st16{fill:url(#SVGID_10_);}
	.st17{fill:none;stroke:#1D1D1B;stroke-width:0.25;stroke-miterlimit:10;}
	.st18{fill:url(#SVGID_11_);}
	.st19{fill:url(#SVGID_12_);}
	.st20{fill:url(#SVGID_13_);}
	.st21{fill:url(#SVGID_14_);}
	.st22{fill:url(#SVGID_15_);}
	.st23{fill:url(#SVGID_16_);}
	.st24{fill:url(#SVGID_17_);}
	.st25{fill:url(#SVGID_18_);}
	.st26{fill:url(#SVGID_19_);}
	.st27{fill:url(#SVGID_20_);}
	.st28{fill:url(#SVGID_21_);}
	.st29{fill:url(#SVGID_22_);}
	.st30{fill:url(#SVGID_23_);}
	.st31{fill:url(#SVGID_24_);}
	.st32{fill:#DC320A;}
	.st33{fill:url(#SVGID_25_);}
	.st34{fill:url(#SVGID_26_);}
	.st35{fill:url(#SVGID_27_);}
	.st36{fill:url(#SVGID_28_);}
	.st37{fill:url(#SVGID_29_);}
	.st38{fill:#302000;}
	.st39{fill:url(#SVGID_30_);}
	.st40{fill:url(#SVGID_31_);}
	.st41{fill:#E8FFE9;}
	.st42{fill:url(#SVGID_32_);}
	.st43{fill:url(#SVGID_33_);}
</style>
<g id="Layer_1">
	<radialGradient id="SVGID_1_" cx="215.22" cy="194.6921" r="278.3" gradientUnits="userSpaceOnUse">
		<stop  offset="0" style="stop-color:#FFFFFF"/>
		<stop  offset="0" style="stop-color:#F5FBFF"/>
		<stop  offset="0" style="stop-color:#EAF6FF"/>
		<stop  offset="0" style="stop-color:#E3F4FF"/>
		<stop  offset="0" style="stop-color:#E1F3FF"/>
		<stop  offset="0.3547" style="stop-color:#81FFFF"/>
		<stop  offset="0.5396" style="stop-color:#78E6F8"/>
		<stop  offset="1" style="stop-color:#64ACE9"/>
	</radialGradient>
	<circle class="st0" cx="302.3" cy="304.4" r="278.3"/>
	<linearGradient id="SVGID_2_" gradientUnits="userSpaceOnUse" x1="282.0408" y1="581.6736" x2="282.0408" y2="467.9796">
		<stop  offset="0" style="stop-color:#00FF00"/>
		<stop  offset="1" style="stop-color:#1E3F40"/>
	</linearGradient>
	<path class="st1" d="M489,540.5c-12.4,23.8-96,48.5-214.5,48.5S53.8,566.5,60,540.5c9.3-38.7,4.2-58.6,29-64.5
		c42-10,117.4-18.2,185.5,16c48.9,24.6,118.5-27,166.5-6.6C491.2,506.8,525.8,469.8,489,540.5z"/>
	<g>
		<g>
			<g>
				<g id="Plate_25_">
					<g class="st2">
						<path d="M534.7,397.7c-3.4,3.8-8.1,5.9-13.2,5.8l-91.5-2.3l-146.7-3.7v-45.9v-45.9l144.5-3.6l90.2-2.3c4.9-0.1,9.8,2,13.4,5.8
							l36.2,38.6c3.8,4.1,4.1,10.9,0.6,15L534.7,397.7z"/>
						<path d="M518.1,305.4c3.8-0.1,7.5,1.5,10.2,4.4l36.2,38.6c0.8,0.9,1.3,2,1.4,3.2c0,1.2-0.3,2.3-1.1,3.2l-33.5,38.6
							c-2.6,2.9-6.2,4.5-10,4.4l-91.5-2.1L288,392.6l0-41l0-41l140-3.1L518.1,305.4 M518,299.7l-90.2,2.3l-144.5,3.6v45.9v45.9
							l146.7,3.7l91.5,2.3c5,0.1,9.8-1.9,13.2-5.8l33.5-38.6c3.5-4.1,3.2-10.9-0.6-15l-36.2-38.6C527.7,301.7,522.9,299.6,518,299.7
							L518,299.7z"/>
						<path d="M518.1,304.2c4.2-0.1,8.4,1.7,11.5,5l36.2,38.6c1.2,1.3,2,3.1,2,4.9c0.1,1.9-0.5,3.6-1.6,4.9l-33.5,38.6
							c-2.9,3.2-7,5-11.3,4.9l-235.4-5.7l0-86L518.1,304.2 M518,302l-233.8,5.6l0,89.9l237.3,6c4.8,0.1,9.3-1.9,12.5-5.5l33.5-38.6
							c1.5-1.8,2.3-4.1,2.2-6.6c-0.1-2.5-1.1-4.9-2.7-6.7l-36.2-38.6C527.4,303.9,522.7,301.9,518,302L518,302z"/>
						<path d="M518.1,303.1c4.2-0.1,8.4,1.7,11.5,5l36.2,38.6c1.2,1.3,2,3.1,2,4.9c0.1,1.9-0.5,3.6-1.6,4.9l-33.5,38.6
							c-2.9,3.2-7,5-11.3,4.9l-235.3-5.5l0-86L518.1,303.1 M518,300.9l-233.8,5.7l0,89.9l237.3,5.8c4.7,0.1,9.3-1.9,12.5-5.5
							l33.5-38.6c1.5-1.8,2.3-4.1,2.2-6.7c-0.1-2.5-1.1-4.9-2.7-6.7l-36.2-38.6C527.3,302.7,522.7,300.7,518,300.9L518,300.9z"/>
						<path d="M518,300.8c4.7-0.1,9.3,1.9,12.8,5.5l36.2,38.6c1.6,1.8,2.6,4.1,2.7,6.7c0.1,2.5-0.7,4.9-2.2,6.7L534,396.8
							c-3.2,3.6-7.8,5.6-12.5,5.5l-91.5-2.3l-145.7-3.6l0-45l0-45l143.6-3.5L518,300.8 M518,299.7l-90.2,2.3l-144.5,3.6v45.9v45.9
							l146.7,3.7l91.5,2.3c5,0.1,9.8-1.9,13.2-5.8l33.5-38.6c3.5-4.1,3.2-10.9-0.6-15l-36.2-38.6C527.7,301.7,522.9,299.6,518,299.7
							L518,299.7z"/>
					</g>
					<g>
						<linearGradient id="SVGID_3_" gradientUnits="userSpaceOnUse" x1="283.2639" y1="350.4576" x2="570.567" y2="350.4576">
							<stop  offset="0" style="stop-color:#FFFFFF"/>
							<stop  offset="0" style="stop-color:#DEDADB"/>
							<stop  offset="0" style="stop-color:#B9B1B2"/>
							<stop  offset="0" style="stop-color:#988B8E"/>
							<stop  offset="0" style="stop-color:#7B6B6E"/>
							<stop  offset="0" style="stop-color:#634F53"/>
							<stop  offset="0" style="stop-color:#4F393E"/>
							<stop  offset="0" style="stop-color:#40282D"/>
							<stop  offset="0" style="stop-color:#361D21"/>
							<stop  offset="0" style="stop-color:#30161B"/>
							<stop  offset="0" style="stop-color:#2E1419"/>
							<stop  offset="5.911330e-002" style="stop-color:#4C4F51"/>
							<stop  offset="0.5074" style="stop-color:#4C4F51"/>
						</linearGradient>
						<path class="st3" d="M534.6,396.5c-3.4,3.8-8.1,5.9-13.2,5.8l-91.5-2.3l-146.7-3.6v-45.9v-45.9l144.5-3.7l90.2-2.3
							c4.9-0.1,9.8,1.9,13.4,5.8l36.2,38.6c3.8,4.1,4.1,10.9,0.6,15L534.6,396.5z"/>
						<g class="st4">
							<path class="st5" d="M518.1,304.2c3.8-0.1,7.5,1.5,10.2,4.4l36.2,38.6c0.8,0.9,1.3,2,1.4,3.2c0,1.2-0.3,2.3-1.1,3.2
								l-33.5,38.6c-2.6,2.9-6.2,4.5-10,4.4l-91.5-2L288,391.6l0-41l0-41l140-3.2L518.1,304.2 M517.9,298.6l-90.2,2.3l-144.5,3.7
								v45.9v45.9l146.7,3.6l91.5,2.3c5,0.1,9.8-2,13.2-5.8l33.5-38.6c3.5-4.1,3.2-10.9-0.6-15l-36.2-38.6
								C527.7,300.5,522.9,298.5,517.9,298.6L517.9,298.6z"/>
						</g>
						<g>
							<g class="st2">
								<path d="M518.1,303.1c4.2-0.1,8.4,1.7,11.5,5l36.2,38.6c1.2,1.3,2,3.1,2,4.9c0.1,1.9-0.5,3.6-1.6,4.9l-33.5,38.6
									c-2.9,3.2-7,5-11.3,4.9l-235.3-5.5l0-86L518.1,303.1 M518,300.9l-233.8,5.7l0,89.9l237.3,5.8c4.7,0.1,9.3-1.9,12.5-5.5
									l33.5-38.6c1.5-1.8,2.3-4.1,2.2-6.7c-0.1-2.5-1.1-4.9-2.7-6.7l-36.2-38.6C527.3,302.7,522.7,300.7,518,300.9L518,300.9z"/>
							</g>
							<linearGradient id="SVGID_4_" gradientUnits="userSpaceOnUse" x1="284.1929" y1="350.4574" x2="569.6298" y2="350.4574">
								<stop  offset="0" style="stop-color:#FFFFFF"/>
								<stop  offset="0" style="stop-color:#F4F4F4"/>
								<stop  offset="0" style="stop-color:#DEDEDE"/>
								<stop  offset="0" style="stop-color:#CDCDCD"/>
								<stop  offset="0" style="stop-color:#C2C2C2"/>
								<stop  offset="0" style="stop-color:#BBBBBB"/>
								<stop  offset="0" style="stop-color:#B9B9B9"/>
								<stop  offset="5.911330e-002" style="stop-color:#E1E1E1"/>
								<stop  offset="1" style="stop-color:#E1E1E1"/>
							</linearGradient>
							<path class="st6" d="M518,302c4.2-0.1,8.4,1.7,11.5,4.9l36.2,38.6c1.2,1.3,2,3.1,2,4.9c0.1,1.9-0.5,3.6-1.6,4.9L532.7,394
								c-2.9,3.2-7,5.1-11.3,5l-235.3-5.4l0-86L518,302 M518,299.7l-233.8,5.8l0,89.9l237.2,5.7c4.7,0.1,9.3-1.9,12.5-5.5l33.5-38.6
								c1.5-1.8,2.3-4.1,2.2-6.7c-0.1-2.5-1.1-4.9-2.7-6.7l-36.2-38.6C527.3,301.6,522.6,299.6,518,299.7L518,299.7z"/>
						</g>
						<path class="st7" d="M518,299.7c4.7-0.1,9.3,1.9,12.8,5.5l36.2,38.6c1.6,1.8,2.6,4.1,2.7,6.7c0.1,2.5-0.7,4.9-2.2,6.7
							L534,395.7c-3.2,3.6-7.8,5.6-12.5,5.5l-91.5-2.2l-145.7-3.5l0-45l0-45l143.6-3.6L518,299.7 M517.9,298.6l-90.2,2.3l-144.5,3.7
							v45.9v45.9l146.7,3.6l91.5,2.3c5,0.1,9.8-2,13.2-5.8l33.5-38.6c3.5-4.1,3.2-10.9-0.6-15l-36.2-38.6
							C527.7,300.5,522.9,298.5,517.9,298.6L517.9,298.6z"/>
					</g>
				</g>
				<g>
					<polygon class="st8" points="311.7,397.2 292.7,396.7 292.6,304.3 311.2,303.9 					"/>
				</g>
				<g>
					<path class="st9" d="M375,359.5c0,0.3-0.1,0.5-0.5,0.5c-0.2,0-0.9-0.1-2-0.4c-1.1-0.3-1.8-0.5-2.1-0.6c-2.5,1-5,1.5-7.3,1.5
						c-3.8,0-6.9-1.3-9.4-3.9c-2.4-2.5-3.7-5.7-3.7-9.6c0-3.9,1.1-7.2,3.4-9.8c2.4-2.7,5.4-4.1,9.3-4.1c1.9,0,3.6,0.3,5.2,1
						c1.8,0.8,3.2,1.9,4.2,3.4c0.2,0.3,0.3,0.5,0.3,0.6c0,0.4-0.5,1.3-1.6,2.7c-1.1,1.4-1.8,2.1-2.1,2.1c-0.1,0-0.4-0.3-0.9-0.8
						c-0.6-0.6-1.2-1.1-1.9-1.4c-0.9-0.5-2-0.8-3.1-0.8c-1.8,0-3.3,0.7-4.3,2.1c-1,1.3-1.5,2.9-1.4,4.8c0,2,0.6,3.6,1.6,4.8
						c1.1,1.2,2.6,1.8,4.6,1.8c1.2,0,2.6-0.3,4.2-1c0-0.4-0.2-1.5-0.4-3.2c-0.2-1.3-0.3-2.4-0.3-3.2c0-0.2,0.1-0.4,0.2-0.4
						c0.1,0,0.2,0,0.3,0c0.4,0,0.9,0,1.6,0.1c0.7,0.1,1.3,0.1,1.6,0.1c0.4,0,1,0,1.8-0.1c0.8-0.1,1.4-0.1,1.8-0.1
						c0.3,0,0.5,0.2,0.5,0.6c0,0.6,0,1.5-0.1,2.7c-0.1,1.2-0.1,2.1-0.1,2.7c0,1.6,0.2,4,0.5,7.3L375,359.5z"/>
					<path class="st9" d="M396,342.9c0,0.9,0,2.3-0.1,4.2c-0.1,1.9-0.1,3.3-0.1,4.2c0,0.9,0.1,2.3,0.2,4.1c0.1,1.8,0.1,3.2,0.2,4.1
						c0,0.3-0.1,0.6-0.4,0.6c-0.5,0.1-1.4,0.2-3,0.2c-1.3,0-2.3,0-2.8-0.1c-0.2,0-0.4-0.2-0.4-0.5c0-0.4-0.1-0.8-0.1-1.1
						c-0.1-0.6-0.2-0.9-0.3-0.9c0.2,0-0.4,0.4-1.8,1.3c-1.4,0.9-2.7,1.3-3.8,1.3c-3.2,0-5.2-1.5-5.8-4.5c-0.3-1.4-0.5-3.4-0.5-6.1
						c0-2.9,0.2-5.1,0.6-6.8c0.1-0.5,0.4-0.8,0.7-0.8c0.6,0,1.4,0,2.6,0c1.1,0,2,0,2.6,0c0.4,0,0.6,0.2,0.6,0.5c0,0.1,0,0.2,0,0.4
						c-0.2,1.7-0.3,3.5-0.3,5.2c0,2.2,0.1,3.7,0.3,4.5c0.2,1.4,1.1,2.1,2.4,2.1c0.5,0,1.1-0.2,1.7-0.7c0.6-0.5,0.9-1,1-1.5
						c0-0.5,0-3.6-0.1-9.5c0-0.4,0-0.7,0.1-0.7c0.1-0.1,0.3-0.2,0.7-0.2c0.6,0,1.5,0,2.7,0c1.2,0,2.1,0,2.7,0c0.4,0,0.6,0.1,0.6,0.3
						C396,342.6,396,342.7,396,342.9z"/>
					<path class="st9" d="M406,351.5c0,0.9,0.1,2.3,0.1,4.2c0.1,1.8,0.1,3.2,0.1,4.1c0,0.3-0.1,0.4-0.5,0.5
						c-0.4,0.1-1.4,0.1-2.8,0.1c-1.5,0-2.4,0-2.8-0.1c-0.3-0.1-0.4-0.1-0.5-0.3c0-0.1,0-0.2,0-0.6c0-0.9,0-2.2,0-4c0-1.8,0-3.1,0-4
						c-0.1-3.6-0.3-6.5-0.6-8.6c0-0.2,0-0.3,0-0.4c0-0.3,0.2-0.4,0.5-0.4c0.3,0,0.9,0,1.6,0.1c0.7,0.1,1.2,0.1,1.6,0.1
						c0.4,0,0.9,0,1.6-0.1c0.7-0.1,1.2-0.1,1.6-0.1c0.3,0,0.4,0.1,0.4,0.4c0,0.1,0,0.2,0,0.4C406,345.3,405.9,348.2,406,351.5z
						 M406.2,337.3c0,2.2-1.1,3.3-3.5,3.4c-1,0-1.9-0.3-2.6-0.8c-0.7-0.6-1.1-1.4-1.1-2.5c0-1,0.3-1.8,1.1-2.5
						c0.7-0.6,1.5-0.9,2.5-0.9c1,0,1.8,0.3,2.5,0.9C405.8,335.5,406.2,336.3,406.2,337.3z"/>
					<path class="st9" d="M428.6,332.9c0-0.3,0,0.1-0.1,1.3c-0.1,1.4-0.2,3.3-0.2,5.5c0,2.5,0,5.4,0,8.6c0.1,5.3,0.3,9.1,0.7,11.4
						c0,0.2,0,0.4,0,0.5c0,0.1-0.1,0.2-0.3,0.3c-0.4,0.1-2.1,0.1-4.9,0.1c-0.7,0-1-0.1-1.1-0.4c0-0.5-0.1-1-0.1-1.5
						c0-0.1-0.1-0.2-0.2-0.3c-0.1,0-0.2,0.1-0.3,0.2c-1.3,1.4-2.9,2-4.9,2c-2.6,0-4.7-1-6.3-2.9c-1.5-1.8-2.3-4.1-2.4-6.8
						c-0.1-2.8,0.6-5.1,2-6.9c1.5-1.9,3.6-2.9,6.2-2.9c1.8,0,3.3,0.6,4.3,1.8c0.2,0.2,0.3,0.3,0.4,0.3c0.1,0,0.2-0.2,0.2-0.5
						c0-1-0.1-2.5-0.2-4.4c-0.1-2-0.1-3.4-0.2-4.4c0-0.4,0.1-0.6,0.3-0.6c0.8,0,1.9-0.1,3.2-0.3c2.4-0.3,3.5-0.5,3.2-0.5
						C428.4,332.4,428.6,332.6,428.6,332.9z M422.1,350.7c0-1-0.4-1.9-1.1-2.7c-0.7-0.8-1.5-1.1-2.5-1.1c-1,0-1.8,0.4-2.4,1.2
						c-0.6,0.8-0.9,1.7-0.8,2.7c0,1,0.3,1.9,1,2.6c0.6,0.8,1.4,1.2,2.4,1.2c1,0,1.8-0.4,2.4-1.2
						C421.8,352.7,422.1,351.8,422.1,350.7z"/>
					<path class="st9" d="M448.5,349.9c0,1.3-0.3,2.1-1.1,2.2c-0.1,0-1.4,0.2-3.8,0.4c-1.4,0.2-3.6,0.4-6.4,0.6
						c0.2,0.8,0.7,1.5,1.6,1.9c0.7,0.4,1.5,0.5,2.4,0.6c1.1,0,2.2-0.3,3.3-0.9c0.5-0.3,0.9-0.6,1.4-0.9c0.3,0.1,0.7,0.8,1.3,2
						c0.6,1.2,1,2,1,2.3c0,0.1-0.1,0.2-0.3,0.4c-1.5,1.7-3.8,2.5-6.9,2.5c-2.9,0-5.3-0.9-7.1-2.7c-1.9-1.8-2.9-4.3-2.9-7.3
						c-0.1-3,0.7-5.4,2.3-7.3c1.6-2,3.9-3,6.6-3c2.3,0,4.4,0.9,6,2.7C447.5,345.2,448.4,347.4,448.5,349.9z M442,348.7
						c0-0.8-0.3-1.5-0.9-2.1c-0.6-0.6-1.2-0.9-1.9-0.9c-0.8,0-1.4,0.3-1.9,1c-0.5,0.6-0.7,1.4-0.6,2.2c0,0.4,0.2,0.5,0.5,0.5
						c0.9,0,2.3-0.2,4.2-0.5C441.8,348.9,442,348.8,442,348.7z"/>
				</g>
			</g>
		</g>
		<polygon class="st10" points="530.2,370.7 552.3,348.7 530.2,326.6 552.3,348.7 		"/>
		<g id="signPlate">
			<g>
				<g id="Plate_24_">
					<g class="st2">
						<path d="M443.4,175.4c-2.3,2.6-5.3,4.2-8.5,4.6l-58.3,5.9l-93.4,9.4v-45.9v-45.9l93.4,7.2l58.3,4.5c3.2,0.2,6.3,1.8,8.5,4.4
							l22.3,23.5c2.4,2.3,2.4,6,0,8.4L443.4,175.4z"/>
						<path d="M434.9,118.7c2.4,0.2,4.8,1.4,6.5,3.3l22.3,23.5c0.5,0.5,0.8,1.1,0.8,1.8c0,0.7-0.3,1.3-0.8,1.8l-22.3,24
							c-1.7,1.9-4.1,3.2-6.5,3.4l-58.3,5.3l-90.4,8.2v-40.7v-40.7l90.4,6.1L434.9,118.7 M434.9,115.2l-58.3-4.5l-93.4-7.2v45.9v45.9
							l93.4-9.4l58.3-5.9c3.2-0.3,6.3-2,8.5-4.6l22.3-24c2.4-2.4,2.4-6.1,0-8.4l-22.3-23.5C441.1,117,438.1,115.4,434.9,115.2
							L434.9,115.2z"/>
						<path d="M434.9,118c2.7,0.2,5.4,1.5,7.3,3.7l22.3,23.4c0.8,0.7,1.2,1.7,1.2,2.8c0,1-0.4,2-1.2,2.8l-22.3,24.1
							c-1.9,2.2-4.6,3.6-7.3,3.9l-149.8,14.5v-85.6L434.9,118 M434.9,116.6l-151-11.1v89.8l151-15.2c3-0.3,6-1.9,8.1-4.4l22.3-24.1
							c1-1,1.6-2.3,1.6-3.7s-0.6-2.7-1.6-3.7L443,120.7C440.9,118.3,437.9,116.8,434.9,116.6L434.9,116.6z"/>
						<path d="M434.9,117.3c2.7,0.2,5.4,1.6,7.3,3.7l22.3,23.5c0.8,0.7,1.2,1.7,1.2,2.8c0,1-0.4,2-1.2,2.8l-22.3,24
							c-1.9,2.2-4.6,3.6-7.3,3.9l-149.8,14.2v-85.6L434.9,117.3 M434.9,115.9l-151-11.4v89.8l151-14.9c3-0.3,6-1.9,8.1-4.3l22.3-24
							c1-1,1.6-2.3,1.6-3.7s-0.6-2.7-1.6-3.7L443,120C440.9,117.6,437.9,116.1,434.9,115.9L434.9,115.9z"/>
						<path d="M434.9,115.9c3,0.2,6,1.7,8.1,4.1l22.3,23.5c1,1,1.6,2.3,1.6,3.7s-0.6,2.7-1.6,3.7L443,175c-2.1,2.4-5.1,4-8.1,4.3
							l-58.3,5.8l-92.8,9.2v-44.9v-44.9l92.8,7L434.9,115.9 M434.9,115.2l-58.3-4.5l-93.4-7.2v45.9v45.9l93.4-9.4l58.3-5.9
							c3.2-0.3,6.3-2,8.5-4.6l22.3-24c2.4-2.4,2.4-6.1,0-8.4l-22.3-23.5C441.1,117,438.1,115.4,434.9,115.2L434.9,115.2z"/>
					</g>
					<g>
						<linearGradient id="SVGID_5_" gradientUnits="userSpaceOnUse" x1="283.2639" y1="148.3678" x2="467.4976" y2="148.3678">
							<stop  offset="0" style="stop-color:#FFFFFF"/>
							<stop  offset="0" style="stop-color:#DEDADB"/>
							<stop  offset="0" style="stop-color:#B9B1B2"/>
							<stop  offset="0" style="stop-color:#988B8E"/>
							<stop  offset="0" style="stop-color:#7B6B6E"/>
							<stop  offset="0" style="stop-color:#634F53"/>
							<stop  offset="0" style="stop-color:#4F393E"/>
							<stop  offset="0" style="stop-color:#40282D"/>
							<stop  offset="0" style="stop-color:#361D21"/>
							<stop  offset="0" style="stop-color:#30161B"/>
							<stop  offset="0" style="stop-color:#2E1419"/>
							<stop  offset="5.911330e-002" style="stop-color:#4C4F51"/>
							<stop  offset="0.5074" style="stop-color:#4C4F51"/>
						</linearGradient>
						<path class="st11" d="M443.4,174.8c-2.3,2.6-5.3,4.2-8.5,4.6l-58.3,5.8l-93.4,9.2v-45.9v-45.9l93.4,7.4l58.3,4.6
							c3.2,0.3,6.3,1.8,8.5,4.4l22.3,23.5c2.4,2.3,2.4,6,0,8.4L443.4,174.8z"/>
						<g class="st4">
							<path class="st5" d="M434.9,118c2.4,0.2,4.8,1.4,6.5,3.3l22.3,23.5c0.5,0.5,0.8,1.1,0.8,1.8c0,0.7-0.3,1.3-0.8,1.8l-22.3,24
								c-1.7,1.9-4.1,3.2-6.5,3.4l-58.3,5.2l-90.4,8.1v-40.7v-40.7l90.4,6.3L434.9,118 M434.9,114.4l-58.3-4.6l-93.4-7.4v45.9v45.9
								l93.4-9.2l58.3-5.8c3.2-0.3,6.3-2,8.5-4.6l22.3-24c2.4-2.4,2.4-6.1,0-8.4l-22.3-23.5C441.1,116.3,438.1,114.7,434.9,114.4
								L434.9,114.4z"/>
						</g>
						<g>
							<g class="st2">
								<path d="M434.9,117.3c2.7,0.2,5.4,1.6,7.3,3.7l22.3,23.5c0.8,0.7,1.2,1.7,1.2,2.8c0,1-0.4,2-1.2,2.8l-22.3,24
									c-1.9,2.2-4.6,3.6-7.3,3.9l-149.8,14.2v-85.6L434.9,117.3 M434.9,115.9l-151-11.4v89.8l151-14.9c3-0.3,6-1.9,8.1-4.3
									l22.3-24c1-1,1.6-2.3,1.6-3.7s-0.6-2.7-1.6-3.7L443,120C440.9,117.6,437.9,116.1,434.9,115.9L434.9,115.9z"/>
							</g>
							<linearGradient id="SVGID_6_" gradientUnits="userSpaceOnUse" x1="283.8641" y1="148.3618" x2="466.8978" y2="148.3618">
								<stop  offset="0" style="stop-color:#FFFFFF"/>
								<stop  offset="0" style="stop-color:#F4F4F4"/>
								<stop  offset="0" style="stop-color:#DEDEDE"/>
								<stop  offset="0" style="stop-color:#CDCDCD"/>
								<stop  offset="0" style="stop-color:#C2C2C2"/>
								<stop  offset="0" style="stop-color:#BBBBBB"/>
								<stop  offset="0" style="stop-color:#B9B9B9"/>
								<stop  offset="5.911330e-002" style="stop-color:#E1E1E1"/>
								<stop  offset="1" style="stop-color:#E1E1E1"/>
							</linearGradient>
							<path class="st12" d="M434.9,116.6c2.7,0.2,5.4,1.6,7.3,3.7l22.3,23.5c0.8,0.7,1.2,1.7,1.2,2.8c0,1-0.4,2-1.2,2.8l-22.3,24
								c-1.9,2.2-4.6,3.6-7.3,3.9l-149.8,14v-85.6L434.9,116.6 M434.9,115.2l-151-11.7v89.8l151-14.7c3-0.3,6-1.9,8.1-4.3l22.3-24
								c1-1,1.6-2.3,1.6-3.7s-0.6-2.7-1.6-3.7L443,119.3C440.9,116.9,437.9,115.4,434.9,115.2L434.9,115.2z"/>
						</g>
						<path class="st7" d="M434.9,115.2c3,0.2,6,1.8,8.1,4.2l22.3,23.5c1,1,1.6,2.3,1.6,3.7s-0.6,2.7-1.6,3.7l-22.3,24
							c-2.1,2.4-5.1,4-8.1,4.3l-58.3,5.7l-92.8,9v-44.9v-44.9l92.8,7.2L434.9,115.2 M434.9,114.4l-58.3-4.6l-93.4-7.4v45.9v45.9
							l93.4-9.2l58.3-5.8c3.2-0.3,6.3-2,8.5-4.6l22.3-24c2.4-2.4,2.4-6.1,0-8.4l-22.3-23.5C441.1,116.3,438.1,114.7,434.9,114.4
							L434.9,114.4z"/>
					</g>
				</g>
				<g>
					<polygon class="st8" points="301.3,192.5 289.3,193.7 289.3,102.9 301.3,103.9 					"/>
				</g>
				<g>
					<path class="st9" d="M340.3,152.4c0,0.2-0.1,0.4-0.2,0.7c-1.4,2.4-3.4,3.6-5.8,3.7c-2.4,0.1-4.4-1-6-3.3
						c-1.5-2.2-2.2-5.1-2.2-8.5c0-3.3,0.7-6.2,2.2-8.5c1.5-2.4,3.4-3.6,5.8-3.5c2.5,0.1,4.5,1.2,6,3.3c0.2,0.2,0.2,0.4,0.2,0.6
						c0,0.2-0.3,0.9-0.8,2.2c-0.5,1.3-0.9,2-1,2.2c-0.1,0.1-0.1,0.1-0.2,0.1c0,0-0.2-0.2-0.6-0.6c-0.4-0.5-0.8-0.9-1.2-1.2
						c-0.6-0.4-1.3-0.7-1.9-0.7c-1.2,0-2.1,0.6-2.8,1.8c-0.6,1.1-1,2.5-1,4.1c0,1.7,0.3,3,1,4.1c0.7,1.2,1.6,1.8,2.8,1.8
						c0.7,0,1.3-0.2,1.9-0.6c0.4-0.3,0.8-0.7,1.2-1.1c0.3-0.4,0.5-0.6,0.6-0.6c0.1,0,0.2,0.1,0.2,0.2c0.1,0.2,0.5,0.9,1,2
						C340,151.6,340.3,152.3,340.3,152.4z"/>
					<path class="st9" d="M353.5,141.5c0,0.8,0,1.9-0.1,3.4c-0.1,1.5-0.1,2.7-0.1,3.4c0,0.7,0,1.9,0.1,3.3c0,1.5,0.1,2.6,0.1,3.3
						c0,0.3-0.1,0.5-0.3,0.5c-0.3,0.1-0.9,0.2-1.9,0.2c-0.9,0-1.5,0-1.8,0c-0.1,0-0.2-0.1-0.3-0.4c0-0.3,0-0.6-0.1-0.9
						c0-0.5-0.1-0.7-0.2-0.7c0.1,0-0.3,0.4-1.2,1.1c-0.9,0.7-1.7,1.1-2.5,1.1c-2.1,0.1-3.3-1.2-3.7-3.7c-0.2-1.2-0.3-2.9-0.3-5.1
						c0-2.4,0.1-4.3,0.4-5.7c0.1-0.4,0.2-0.7,0.5-0.6c0.4,0,0.9,0,1.6,0c0.7,0,1.3,0,1.6,0c0.2,0,0.4,0.1,0.4,0.4c0,0.1,0,0.2,0,0.3
						c-0.2,1.4-0.2,2.9-0.2,4.4c0,1.8,0,3.1,0.1,3.8c0.1,1.2,0.7,1.7,1.5,1.7c0.3,0,0.7-0.2,1.1-0.6c0.4-0.4,0.6-0.8,0.6-1.3
						c0-0.4,0-3,0-7.9c0-0.3,0-0.5,0.1-0.6c0-0.1,0.2-0.2,0.4-0.2c0.4,0,1,0,1.7,0c0.8,0,1.4,0,1.7,0c0.2,0,0.4,0.1,0.4,0.2
						C353.5,141.2,353.5,141.4,353.5,141.5z"/>
					<path class="st9" d="M363.3,145.9c0,0.4-0.2,0.6-0.5,0.6c-0.1,0-0.4,0-0.7,0c-0.3,0-0.5,0-0.6,0c-0.7,0-1.1,0.1-1.3,0.4
						c-0.2,0.3-0.4,0.8-0.4,1.6c0,0.4,0,1.1,0,2c0,0.9,0,1.6,0,2c0,0.3,0,0.7,0,1.3c0,0.6,0,1,0,1.3c0,0.2-0.1,0.4-0.4,0.4
						c-0.4,0.1-1,0.1-1.7,0.1c-0.7,0-1.3,0-1.8,0c-0.3,0-0.4-0.2-0.4-0.5c0-0.8,0-2.1,0-3.7c0-1.6,0-2.9,0-3.7c0-2.4-0.2-4.4-0.5-6
						c0-0.1,0-0.2,0-0.2c0-0.2,0.1-0.3,0.2-0.3c0.4-0.1,1.1-0.2,1.9-0.3c1.2-0.3,1.9-0.5,1.9-0.5c0.1,0,0.2,0.3,0.3,1
						c0,0.6,0.1,1,0.2,1c-0.1,0,0.2-0.3,1-0.8c0.8-0.5,1.5-0.8,2.2-0.8c0.4,0,0.7,0.1,0.7,0.4c0,0.3,0,0.7-0.1,1.2
						c0,0.6-0.1,1-0.1,1.2c0,0.3,0,0.7,0,1.2C363.3,145.3,363.3,145.7,363.3,145.9z"/>
					<path class="st9" d="M369,148.3c0,0.7,0,1.8,0,3.3c0,1.4,0,2.5,0,3.2c0,0.2-0.1,0.3-0.3,0.4c-0.3,0.1-0.9,0.1-1.8,0.1
						c-0.9,0-1.5,0-1.8,0c-0.2,0-0.3-0.1-0.3-0.2c0,0,0-0.2,0-0.5c0-0.7,0-1.7,0-3.1c0-1.4,0-2.4,0-3.2c0-2.9-0.1-5.1-0.3-6.8
						c0-0.2,0-0.3,0-0.3c0-0.2,0.1-0.3,0.3-0.3c0.2,0,0.6,0,1,0.1c0.5,0.1,0.8,0.1,1,0.1c0.2,0,0.6,0,1-0.1c0.5,0,0.8-0.1,1-0.1
						c0.2,0,0.3,0.1,0.3,0.3c0,0,0,0.1,0,0.3C369.1,143.5,369,145.8,369,148.3z M369.3,137.2c0,1.7-0.8,2.6-2.3,2.6
						c-0.7,0-1.2-0.2-1.6-0.7c-0.5-0.5-0.7-1.1-0.7-2c0-0.8,0.2-1.4,0.7-1.9c0.4-0.5,1-0.7,1.6-0.7c0.6,0,1.1,0.3,1.6,0.7
						C369.1,135.8,369.3,136.4,369.3,137.2z"/>
					<path class="st9" d="M382.6,147.7c0,2.2-0.5,4-1.6,5.4c-1.1,1.4-2.5,2.1-4.3,2.2c-1.7,0-3.1-0.6-4.3-2
						c-1.1-1.4-1.7-3.1-1.7-5.3c0-2.3,0.5-4.2,1.6-5.6c1.1-1.4,2.5-2.1,4.3-2.1c1.8,0,3.2,0.7,4.3,2.1
						C382.1,143.7,382.6,145.5,382.6,147.7z M378.7,147.7c0-0.8-0.2-1.4-0.6-2c-0.4-0.6-0.9-0.9-1.5-0.9c-0.6,0-1.1,0.3-1.5,0.9
						c-0.4,0.6-0.6,1.3-0.6,2c0,0.8,0.2,1.5,0.6,2c0.4,0.6,0.9,0.9,1.5,0.9c0.6,0,1.1-0.3,1.5-0.9
						C378.6,149.2,378.7,148.5,378.7,147.7z"/>
					<path class="st9" d="M396.1,141.7c0,0.7,0,1.7-0.1,3.1c-0.1,1.4-0.1,2.4-0.1,3.1c0,0.7,0,1.7,0.1,3c0,1.3,0.1,2.3,0.1,3
						c0,0.3-0.1,0.4-0.3,0.5c-0.3,0.1-0.9,0.2-1.9,0.2c-0.9,0-1.5,0-1.8,0c-0.1,0-0.2-0.1-0.3-0.3c0-0.3,0-0.6-0.1-0.8
						c0-0.4-0.1-0.6-0.2-0.6c0.1,0-0.3,0.3-1.2,1c-0.9,0.7-1.7,1-2.5,1c-2.1,0.1-3.3-1.1-3.7-3.3c-0.2-1.1-0.3-2.6-0.3-4.6
						c0-2.2,0.1-3.9,0.4-5.2c0.1-0.4,0.2-0.6,0.5-0.6c0.4,0,0.9,0,1.6,0c0.7,0,1.3,0,1.6,0c0.2,0,0.4,0.1,0.4,0.4c0,0.1,0,0.2,0,0.3
						c-0.2,1.3-0.2,2.6-0.2,3.9c0,1.7,0,2.8,0.1,3.4c0.1,1,0.7,1.6,1.5,1.5c0.3,0,0.7-0.2,1.1-0.6c0.4-0.4,0.6-0.8,0.6-1.2
						c0-0.3,0-2.7,0-7.1c0-0.3,0-0.5,0.1-0.6c0-0.1,0.2-0.1,0.4-0.1c0.4,0,1,0,1.7,0c0.8,0,1.4,0,1.7,0c0.2,0,0.4,0.1,0.4,0.2
						C396.1,141.4,396.1,141.5,396.1,141.7z"/>
					<path class="st9" d="M405,143.1c0,0.1-0.1,0.2-0.2,0.4c-0.2-0.1-0.4-0.1-0.7-0.1c-0.5,0-0.9,0.1-1.2,0.4
						c-0.4,0.3-0.6,0.7-0.6,1.2c0,0.3,0.2,0.7,0.6,1.2c0.6,0.7,1,1.2,1.1,1.5c0.4,0.7,0.6,1.4,0.6,2.2c0,0.5-0.1,1-0.2,1.5
						c-0.2,0.6-0.4,1-0.7,1.3c-0.6,0.6-1.3,1.1-2,1.5c-0.8,0.4-1.6,0.7-2.3,0.7c-0.2,0-0.5-0.5-1.1-1.5c-0.5-1-0.8-1.6-0.8-1.8
						c0-0.1,0-0.1,0.1-0.2c0.5-0.1,1.1-0.3,1.7-0.4c0.7-0.3,1-0.7,1-1.3c0-0.4-0.2-0.9-0.6-1.4c-0.7-0.9-1.1-1.4-1.1-1.5
						c-0.4-0.7-0.6-1.4-0.6-2.1c0-1.4,0.6-2.6,1.8-3.5c1.1-0.9,2.2-1.3,3.4-1.3c0.1,0,0.4,0.5,0.9,1.5
						C404.7,142.4,405,142.9,405,143.1z"/>
				</g>
				<polygon class="st10" points="431.4,161.3 444.7,145.5 431.4,129.9 444.7,145.5 				"/>
			</g>
		</g>
		<g>
			<linearGradient id="SVGID_7_" gradientUnits="userSpaceOnUse" x1="251.4586" y1="296.1959" x2="281.5762" y2="296.1959">
				<stop  offset="0" style="stop-color:#FFFFFF"/>
				<stop  offset="0" style="stop-color:#D5D6D7"/>
				<stop  offset="0" style="stop-color:#ACAEAF"/>
				<stop  offset="0" style="stop-color:#86898B"/>
				<stop  offset="0" style="stop-color:#66696C"/>
				<stop  offset="0" style="stop-color:#4A4E52"/>
				<stop  offset="0" style="stop-color:#34393D"/>
				<stop  offset="0" style="stop-color:#23282D"/>
				<stop  offset="0" style="stop-color:#181C21"/>
				<stop  offset="0" style="stop-color:#11161B"/>
				<stop  offset="0" style="stop-color:#0F1419"/>
				<stop  offset="0.3547" style="stop-color:#64696E"/>
				<stop  offset="0.6502" style="stop-color:#373C41"/>
				<stop  offset="0.8079" style="stop-color:#5A5F64"/>
				<stop  offset="0.8895" style="stop-color:#494E53"/>
				<stop  offset="1" style="stop-color:#373C41"/>
			</linearGradient>
			<path class="st13" d="M281.6,533.3c0,0.5-0.4,1.4-0.8,1.8c-8.1,7.2-20.4,7.2-28.4,0c-0.5-0.4-0.8-1.3-0.8-1.8
				c0-158.9,0-317.9,0-476.8c0-0.5,0.4-1.2,0.9-1.5c8.9-4.2,19.3-4.2,28.2,0c0.5,0.2,0.9,0.9,0.9,1.5
				C281.6,215.4,281.6,374.4,281.6,533.3z"/>
		</g>
		
			<radialGradient id="SVGID_8_" cx="223.5948" cy="17.8838" r="13.31" gradientTransform="matrix(0.8297 0 0 0.7594 77.9927 30.0339)" gradientUnits="userSpaceOnUse">
			<stop  offset="0" style="stop-color:#FFFFFF"/>
			<stop  offset="0" style="stop-color:#F5F5F5"/>
			<stop  offset="0" style="stop-color:#EAEAEA"/>
			<stop  offset="0" style="stop-color:#E3E3E3"/>
			<stop  offset="0" style="stop-color:#E1E1E1"/>
			<stop  offset="1" style="stop-color:#5F5F5F"/>
		</radialGradient>
		<ellipse class="st14" cx="266.5" cy="47.9" rx="11" ry="10.1"/>
		
			<radialGradient id="SVGID_9_" cx="220.9548" cy="30.0811" r="17.338" gradientTransform="matrix(0.8297 0 0 0.7594 77.9927 30.0339)" gradientUnits="userSpaceOnUse">
			<stop  offset="0" style="stop-color:#FFFFFF"/>
			<stop  offset="0" style="stop-color:#F5F5F5"/>
			<stop  offset="0" style="stop-color:#EAEAEA"/>
			<stop  offset="0" style="stop-color:#E3E3E3"/>
			<stop  offset="0" style="stop-color:#E1E1E1"/>
			<stop  offset="1" style="stop-color:#5F5F5F"/>
		</radialGradient>
		<path class="st15" d="M266.5,48.1c-10.5,0-19.1,3.3-19.1,7.4v9.2h38.1v-9.2C285.6,51.4,277.1,48.1,266.5,48.1z"/>
		<g>
			<g>
				<linearGradient id="SVGID_10_" gradientUnits="userSpaceOnUse" x1="249.4654" y1="348.6843" x2="283.5986" y2="348.6843">
					<stop  offset="0" style="stop-color:#FFFFFF"/>
					<stop  offset="0" style="stop-color:#D5D6D7"/>
					<stop  offset="0" style="stop-color:#ACAEAF"/>
					<stop  offset="0" style="stop-color:#86898B"/>
					<stop  offset="0" style="stop-color:#66696C"/>
					<stop  offset="0" style="stop-color:#4A4E52"/>
					<stop  offset="0" style="stop-color:#34393D"/>
					<stop  offset="0" style="stop-color:#23282D"/>
					<stop  offset="0" style="stop-color:#181C21"/>
					<stop  offset="0" style="stop-color:#11161B"/>
					<stop  offset="0" style="stop-color:#0F1419"/>
					<stop  offset="0.3547" style="stop-color:#64696E"/>
					<stop  offset="0.6502" style="stop-color:#373C41"/>
					<stop  offset="0.8079" style="stop-color:#5A5F64"/>
					<stop  offset="0.8895" style="stop-color:#494E53"/>
					<stop  offset="1" style="stop-color:#373C41"/>
				</linearGradient>
				<rect x="249.5" y="300.9" class="st16" width="34.1" height="95.6"/>
				<rect x="249.5" y="300.9" class="st17" width="34.1" height="95.6"/>
			</g>
			<g>
				<linearGradient id="SVGID_11_" gradientUnits="userSpaceOnUse" x1="249.4654" y1="247.6072" x2="283.5986" y2="247.6072">
					<stop  offset="0" style="stop-color:#FFFFFF"/>
					<stop  offset="0" style="stop-color:#D5D6D7"/>
					<stop  offset="0" style="stop-color:#ACAEAF"/>
					<stop  offset="0" style="stop-color:#86898B"/>
					<stop  offset="0" style="stop-color:#66696C"/>
					<stop  offset="0" style="stop-color:#4A4E52"/>
					<stop  offset="0" style="stop-color:#34393D"/>
					<stop  offset="0" style="stop-color:#23282D"/>
					<stop  offset="0" style="stop-color:#181C21"/>
					<stop  offset="0" style="stop-color:#11161B"/>
					<stop  offset="0" style="stop-color:#0F1419"/>
					<stop  offset="0.3547" style="stop-color:#64696E"/>
					<stop  offset="0.6502" style="stop-color:#373C41"/>
					<stop  offset="0.8079" style="stop-color:#5A5F64"/>
					<stop  offset="0.8895" style="stop-color:#494E53"/>
					<stop  offset="1" style="stop-color:#373C41"/>
				</linearGradient>
				<rect x="249.5" y="199.8" class="st18" width="34.1" height="95.6"/>
				<rect x="249.5" y="199.8" class="st17" width="34.1" height="95.6"/>
			</g>
			<g>
				<linearGradient id="SVGID_12_" gradientUnits="userSpaceOnUse" x1="249.4654" y1="146.53" x2="283.5986" y2="146.53">
					<stop  offset="0" style="stop-color:#FFFFFF"/>
					<stop  offset="0" style="stop-color:#D5D6D7"/>
					<stop  offset="0" style="stop-color:#ACAEAF"/>
					<stop  offset="0" style="stop-color:#86898B"/>
					<stop  offset="0" style="stop-color:#66696C"/>
					<stop  offset="0" style="stop-color:#4A4E52"/>
					<stop  offset="0" style="stop-color:#34393D"/>
					<stop  offset="0" style="stop-color:#23282D"/>
					<stop  offset="0" style="stop-color:#181C21"/>
					<stop  offset="0" style="stop-color:#11161B"/>
					<stop  offset="0" style="stop-color:#0F1419"/>
					<stop  offset="0.3547" style="stop-color:#64696E"/>
					<stop  offset="0.6502" style="stop-color:#373C41"/>
					<stop  offset="0.8079" style="stop-color:#5A5F64"/>
					<stop  offset="0.8895" style="stop-color:#494E53"/>
					<stop  offset="1" style="stop-color:#373C41"/>
				</linearGradient>
				<rect x="249.5" y="98.7" class="st19" width="34.1" height="95.6"/>
				<rect x="249.5" y="98.7" class="st17" width="34.1" height="95.6"/>
			</g>
		</g>
		<linearGradient id="SVGID_13_" gradientUnits="userSpaceOnUse" x1="49.6858" y1="156.944" x2="49.6858" y2="156.944">
			<stop  offset="0" style="stop-color:#FFFFFF"/>
			<stop  offset="0" style="stop-color:#DEDADB"/>
			<stop  offset="0" style="stop-color:#B9B1B2"/>
			<stop  offset="0" style="stop-color:#988B8E"/>
			<stop  offset="0" style="stop-color:#7B6B6E"/>
			<stop  offset="0" style="stop-color:#634F53"/>
			<stop  offset="0" style="stop-color:#4F393E"/>
			<stop  offset="0" style="stop-color:#40282D"/>
			<stop  offset="0" style="stop-color:#361D21"/>
			<stop  offset="0" style="stop-color:#30161B"/>
			<stop  offset="0" style="stop-color:#2E1419"/>
			<stop  offset="5.911330e-002" style="stop-color:#4C4F51"/>
			<stop  offset="0.5074" style="stop-color:#4C4F51"/>
		</linearGradient>
		<path class="st20" d="M49.7,156.9"/>
		<g>
			<g>
				<g id="signPlate_20_">
					<g id="Plate_29_">
						<g class="st2">
							<path d="M67.9,286c2.6,3,6,4.8,9.6,4.9l65.9,2.1l105.6,3.4v-45.9v-45.9l-105.6,4.3l-65.9,2.7c-3.6,0.1-7.1,2-9.6,5
								l-25.3,29.4c-2.7,3-2.7,7.9,0,10.9L67.9,286z"/>
							<path d="M245.6,209.6v40.8v40.8l-102.2-2.9l-65.9-1.8c-2.7-0.1-5.4-1.4-7.3-3.7l-25.3-29.2c-0.6-0.6-0.9-1.5-0.9-2.4
								s0.3-1.7,0.9-2.4l25.3-29.4c1.9-2.3,4.6-3.7,7.3-3.8l65.9-2.4L245.6,209.6 M249,204.5l-105.6,4.3l-65.9,2.7
								c-3.6,0.1-7.1,2-9.6,5l-25.3,29.4c-2.7,3-2.7,7.9,0,10.9L67.9,286c2.6,3,6,4.8,9.6,4.9l65.9,2.1l105.6,3.4v-45.9V204.5
								L249,204.5z"/>
							<path d="M247,208.6v85.8l-169.4-5.1c-3.1-0.1-6.1-1.6-8.3-4.2L44,255.8c-0.9-1-1.3-2.2-1.3-3.6c0-1.3,0.5-2.6,1.3-3.6
								l25.3-29.4c2.2-2.6,5.2-4.1,8.3-4.3L247,208.6 M248.3,206.5l-170.8,6.7c-3.4,0.1-6.8,1.9-9.2,4.7l-25.3,29.4
								c-1.1,1.3-1.8,3-1.8,4.8c0,1.8,0.6,3.5,1.8,4.8l25.3,29.2c2.4,2.9,5.8,4.6,9.2,4.7l170.8,5.5V206.5L248.3,206.5z"/>
							<path d="M247,207.6v85.7l-169.4-5c-3.1-0.1-6.1-1.6-8.3-4.2L44,254.9c-0.9-1-1.3-2.2-1.3-3.6c0-1.3,0.5-2.6,1.3-3.6
								l25.3-29.4c2.2-2.6,5.2-4.1,8.3-4.3L247,207.6 M248.3,205.5l-170.8,6.8c-3.4,0.1-6.8,1.9-9.2,4.8l-25.3,29.4
								c-1.1,1.3-1.8,3-1.8,4.8c0,1.8,0.6,3.5,1.8,4.8l25.3,29.2c2.4,2.9,5.8,4.6,9.2,4.7l170.8,5.3V205.5L248.3,205.5z"/>
							<path d="M248.3,205.5v44.9v44.9l-104.9-3.3L77.5,290c-3.4-0.1-6.8-1.8-9.2-4.7l-25.3-29.2c-1.1-1.3-1.8-3-1.8-4.8
								c0-1.8,0.6-3.5,1.8-4.8l25.3-29.4c2.4-2.9,5.8-4.6,9.2-4.8l65.9-2.6L248.3,205.5 M249,204.5l-105.6,4.3l-65.9,2.7
								c-3.6,0.1-7.1,2-9.6,5l-25.3,29.4c-2.7,3-2.7,7.9,0,10.9L67.9,286c2.6,3,6,4.8,9.6,4.9l65.9,2.1l105.6,3.4v-45.9V204.5
								L249,204.5z"/>
						</g>
						<g>
							
								<linearGradient id="SVGID_14_" gradientUnits="userSpaceOnUse" x1="608.083" y1="249.4449" x2="816.4425" y2="249.4449" gradientTransform="matrix(-1 0 0 1 857.071 0)">
								<stop  offset="0" style="stop-color:#FFFFFF"/>
								<stop  offset="0" style="stop-color:#DEDADB"/>
								<stop  offset="0" style="stop-color:#B9B1B2"/>
								<stop  offset="0" style="stop-color:#988B8E"/>
								<stop  offset="0" style="stop-color:#7B6B6E"/>
								<stop  offset="0" style="stop-color:#634F53"/>
								<stop  offset="0" style="stop-color:#4F393E"/>
								<stop  offset="0" style="stop-color:#40282D"/>
								<stop  offset="0" style="stop-color:#361D21"/>
								<stop  offset="0" style="stop-color:#30161B"/>
								<stop  offset="0" style="stop-color:#2E1419"/>
								<stop  offset="5.911330e-002" style="stop-color:#4C4F51"/>
								<stop  offset="0.5074" style="stop-color:#4C4F51"/>
							</linearGradient>
							<path class="st21" d="M67.9,285.1c2.6,3,6,4.8,9.6,4.9l65.9,2.1l105.6,3.3v-45.9v-45.9l-105.6,4.4l-65.9,2.7
								c-3.6,0.1-7.1,2-9.6,5l-25.3,29.4c-2.7,3-2.7,7.9,0,10.9L67.9,285.1z"/>
							<g class="st4">
								<path class="st5" d="M245.6,208.6v40.8v40.8l-102.2-2.8l-65.9-1.8c-2.7-0.1-5.4-1.4-7.3-3.7l-25.3-29.2
									c-0.6-0.6-0.9-1.5-0.9-2.4s0.3-1.7,0.9-2.4l25.3-29.4c1.9-2.3,4.6-3.7,7.3-3.8l65.9-2.5L245.6,208.6 M249,203.5l-105.6,4.4
									l-65.9,2.7c-3.6,0.1-7.1,2-9.6,5l-25.3,29.4c-2.7,3-2.7,7.9,0,10.9l25.3,29.2c2.6,3,6,4.8,9.6,4.9l65.9,2.1l105.6,3.3v-45.9
									V203.5L249,203.5z"/>
							</g>
							<g>
								<g class="st2">
									<path d="M247,207.6v85.7l-169.4-5c-3.1-0.1-6.1-1.6-8.3-4.2L44,254.9c-0.9-1-1.3-2.2-1.3-3.6c0-1.3,0.5-2.6,1.3-3.6
										l25.3-29.4c2.2-2.6,5.2-4.1,8.3-4.3L247,207.6 M248.3,205.5l-170.8,6.8c-3.4,0.1-6.8,1.9-9.2,4.8l-25.3,29.4
										c-1.1,1.3-1.8,3-1.8,4.8c0,1.8,0.6,3.5,1.8,4.8l25.3,29.2c2.4,2.9,5.8,4.6,9.2,4.7l170.8,5.3V205.5L248.3,205.5z"/>
								</g>
								<linearGradient id="SVGID_15_" gradientUnits="userSpaceOnUse" x1="248.3096" y1="249.4486" x2="41.3069" y2="249.4486">
									<stop  offset="0" style="stop-color:#FFFFFF"/>
									<stop  offset="0" style="stop-color:#F4F4F4"/>
									<stop  offset="0" style="stop-color:#DEDEDE"/>
									<stop  offset="0" style="stop-color:#CDCDCD"/>
									<stop  offset="0" style="stop-color:#C2C2C2"/>
									<stop  offset="0" style="stop-color:#BBBBBB"/>
									<stop  offset="0" style="stop-color:#B9B9B9"/>
									<stop  offset="5.911330e-002" style="stop-color:#E1E1E1"/>
									<stop  offset="1" style="stop-color:#E1E1E1"/>
								</linearGradient>
								<path class="st22" d="M247,206.6v85.8l-169.4-4.9c-3.1-0.1-6.1-1.6-8.3-4.2L44,254.1c-0.9-1-1.3-2.2-1.3-3.6
									c0-1.3,0.5-2.6,1.3-3.6l25.3-29.4c2.2-2.6,5.2-4.1,8.3-4.3L247,206.6 M248.3,204.5l-170.8,6.9c-3.4,0.1-6.8,1.9-9.2,4.8
									l-25.3,29.4c-1.1,1.3-1.8,3-1.8,4.8c0,1.8,0.6,3.5,1.8,4.8l25.3,29.2c2.4,2.9,5.8,4.6,9.2,4.7l170.8,5.2V204.5L248.3,204.5z
									"/>
							</g>
							<path class="st7" d="M248.3,204.5v44.9v44.9l-104.9-3.2l-65.9-2c-3.4-0.1-6.8-1.8-9.2-4.7l-25.3-29.2c-1.1-1.3-1.8-3-1.8-4.8
								c0-1.8,0.6-3.5,1.8-4.8l25.3-29.4c2.4-2.9,5.8-4.6,9.2-4.8l65.9-2.7L248.3,204.5 M249,203.5l-105.6,4.4l-65.9,2.7
								c-3.6,0.1-7.1,2-9.6,5l-25.3,29.4c-2.7,3-2.7,7.9,0,10.9l25.3,29.2c2.6,3,6,4.8,9.6,4.9l65.9,2.1l105.6,3.3v-45.9V203.5
								L249,203.5z"/>
						</g>
					</g>
					<g>
						<polygon class="st8" points="228.6,294.8 242.2,295.2 242.2,203.8 228.6,204.3 						"/>
					</g>
					<polygon class="st10" points="81.4,267.8 66.4,248.8 81.4,229.6 66.4,248.8 					"/>
				</g>
				<g>
					<path class="st9" d="M132.3,254.7c0,0.2-0.1,0.4-0.3,0.7c-1.6,2.4-3.8,3.6-6.5,3.6c-2.8,0-5-1.2-6.7-3.4
						c-1.7-2.2-2.5-5-2.5-8.4c0-3.3,0.8-6,2.5-8.3c1.7-2.4,3.9-3.6,6.5-3.7c2.9-0.1,5.1,1,6.8,3.1c0.2,0.2,0.3,0.4,0.3,0.6
						c0,0.2-0.3,1-0.9,2.3c-0.6,1.3-1,2.1-1.2,2.2c-0.1,0.1-0.2,0.1-0.3,0.1c0,0-0.3-0.2-0.7-0.6c-0.5-0.5-0.9-0.9-1.4-1.2
						c-0.7-0.4-1.4-0.6-2.2-0.6c-1.3,0-2.3,0.6-3.1,1.8c-0.7,1.1-1.1,2.5-1.1,4.1c0,1.6,0.4,3,1.1,4.1c0.8,1.2,1.8,1.8,3.1,1.8
						c0.8,0,1.5-0.2,2.2-0.6c0.5-0.3,0.9-0.7,1.4-1.1c0.4-0.4,0.6-0.6,0.7-0.6c0.1,0,0.2,0.1,0.3,0.2c0.1,0.2,0.5,0.9,1.2,2
						C132,253.9,132.3,254.6,132.3,254.7z"/>
					<path class="st9" d="M142.5,248.2c0,0.4-0.2,0.6-0.6,0.6c-0.2,0-0.4,0-0.7,0c-0.3,0-0.6,0-0.7,0c-0.7,0-1.2,0.1-1.5,0.4
						c-0.3,0.3-0.4,0.9-0.4,1.7c0,0.5,0,1.2,0,2.1c0,1,0,1.7,0,2.1c0,0.3,0,0.8,0.1,1.4c0,0.6,0.1,1.1,0.1,1.4
						c0,0.3-0.1,0.4-0.4,0.4c-0.4,0-1.1,0.1-2,0.1c-0.8,0-1.5,0-2-0.1c-0.3,0-0.4-0.2-0.4-0.5c0-0.9,0-2.2,0-3.9c0-1.7,0-3,0-3.9
						c0-2.6-0.2-4.7-0.6-6.3c0-0.1,0-0.2,0-0.2c0-0.2,0.1-0.3,0.2-0.3c0.5-0.1,1.2-0.2,2.1-0.4c1.4-0.4,2.1-0.5,2.2-0.5
						c0.2,0,0.3,0.3,0.3,1c0,0.7,0.1,1,0.2,1c-0.1,0,0.2-0.3,1.1-0.9c0.9-0.6,1.7-0.9,2.5-0.9c0.5,0,0.7,0.1,0.7,0.4
						c0,0.3,0,0.8-0.1,1.3c-0.1,0.6-0.1,1.1-0.1,1.3c0,0.3,0,0.7,0,1.3C142.5,247.5,142.5,248,142.5,248.2z"/>
					<path class="st9" d="M157.4,250.1c0,0.9,0,2.1,0.1,3.8c0.1,1.7,0.1,3,0.1,3.8c0,0.4-0.2,0.7-0.5,0.7c-1.1,0.1-2.4,0.1-3.8,0.1
						c-0.2,0-0.3-0.3-0.3-1c-0.1-0.6-0.1-1-0.2-1c-0.1,0-0.2,0.1-0.3,0.3c-1,1.2-2.1,1.9-3.2,1.9c-1.7,0-3.2-0.9-4.3-2.5
						c-1.1-1.6-1.6-3.5-1.6-5.7c0-2.5,0.6-4.6,1.7-6.1c1.2-1.6,2.7-2.4,4.7-2.5c1.4,0,2.5,0.6,3.3,1.8c0,0.1,0.1,0.1,0.1,0.1
						c0.1,0,0.2-0.3,0.3-0.8c0.1-0.5,0.2-0.8,0.4-0.8c0.3,0,1,0.1,1.9,0.3c0.9,0.2,1.5,0.4,1.9,0.5c0.1,0.1,0.2,0.2,0.2,0.3
						c0,0,0,0.2,0,0.4C157.6,245.8,157.4,247.9,157.4,250.1z M153.1,250.2c0-0.9-0.2-1.7-0.7-2.3c-0.5-0.6-1.1-0.9-1.9-0.9
						c-0.8,0-1.4,0.3-1.8,0.9c-0.5,0.6-0.7,1.4-0.7,2.3c0,0.9,0.2,1.7,0.7,2.3c0.5,0.6,1.1,1,1.8,1c0.8,0,1.4-0.3,1.8-0.9
						C152.9,252,153.1,251.2,153.1,250.2z"/>
					<path class="st9" d="M174.5,250.2c0,2.4-0.5,4.3-1.6,5.9c-1.1,1.7-2.6,2.5-4.4,2.5c-1.3,0-2.4-0.5-3.2-1.4
						c-0.1-0.1-0.1-0.1-0.2-0.1c-0.1,0-0.2,0.2-0.2,0.6c-0.1,0.4-0.2,0.6-0.3,0.7c-0.2,0.1-1.4,0.1-3.8,0.1c-0.6,0-0.8-0.1-0.8-0.4
						c0,0,0-0.1,0-0.3c0.2-1.8,0.3-5.1,0.3-10.1c0-4.8-0.1-8.9-0.4-12.4l0-0.2c0-0.2,0.1-0.3,0.4-0.3c0.2,0,1-0.1,2.3-0.3
						c0.9-0.1,1.7-0.2,2.3-0.2c0.2,0,0.3,0.2,0.3,0.5c0,0.4,0,1-0.1,1.7c-0.1,0.9-0.1,1.5-0.1,1.7c0,1.1-0.1,2.6-0.1,4.5
						c0,0.3,0.1,0.5,0.2,0.5c0.1,0,0.1,0,0.2-0.1c0.8-1.1,1.8-1.6,3.1-1.6c1.9,0,3.5,0.8,4.6,2.5C174,245.6,174.5,247.7,174.5,250.2
						z M169.7,250.1c0-0.9-0.2-1.7-0.7-2.4c-0.5-0.6-1-1-1.8-1c-0.7,0-1.3,0.3-1.8,1c-0.4,0.6-0.6,1.4-0.6,2.4c0,1,0.2,1.8,0.6,2.4
						c0.4,0.6,1,1,1.8,1c0.8,0,1.4-0.3,1.8-1C169.5,251.8,169.7,251,169.7,250.1z"/>
				</g>
			</g>
		</g>
	</g>
</g>
<g id="Plate">
</g>
<g id="Layer_2">
	<g>
		
			<radialGradient id="SVGID_16_" cx="419.2776" cy="540.8802" r="5.9768" gradientTransform="matrix(-1.0847 0 0 1 777.1096 0)" gradientUnits="userSpaceOnUse">
			<stop  offset="4.742149e-002" style="stop-color:#FEF6F5"/>
			<stop  offset="6.249406e-002" style="stop-color:#FEF6F5"/>
			<stop  offset="7.980676e-002" style="stop-color:#FEF6F5"/>
			<stop  offset="9.143373e-002" style="stop-color:#F9DCD5"/>
			<stop  offset="0.1094" style="stop-color:#F3B9AB"/>
			<stop  offset="0.1284" style="stop-color:#EE9B87"/>
			<stop  offset="0.1482" style="stop-color:#EA826A"/>
			<stop  offset="0.169" style="stop-color:#E66F53"/>
			<stop  offset="0.1915" style="stop-color:#E46143"/>
			<stop  offset="0.2167" style="stop-color:#E25A39"/>
			<stop  offset="0.2502" style="stop-color:#E25736"/>
			<stop  offset="0.2603" style="stop-color:#E25433"/>
			<stop  offset="0.3353" style="stop-color:#DF4521"/>
			<stop  offset="0.4242" style="stop-color:#DD3A14"/>
			<stop  offset="0.5402" style="stop-color:#DC340C"/>
			<stop  offset="0.7824" style="stop-color:#DC320A"/>
			<stop  offset="0.8132" style="stop-color:#DC320A"/>
			<stop  offset="1" style="stop-color:#DC320A"/>
		</radialGradient>
		<path class="st23" d="M316.4,535.4c0,0,6.4,0.8,8.3,2.1c1.9,1.3,4.6,8.9,4.6,8.9s-6.9-7.8-7.4-7.2c-0.5,0.6-6.6-0.8-6.6-0.8"/>
		
			<radialGradient id="SVGID_17_" cx="418.9983" cy="544.0538" r="5.9618" gradientTransform="matrix(-1.0847 0 0 1 777.1096 0)" gradientUnits="userSpaceOnUse">
			<stop  offset="4.742149e-002" style="stop-color:#FEF6F5"/>
			<stop  offset="6.249406e-002" style="stop-color:#FEF6F5"/>
			<stop  offset="7.980676e-002" style="stop-color:#FEF6F5"/>
			<stop  offset="9.143373e-002" style="stop-color:#F9DCD5"/>
			<stop  offset="0.1094" style="stop-color:#F3B9AB"/>
			<stop  offset="0.1284" style="stop-color:#EE9B87"/>
			<stop  offset="0.1482" style="stop-color:#EA826A"/>
			<stop  offset="0.169" style="stop-color:#E66F53"/>
			<stop  offset="0.1915" style="stop-color:#E46143"/>
			<stop  offset="0.2167" style="stop-color:#E25A39"/>
			<stop  offset="0.2502" style="stop-color:#E25736"/>
			<stop  offset="0.2603" style="stop-color:#E25433"/>
			<stop  offset="0.3353" style="stop-color:#DF4521"/>
			<stop  offset="0.4242" style="stop-color:#DD3A14"/>
			<stop  offset="0.5402" style="stop-color:#DC340C"/>
			<stop  offset="0.7824" style="stop-color:#DC320A"/>
			<stop  offset="0.8132" style="stop-color:#DC320A"/>
			<stop  offset="1" style="stop-color:#DC320A"/>
		</radialGradient>
		<path class="st24" d="M316.8,538.6c0,0,6.4,0.8,8.3,2.1c1.9,1.3,4.4,8.8,4.4,8.8s-6.8-7.8-7.3-7.2c-0.5,0.6-6.6-0.9-6.6-0.9"/>
		
			<radialGradient id="SVGID_18_" cx="421.1591" cy="548.3025" r="6.5277" gradientTransform="matrix(-1.0847 0 0 1 777.1096 0)" gradientUnits="userSpaceOnUse">
			<stop  offset="4.742149e-002" style="stop-color:#FEF6F5"/>
			<stop  offset="6.249406e-002" style="stop-color:#FEF6F5"/>
			<stop  offset="7.980676e-002" style="stop-color:#FEF6F5"/>
			<stop  offset="9.143373e-002" style="stop-color:#F9DCD5"/>
			<stop  offset="0.1094" style="stop-color:#F3B9AB"/>
			<stop  offset="0.1284" style="stop-color:#EE9B87"/>
			<stop  offset="0.1482" style="stop-color:#EA826A"/>
			<stop  offset="0.169" style="stop-color:#E66F53"/>
			<stop  offset="0.1915" style="stop-color:#E46143"/>
			<stop  offset="0.2167" style="stop-color:#E25A39"/>
			<stop  offset="0.2502" style="stop-color:#E25736"/>
			<stop  offset="0.2603" style="stop-color:#E25433"/>
			<stop  offset="0.3353" style="stop-color:#DF4521"/>
			<stop  offset="0.4242" style="stop-color:#DD3A14"/>
			<stop  offset="0.5402" style="stop-color:#DC340C"/>
			<stop  offset="0.7824" style="stop-color:#DC320A"/>
			<stop  offset="0.8132" style="stop-color:#DC320A"/>
			<stop  offset="1" style="stop-color:#DC320A"/>
		</radialGradient>
		<path class="st25" d="M316.9,540.6c0,0,6.1,2.8,7.5,4.7c1.4,1.9,1.4,10.7,1.4,10.7s-4.1-10.3-4.8-9.8s-6.2-2.9-6.2-2.9"/>
		
			<radialGradient id="SVGID_19_" cx="423.3241" cy="551.7523" r="6.5277" gradientTransform="matrix(-1.0847 0 0 1 777.1096 0)" gradientUnits="userSpaceOnUse">
			<stop  offset="4.742149e-002" style="stop-color:#FEF6F5"/>
			<stop  offset="6.249406e-002" style="stop-color:#FEF6F5"/>
			<stop  offset="7.980676e-002" style="stop-color:#FEF6F5"/>
			<stop  offset="9.143373e-002" style="stop-color:#F9DCD5"/>
			<stop  offset="0.1094" style="stop-color:#F3B9AB"/>
			<stop  offset="0.1284" style="stop-color:#EE9B87"/>
			<stop  offset="0.1482" style="stop-color:#EA826A"/>
			<stop  offset="0.169" style="stop-color:#E66F53"/>
			<stop  offset="0.1915" style="stop-color:#E46143"/>
			<stop  offset="0.2167" style="stop-color:#E25A39"/>
			<stop  offset="0.2502" style="stop-color:#E25736"/>
			<stop  offset="0.2603" style="stop-color:#E25433"/>
			<stop  offset="0.3353" style="stop-color:#DF4521"/>
			<stop  offset="0.4242" style="stop-color:#DD3A14"/>
			<stop  offset="0.5402" style="stop-color:#DC340C"/>
			<stop  offset="0.7824" style="stop-color:#DC320A"/>
			<stop  offset="0.8132" style="stop-color:#DC320A"/>
			<stop  offset="1" style="stop-color:#DC320A"/>
		</radialGradient>
		<path class="st26" d="M314.5,544.1c0,0,6.1,2.8,7.5,4.7c1.4,1.9,1.4,10.7,1.4,10.7s-4.1-10.3-4.8-9.8c-0.7,0.5-6.2-2.9-6.2-2.9"/>
		
			<radialGradient id="SVGID_20_" cx="321.3834" cy="483.3747" r="5.9768" gradientTransform="matrix(0.9627 0.2704 -0.2704 0.9627 104.3615 -11.8464)" gradientUnits="userSpaceOnUse">
			<stop  offset="4.742149e-002" style="stop-color:#FEF6F5"/>
			<stop  offset="6.249406e-002" style="stop-color:#FEF6F5"/>
			<stop  offset="7.980676e-002" style="stop-color:#FEF6F5"/>
			<stop  offset="9.143373e-002" style="stop-color:#F9DCD5"/>
			<stop  offset="0.1094" style="stop-color:#F3B9AB"/>
			<stop  offset="0.1284" style="stop-color:#EE9B87"/>
			<stop  offset="0.1482" style="stop-color:#EA826A"/>
			<stop  offset="0.169" style="stop-color:#E66F53"/>
			<stop  offset="0.1915" style="stop-color:#E46143"/>
			<stop  offset="0.2167" style="stop-color:#E25A39"/>
			<stop  offset="0.2502" style="stop-color:#E25736"/>
			<stop  offset="0.2603" style="stop-color:#E25433"/>
			<stop  offset="0.3353" style="stop-color:#DF4521"/>
			<stop  offset="0.4242" style="stop-color:#DD3A14"/>
			<stop  offset="0.5402" style="stop-color:#DC340C"/>
			<stop  offset="0.7824" style="stop-color:#DC320A"/>
			<stop  offset="0.8132" style="stop-color:#DC320A"/>
			<stop  offset="1" style="stop-color:#DC320A"/>
		</radialGradient>
		<path class="st27" d="M289.7,536.6c0,0-5.9-0.8-7.9-0.1s-6.5,7.4-6.5,7.4s8.3-5.8,8.5-5.1c0.3,0.7,6,0.8,6,0.8"/>
		
			<radialGradient id="SVGID_21_" cx="310.0628" cy="509.7699" r="5.9618" gradientTransform="matrix(0.9779 0.2091 -0.2091 0.9779 84.798 -19.6974)" gradientUnits="userSpaceOnUse">
			<stop  offset="4.742149e-002" style="stop-color:#FEF6F5"/>
			<stop  offset="6.249406e-002" style="stop-color:#FEF6F5"/>
			<stop  offset="7.980676e-002" style="stop-color:#FEF6F5"/>
			<stop  offset="9.143373e-002" style="stop-color:#F9DCD5"/>
			<stop  offset="0.1094" style="stop-color:#F3B9AB"/>
			<stop  offset="0.1284" style="stop-color:#EE9B87"/>
			<stop  offset="0.1482" style="stop-color:#EA826A"/>
			<stop  offset="0.169" style="stop-color:#E66F53"/>
			<stop  offset="0.1915" style="stop-color:#E46143"/>
			<stop  offset="0.2167" style="stop-color:#E25A39"/>
			<stop  offset="0.2502" style="stop-color:#E25736"/>
			<stop  offset="0.2603" style="stop-color:#E25433"/>
			<stop  offset="0.3353" style="stop-color:#DF4521"/>
			<stop  offset="0.4242" style="stop-color:#DD3A14"/>
			<stop  offset="0.5402" style="stop-color:#DC340C"/>
			<stop  offset="0.7824" style="stop-color:#DC320A"/>
			<stop  offset="0.8132" style="stop-color:#DC320A"/>
			<stop  offset="1" style="stop-color:#DC320A"/>
		</radialGradient>
		<path class="st28" d="M287.8,539.4c0,0-6-0.4-7.9,0.5c-2,0.9-5.9,7.8-5.9,7.8s7.8-6.3,8.1-5.6c0.3,0.7,6.1,0.4,6.1,0.4"/>
		<radialGradient id="SVGID_22_" cx="282.6551" cy="547.6542" r="6.5277" gradientUnits="userSpaceOnUse">
			<stop  offset="4.742149e-002" style="stop-color:#FEF6F5"/>
			<stop  offset="6.249406e-002" style="stop-color:#FEF6F5"/>
			<stop  offset="7.980676e-002" style="stop-color:#FEF6F5"/>
			<stop  offset="9.143373e-002" style="stop-color:#F9DCD5"/>
			<stop  offset="0.1094" style="stop-color:#F3B9AB"/>
			<stop  offset="0.1284" style="stop-color:#EE9B87"/>
			<stop  offset="0.1482" style="stop-color:#EA826A"/>
			<stop  offset="0.169" style="stop-color:#E66F53"/>
			<stop  offset="0.1915" style="stop-color:#E46143"/>
			<stop  offset="0.2167" style="stop-color:#E25A39"/>
			<stop  offset="0.2502" style="stop-color:#E25736"/>
			<stop  offset="0.2603" style="stop-color:#E25433"/>
			<stop  offset="0.3353" style="stop-color:#DF4521"/>
			<stop  offset="0.4242" style="stop-color:#DD3A14"/>
			<stop  offset="0.5402" style="stop-color:#DC340C"/>
			<stop  offset="0.7824" style="stop-color:#DC320A"/>
			<stop  offset="0.8132" style="stop-color:#DC320A"/>
			<stop  offset="1" style="stop-color:#DC320A"/>
		</radialGradient>
		<path class="st29" d="M285.8,540c0,0-5.6,2.8-6.9,4.7c-1.3,1.9-1.3,10.7-1.3,10.7s3.8-10.3,4.4-9.8c0.7,0.5,5.7-2.9,5.7-2.9"/>
		<radialGradient id="SVGID_23_" cx="285.6096" cy="549.5314" r="6.5277" gradientUnits="userSpaceOnUse">
			<stop  offset="4.742149e-002" style="stop-color:#FEF6F5"/>
			<stop  offset="6.249406e-002" style="stop-color:#FEF6F5"/>
			<stop  offset="7.980676e-002" style="stop-color:#FEF6F5"/>
			<stop  offset="9.143373e-002" style="stop-color:#F9DCD5"/>
			<stop  offset="0.1094" style="stop-color:#F3B9AB"/>
			<stop  offset="0.1284" style="stop-color:#EE9B87"/>
			<stop  offset="0.1482" style="stop-color:#EA826A"/>
			<stop  offset="0.169" style="stop-color:#E66F53"/>
			<stop  offset="0.1915" style="stop-color:#E46143"/>
			<stop  offset="0.2167" style="stop-color:#E25A39"/>
			<stop  offset="0.2502" style="stop-color:#E25736"/>
			<stop  offset="0.2603" style="stop-color:#E25433"/>
			<stop  offset="0.3353" style="stop-color:#DF4521"/>
			<stop  offset="0.4242" style="stop-color:#DD3A14"/>
			<stop  offset="0.5402" style="stop-color:#DC340C"/>
			<stop  offset="0.7824" style="stop-color:#DC320A"/>
			<stop  offset="0.8132" style="stop-color:#DC320A"/>
			<stop  offset="1" style="stop-color:#DC320A"/>
		</radialGradient>
		<path class="st30" d="M288.7,541.8c0,0-5.6,2.8-6.9,4.7c-1.3,1.9-1.3,10.7-1.3,10.7s3.8-10.3,4.4-9.8c0.7,0.5,5.7-2.9,5.7-2.9"/>
		
			<radialGradient id="SVGID_24_" cx="292.745" cy="545.0359" r="6.6014" gradientTransform="matrix(-0.7886 0.6149 -2.4342 -3.1217 1850.3444 2066.4766)" gradientUnits="userSpaceOnUse">
			<stop  offset="4.742149e-002" style="stop-color:#FEF6F5"/>
			<stop  offset="6.249406e-002" style="stop-color:#FEF6F5"/>
			<stop  offset="7.980676e-002" style="stop-color:#FEF6F5"/>
			<stop  offset="9.143373e-002" style="stop-color:#F9DCD5"/>
			<stop  offset="0.1094" style="stop-color:#F3B9AB"/>
			<stop  offset="0.1284" style="stop-color:#EE9B87"/>
			<stop  offset="0.1482" style="stop-color:#EA826A"/>
			<stop  offset="0.169" style="stop-color:#E66F53"/>
			<stop  offset="0.1915" style="stop-color:#E46143"/>
			<stop  offset="0.2167" style="stop-color:#E25A39"/>
			<stop  offset="0.2502" style="stop-color:#E25736"/>
			<stop  offset="0.2603" style="stop-color:#E25433"/>
			<stop  offset="0.3353" style="stop-color:#DF4521"/>
			<stop  offset="0.4242" style="stop-color:#DD3A14"/>
			<stop  offset="0.5402" style="stop-color:#DC340C"/>
			<stop  offset="0.7824" style="stop-color:#DC320A"/>
			<stop  offset="0.8132" style="stop-color:#DC320A"/>
			<stop  offset="1" style="stop-color:#DC320A"/>
		</radialGradient>
		<path class="st31" d="M284.4,540.6c0,0-9.9-10.7-5.9-14.8s0.6,0.9,0.6,0.9s5,11,7.3,11.6"/>
		<path class="st32" d="M279.7,526.8l-1-0.4c-0.6-0.2-0.9-0.9-0.7-1.6l0,0c0.2-0.6,0.9-0.9,1.6-0.7l1,0.4c0.6,0.2,0.9,0.9,0.7,1.6
			l0,0C281,526.7,280.3,527,279.7,526.8z"/>
		
			<radialGradient id="SVGID_25_" cx="159.8326" cy="561.739" r="6.6014" gradientTransform="matrix(0.7342 0.5608 2.2662 -2.8468 -1080.4502 2053.2947)" gradientUnits="userSpaceOnUse">
			<stop  offset="4.742149e-002" style="stop-color:#FEF6F5"/>
			<stop  offset="6.249406e-002" style="stop-color:#FEF6F5"/>
			<stop  offset="7.980676e-002" style="stop-color:#FEF6F5"/>
			<stop  offset="9.143373e-002" style="stop-color:#F9DCD5"/>
			<stop  offset="0.1094" style="stop-color:#F3B9AB"/>
			<stop  offset="0.1284" style="stop-color:#EE9B87"/>
			<stop  offset="0.1482" style="stop-color:#EA826A"/>
			<stop  offset="0.169" style="stop-color:#E66F53"/>
			<stop  offset="0.1915" style="stop-color:#E46143"/>
			<stop  offset="0.2167" style="stop-color:#E25A39"/>
			<stop  offset="0.2502" style="stop-color:#E25736"/>
			<stop  offset="0.2603" style="stop-color:#E25433"/>
			<stop  offset="0.3353" style="stop-color:#DF4521"/>
			<stop  offset="0.4242" style="stop-color:#DD3A14"/>
			<stop  offset="0.5402" style="stop-color:#DC340C"/>
			<stop  offset="0.7824" style="stop-color:#DC320A"/>
			<stop  offset="0.8132" style="stop-color:#DC320A"/>
			<stop  offset="1" style="stop-color:#DC320A"/>
		</radialGradient>
		<path class="st33" d="M317.7,539.7c0,0,9.2-9.8,5.4-13.5c-3.7-3.7-0.5,0.8-0.5,0.8s-4.6,10.1-6.8,10.6"/>
		<path class="st32" d="M322,527.1l0.9-0.4c0.6-0.2,0.9-0.9,0.6-1.4l0,0c-0.2-0.6-0.9-0.8-1.4-0.6l-0.9,0.4
			c-0.6,0.2-0.9,0.9-0.6,1.4l0,0C320.8,527.1,321.5,527.3,322,527.1z"/>
		
			<radialGradient id="SVGID_26_" cx="283.5826" cy="547.0126" r="0" gradientTransform="matrix(0.8125 0.583 -1.7306 2.4116 999.8475 -937.4949)" gradientUnits="userSpaceOnUse">
			<stop  offset="4.742149e-002" style="stop-color:#FEF6F5"/>
			<stop  offset="6.249406e-002" style="stop-color:#FEF6F5"/>
			<stop  offset="7.980676e-002" style="stop-color:#FEF6F5"/>
			<stop  offset="9.143373e-002" style="stop-color:#F9DCD5"/>
			<stop  offset="0.1094" style="stop-color:#F3B9AB"/>
			<stop  offset="0.1284" style="stop-color:#EE9B87"/>
			<stop  offset="0.1482" style="stop-color:#EA826A"/>
			<stop  offset="0.169" style="stop-color:#E66F53"/>
			<stop  offset="0.1915" style="stop-color:#E46143"/>
			<stop  offset="0.2167" style="stop-color:#E25A39"/>
			<stop  offset="0.2502" style="stop-color:#E25736"/>
			<stop  offset="0.2603" style="stop-color:#E25433"/>
			<stop  offset="0.3353" style="stop-color:#DF4521"/>
			<stop  offset="0.4242" style="stop-color:#DD3A14"/>
			<stop  offset="0.5402" style="stop-color:#DC340C"/>
			<stop  offset="0.7824" style="stop-color:#DC320A"/>
			<stop  offset="0.8132" style="stop-color:#DC320A"/>
			<stop  offset="1" style="stop-color:#DC320A"/>
		</radialGradient>
		<path class="st34" d="M283.6,547"/>
		
			<radialGradient id="SVGID_27_" cx="296.5989" cy="537.9797" r="9.6008" fx="287.0042" fy="538.3212" gradientTransform="matrix(0.6768 0.7362 -2.2044 2.0266 1281.7991 -770.6551)" gradientUnits="userSpaceOnUse">
			<stop  offset="4.742149e-002" style="stop-color:#FEF6F5"/>
			<stop  offset="6.249406e-002" style="stop-color:#FEF6F5"/>
			<stop  offset="7.980676e-002" style="stop-color:#FEF6F5"/>
			<stop  offset="9.143373e-002" style="stop-color:#F9DCD5"/>
			<stop  offset="0.1094" style="stop-color:#F3B9AB"/>
			<stop  offset="0.1284" style="stop-color:#EE9B87"/>
			<stop  offset="0.1482" style="stop-color:#EA826A"/>
			<stop  offset="0.169" style="stop-color:#E66F53"/>
			<stop  offset="0.1915" style="stop-color:#E46143"/>
			<stop  offset="0.2167" style="stop-color:#E25A39"/>
			<stop  offset="0.2502" style="stop-color:#E25736"/>
			<stop  offset="0.2603" style="stop-color:#E25433"/>
			<stop  offset="0.3353" style="stop-color:#DF4521"/>
			<stop  offset="0.4242" style="stop-color:#DD3A14"/>
			<stop  offset="0.5402" style="stop-color:#DC340C"/>
			<stop  offset="0.7824" style="stop-color:#DC320A"/>
			<stop  offset="0.8132" style="stop-color:#DC320A"/>
			<stop  offset="1" style="stop-color:#DC320A"/>
		</radialGradient>
		<path class="st35" d="M283.6,538.1c0,0,15.1-15.9,37.2,0C325.9,547.5,283.9,555.3,283.6,538.1z"/>
		<g>
			
				<radialGradient id="SVGID_28_" cx="131.2648" cy="323.6198" r="2.4444" fx="128.8204" fy="323.6326" gradientTransform="matrix(1.2201 0.4874 2.8627 -2.6322 -798.6439 1319.7255)" gradientUnits="userSpaceOnUse">
				<stop  offset="4.742149e-002" style="stop-color:#FEF6F5"/>
				<stop  offset="6.249406e-002" style="stop-color:#FEF6F5"/>
				<stop  offset="7.980676e-002" style="stop-color:#FEF6F5"/>
				<stop  offset="9.143373e-002" style="stop-color:#F9DCD5"/>
				<stop  offset="0.1094" style="stop-color:#F3B9AB"/>
				<stop  offset="0.1284" style="stop-color:#EE9B87"/>
				<stop  offset="0.1482" style="stop-color:#EA826A"/>
				<stop  offset="0.169" style="stop-color:#E66F53"/>
				<stop  offset="0.1915" style="stop-color:#E46143"/>
				<stop  offset="0.2167" style="stop-color:#E25A39"/>
				<stop  offset="0.2502" style="stop-color:#E25736"/>
				<stop  offset="0.3259" style="stop-color:#DF4622"/>
				<stop  offset="0.403" style="stop-color:#DE3B14"/>
				<stop  offset="0.4734" style="stop-color:#DD3710"/>
				<stop  offset="0.5454" style="stop-color:#DC340C"/>
				<stop  offset="0.7824" style="stop-color:#DC320A"/>
				<stop  offset="0.8132" style="stop-color:#DC320A"/>
				<stop  offset="1" style="stop-color:#DC320A"/>
			</radialGradient>
			<path class="st36" d="M292.7,535.9c3.7-0.7,6.4-3.1,6-5.5c-0.4-2.4-3.8-3.7-7.5-3c-3.7,0.7-6.4,3.1-6,5.5
				C285.6,535.2,289,536.6,292.7,535.9z"/>
			
				<radialGradient id="SVGID_29_" cx="187.5931" cy="478.0008" r="7.6088" gradientTransform="matrix(-1.1956 0.1953 -0.1212 -0.7302 576.341 845.0065)" gradientUnits="userSpaceOnUse">
				<stop  offset="4.039789e-002" style="stop-color:#F8F8F8"/>
				<stop  offset="0.172" style="stop-color:#FCFCFC"/>
				<stop  offset="0.5276" style="stop-color:#FFFFFF"/>
				<stop  offset="0.5334" style="stop-color:#D7D7D7"/>
				<stop  offset="0.5403" style="stop-color:#B0B0B0"/>
				<stop  offset="0.5478" style="stop-color:#8D8D8D"/>
				<stop  offset="0.556" style="stop-color:#6F6F6F"/>
				<stop  offset="0.565" style="stop-color:#575757"/>
				<stop  offset="0.5752" style="stop-color:#454545"/>
				<stop  offset="0.5872" style="stop-color:#383838"/>
				<stop  offset="0.6028" style="stop-color:#303030"/>
				<stop  offset="0.6355" style="stop-color:#2E2E2E"/>
				<stop  offset="0.8325" style="stop-color:#FFFFFF"/>
				<stop  offset="1" style="stop-color:#F8F8F8"/>
			</radialGradient>
			<path class="st37" d="M293.4,534.9c3.2-0.6,5.6-2.5,5.3-4.2c-0.3-1.7-3.2-2.7-6.5-2.1c-3.2,0.6-5.6,2.5-5.3,4.2
				C287.3,534.6,290.2,535.5,293.4,534.9z"/>
			
				<ellipse transform="matrix(0.9841 -0.1778 0.1778 0.9841 -89.9396 60.8478)" class="st38" cx="294.6" cy="532.3" rx="2.5" ry="1.5"/>
		</g>
		<g>
			
				<radialGradient id="SVGID_30_" cx="74.4314" cy="450.0594" r="2.1999" fx="72.2316" fy="450.0819" gradientTransform="matrix(0.2087 1.0008 -4.5961 3.527327e-002 2361.8452 439.7779)" gradientUnits="userSpaceOnUse">
				<stop  offset="4.742149e-002" style="stop-color:#FEF6F5"/>
				<stop  offset="6.249406e-002" style="stop-color:#FEF6F5"/>
				<stop  offset="7.980676e-002" style="stop-color:#FEF6F5"/>
				<stop  offset="9.143373e-002" style="stop-color:#F9DCD5"/>
				<stop  offset="0.1094" style="stop-color:#F3B9AB"/>
				<stop  offset="0.1284" style="stop-color:#EE9B87"/>
				<stop  offset="0.1482" style="stop-color:#EA826A"/>
				<stop  offset="0.169" style="stop-color:#E66F53"/>
				<stop  offset="0.1915" style="stop-color:#E46143"/>
				<stop  offset="0.2167" style="stop-color:#E25A39"/>
				<stop  offset="0.2502" style="stop-color:#E25736"/>
				<stop  offset="0.3259" style="stop-color:#DF4622"/>
				<stop  offset="0.403" style="stop-color:#DE3B14"/>
				<stop  offset="0.4734" style="stop-color:#DD3710"/>
				<stop  offset="0.5454" style="stop-color:#DC340C"/>
				<stop  offset="0.7824" style="stop-color:#DC320A"/>
				<stop  offset="0.8132" style="stop-color:#DC320A"/>
				<stop  offset="1" style="stop-color:#DC320A"/>
			</radialGradient>
			<path class="st39" d="M310.6,535.5c-3.4-0.4-5.9-2.5-5.6-4.7c0.3-2.1,3.2-3.5,6.6-3.1c3.4,0.4,5.9,2.5,5.6,4.7
				C317,534.6,314,536,310.6,535.5z"/>
			
				<radialGradient id="SVGID_31_" cx="351.378" cy="470.8775" r="6.8479" gradientTransform="matrix(1.2038 0.1361 8.505174e-002 -0.7353 -153.7986 831.0244)" gradientUnits="userSpaceOnUse">
				<stop  offset="4.039789e-002" style="stop-color:#F8F8F8"/>
				<stop  offset="0.172" style="stop-color:#FCFCFC"/>
				<stop  offset="0.5276" style="stop-color:#FFFFFF"/>
				<stop  offset="0.5334" style="stop-color:#D7D7D7"/>
				<stop  offset="0.5403" style="stop-color:#B0B0B0"/>
				<stop  offset="0.5478" style="stop-color:#8D8D8D"/>
				<stop  offset="0.556" style="stop-color:#6F6F6F"/>
				<stop  offset="0.565" style="stop-color:#575757"/>
				<stop  offset="0.5752" style="stop-color:#454545"/>
				<stop  offset="0.5872" style="stop-color:#383838"/>
				<stop  offset="0.6028" style="stop-color:#303030"/>
				<stop  offset="0.6355" style="stop-color:#2E2E2E"/>
				<stop  offset="0.8325" style="stop-color:#FFFFFF"/>
				<stop  offset="1" style="stop-color:#F8F8F8"/>
			</radialGradient>
			<path class="st40" d="M309.9,534.7c-2.9-0.4-5.2-2-5-3.6s2.8-2.6,5.7-2.2c2.9,0.4,5.2,2,5,3.6C315.4,534.1,312.9,535,309.9,534.7
				z"/>
			
				<ellipse transform="matrix(0.129 -0.9916 0.9916 0.129 -258.9809 769.9185)" class="st38" cx="308.8" cy="532.4" rx="1.4" ry="2.2"/>
		</g>
		
			<ellipse transform="matrix(1.838409e-002 -0.9998 0.9998 1.838409e-002 -284.7473 832.7537)" class="st41" cx="281.7" cy="561.4" rx="2.6" ry="4.2"/>
		
			<radialGradient id="SVGID_32_" cx="526.3637" cy="516.7242" r="6.4762" gradientTransform="matrix(0.8265 0.5629 -0.5629 0.8265 165.1078 -204.9651)" gradientUnits="userSpaceOnUse">
			<stop  offset="0" style="stop-color:#FEF6F5"/>
			<stop  offset="5.812789e-002" style="stop-color:#E25736"/>
			<stop  offset="7.175952e-002" style="stop-color:#E25433"/>
			<stop  offset="0.1739" style="stop-color:#DF4521"/>
			<stop  offset="0.2948" style="stop-color:#DD3A14"/>
			<stop  offset="0.4527" style="stop-color:#DC340C"/>
			<stop  offset="0.7824" style="stop-color:#DC320A"/>
			<stop  offset="0.8132" style="stop-color:#DC320A"/>
			<stop  offset="1" style="stop-color:#DC320A"/>
		</radialGradient>
		<path class="st42" d="M322.7,525.1c-1.9,2.8-5,1.5-8.4-0.7c-2.6-1.8-9.4-10.3-4.2-6c0.4,0.3,6.9,3.6,7.2,3.2
			c0.3-0.5-5.1-5.1-5.4-5.6c-3.3-4.5,4.5,0,7,1.7C322.3,519.9,323.9,523.3,322.7,525.1z"/>
		
			<radialGradient id="SVGID_33_" cx="493.1449" cy="541.5313" r="4.4734" gradientTransform="matrix(0.899 0.438 2.0158 -4.1374 -1255.4004 2544.7517)" gradientUnits="userSpaceOnUse">
			<stop  offset="0" style="stop-color:#FEF6F5"/>
			<stop  offset="5.812789e-002" style="stop-color:#E25736"/>
			<stop  offset="5.924305e-002" style="stop-color:#E25433"/>
			<stop  offset="6.759955e-002" style="stop-color:#DF4521"/>
			<stop  offset="7.749242e-002" style="stop-color:#DD3A14"/>
			<stop  offset="9.041023e-002" style="stop-color:#DC340C"/>
			<stop  offset="0.1174" style="stop-color:#DC320A"/>
			<stop  offset="0.2421" style="stop-color:#DC320A"/>
			<stop  offset="1" style="stop-color:#DC320A"/>
		</radialGradient>
		<path class="st43" d="M278.7,523.8c1.9,2.8,5,1.5,8.4-0.7c2.6-1.8,9.4-10.3,4.2-6c-0.4,0.3-6.9,3.6-7.2,3.2
			c-0.3-0.5,5.1-5.1,5.4-5.6c3.3-4.5-4.5,0-7,1.7C279.1,518.6,277.4,522,278.7,523.8z"/>
	</g>
</g>
</svg>
