<?xml version="1.0" encoding="utf-8"?>
<!-- Generator: Adobe Illustrator 19.2.1, SVG Export Plug-In . SVG Version: 6.00 Build 0)  -->
<svg version="1.1" xmlns="http://www.w3.org/2000/svg" xmlns:xlink="http://www.w3.org/1999/xlink" x="0px" y="0px"
	 viewBox="0 0 600 630" style="enable-background:new 0 0 600 630;" xml:space="preserve">
<style type="text/css">
	.st0{fill:url(#SVGID_1_);}
	.st1{fill:#C0CD2E;}
	.st2{fill:#B1B1B1;}
	.st3{fill:#FFED00;}
	.st4{fill:#8CB63C;}
	.st5{fill:#4C4F51;}
	.st6{opacity:0.3;}
	.st7{fill:url(#SVGID_2_);}
	.st8{opacity:0.2;}
	.st9{fill:#1D1D1B;}
	.st10{fill:url(#SVGID_3_);}
	.st11{opacity:0.21;fill:#1D1D1B;}
	.st12{fill:#F5F5F5;}
	.st13{fill:#F5F5F5;stroke:#E1E1E1;stroke-width:3;stroke-linecap:round;stroke-linejoin:round;stroke-miterlimit:10;}
	.st14{fill:url(#SVGID_4_);}
	.st15{fill:url(#SVGID_5_);}
	.st16{fill:url(#SVGID_6_);}
	.st17{fill:url(#SVGID_7_);}
	.st18{fill:url(#SVGID_8_);}
	.st19{fill:url(#SVGID_9_);}
	.st20{fill:none;stroke:#1D1D1B;stroke-width:0.25;stroke-miterlimit:10;}
	.st21{fill:url(#SVGID_10_);}
	.st22{fill:url(#SVGID_11_);}
	.st23{fill:url(#SVGID_12_);}
	.st24{fill:url(#SVGID_13_);}
	.st25{fill:url(#SVGID_14_);}
</style>
<g id="Layer_1">
	<g>
		<radialGradient id="SVGID_1_" cx="215.22" cy="194.6921" r="278.3" gradientUnits="userSpaceOnUse">
			<stop  offset="0" style="stop-color:#FFFFFF"/>
			<stop  offset="0" style="stop-color:#F5FBFF"/>
			<stop  offset="0" style="stop-color:#EAF6FF"/>
			<stop  offset="0" style="stop-color:#E3F4FF"/>
			<stop  offset="0" style="stop-color:#E1F3FF"/>
			<stop  offset="0.3547" style="stop-color:#81FFFF"/>
			<stop  offset="0.5396" style="stop-color:#78E6F8"/>
			<stop  offset="1" style="stop-color:#64ACE9"/>
		</radialGradient>
		<circle class="st0" cx="302.3" cy="304.4" r="278.3"/>
		<g>
			<g>
				<g>
					<polygon class="st1" points="477.1,551.7 457.1,539.3 418.8,539.3 399.8,551.6 419.4,564 458.4,564.1 					"/>
					<polygon class="st1" points="477.1,551.7 457.1,539.3 418.8,539.3 399.8,551.6 419.4,564 458.4,564.1 					"/>
				</g>
				<polygon class="st2" points="454.6,489.9 472.4,477.6 509.1,477.8 528.7,490.2 511.3,502.5 473.9,502.3 				"/>
				<polygon class="st2" points="454.6,489.9 472.4,477.6 509.1,477.8 528.7,490.2 511.3,502.5 473.9,502.3 				"/>
				<polygon class="st3" points="473.9,502.3 454.6,489.9 417.6,489.7 399.2,502 418.2,514.5 455.9,514.6 				"/>
				<polygon class="st3" points="457.1,539.3 475.5,527 513.5,527.1 533.8,539.5 515.7,551.8 477.1,551.7 				"/>
				<polygon class="st1" points="455.9,514.6 473.9,502.3 511.3,502.5 531.2,514.9 513.5,527.1 475.5,527 				"/>
				<polygon class="st1" points="455.9,514.6 473.9,502.3 511.3,502.5 531.2,514.9 513.5,527.1 475.5,527 				"/>
				<polygon class="st3" points="586,502.8 565.8,490.4 528.7,490.2 511.3,502.5 531.2,514.9 568.9,515 				"/>
				<polygon class="st4" points="582.5,478.2 562.6,465.8 526.2,465.6 509.1,477.8 528.7,490.2 565.8,490.4 				"/>
				<polygon class="st4" points="582.5,478.2 562.6,465.8 526.2,465.6 509.1,477.8 528.7,490.2 565.8,490.4 				"/>
				<polygon class="st3" points="453.4,465.2 470.8,452.9 506.9,453.1 526.2,465.6 509.1,477.8 472.4,477.6 				"/>
				<polygon class="st2" points="341.5,563.9 361.1,551.5 399.8,551.6 419.4,564 400.1,576.4 360.8,576.3 				"/>
				<polygon class="st2" points="341.5,563.9 361.1,551.5 399.8,551.6 419.4,564 400.1,576.4 360.8,576.3 				"/>
				<polygon class="st3" points="342.1,539.1 361.5,526.7 399.5,526.8 418.8,539.3 399.8,551.6 361.1,551.5 				"/>
				<polygon class="st4" points="475.5,527 455.9,514.6 418.2,514.5 399.5,526.8 418.8,539.3 457.1,539.3 				"/>
				<polygon class="st4" points="475.5,527 455.9,514.6 418.2,514.5 399.5,526.8 418.8,539.3 457.1,539.3 				"/>
				<polygon class="st2" points="342.8,514.3 361.8,501.9 399.2,502 418.2,514.5 399.5,526.8 361.5,526.7 				"/>
				<polygon class="st2" points="342.8,514.3 361.8,501.9 399.2,502 418.2,514.5 399.5,526.8 361.5,526.7 				"/>
				<polygon class="st1" points="343.5,489.4 362.2,477.1 398.9,477.3 417.6,489.7 399.2,502.1 361.8,501.9 				"/>
				<polygon class="st1" points="343.5,489.4 362.2,477.1 398.9,477.3 417.6,489.7 399.2,502.1 361.8,501.9 				"/>
				<polygon class="st4" points="472.4,477.6 453.4,465.2 417,465 398.9,477.3 417.6,489.7 454.6,489.9 				"/>
				<polygon class="st4" points="472.4,477.6 453.4,465.2 417,465 398.9,477.3 417.6,489.7 454.6,489.9 				"/>
				<polygon class="st3" points="344.2,464.6 362.6,452.3 398.6,452.5 417,465 398.9,477.3 362.2,477.1 				"/>
				<polygon class="st2" points="470.8,452.9 452.1,440.5 416.4,440.2 398.6,452.5 417,465 453.4,465.2 				"/>
				<polygon class="st2" points="470.8,452.9 452.1,440.5 416.4,440.2 398.6,452.5 417,465 453.4,465.2 				"/>
				<polygon class="st1" points="344.9,439.8 362.9,427.5 398.4,427.7 416.4,440.2 398.6,452.5 362.6,452.3 				"/>
				<polygon class="st1" points="344.9,439.8 362.9,427.5 398.4,427.7 416.4,440.2 398.6,452.5 362.6,452.3 				"/>
				<polygon class="st2" points="224.6,563.7 245.2,551.3 283.8,551.4 302.5,563.9 282.2,576.3 242.9,576.2 				"/>
				<g>
					<polygon class="st1" points="222,588.7 242.9,576.2 282.2,576.3 301.2,588.7 280.6,601.2 240.6,601.2 					"/>
				</g>
				<g>
					<polygon class="st2" points="224.6,563.7 245.2,551.3 283.8,551.4 302.5,563.9 282.2,576.3 242.9,576.2 					"/>
				</g>
				<polygon class="st3" points="360.8,576.3 341.5,563.9 302.5,563.9 282.2,576.3 301.2,588.7 340.8,588.7 				"/>
				<polygon class="st3" points="360.8,576.3 341.5,563.9 302.5,563.9 282.2,576.3 301.2,588.7 340.8,588.7 				"/>
				<polygon class="st4" points="361.1,551.5 342.1,539.1 303.8,539 283.8,551.4 302.5,563.9 341.5,563.9 				"/>
				<polygon class="st4" points="361.1,551.5 342.1,539.1 303.8,539 283.8,551.4 302.5,563.9 341.5,563.9 				"/>
				<polygon class="st5" points="227.2,538.8 247.5,526.4 285.5,526.5 303.8,539 283.8,551.4 245.2,551.3 				"/>
				<polygon class="st1" points="361.5,526.7 342.8,514.2 305.1,514.1 285.5,526.5 303.8,539 342.1,539.1 				"/>
				<polygon class="st1" points="361.5,526.7 342.8,514.2 305.1,514.1 285.5,526.5 303.8,539 342.1,539.1 				"/>
				<polygon class="st2" points="229.8,513.9 249.8,501.5 287.1,501.6 305.1,514.1 285.5,526.5 247.5,526.4 				"/>
				<polygon class="st2" points="229.8,513.9 249.8,501.5 287.1,501.6 305.1,514.1 285.5,526.5 247.5,526.4 				"/>
				<polygon class="st3" points="361.8,501.9 343.5,489.4 306.5,489.3 287.1,501.6 305.1,514.1 342.8,514.3 				"/>
				<polygon class="st1" points="232.4,488.9 252,476.6 288.8,476.7 306.5,489.3 287.1,501.6 249.8,501.5 				"/>
				<polygon class="st1" points="232.4,488.9 252,476.6 288.8,476.7 306.5,489.3 287.1,501.6 249.8,501.5 				"/>
				<polygon class="st2" points="362.2,477.1 344.2,464.6 307.8,464.4 288.8,476.7 306.5,489.3 343.5,489.4 				"/>
				<polygon class="st2" points="362.2,477.1 344.2,464.6 307.8,464.4 288.8,476.7 306.5,489.3 343.5,489.4 				"/>
				<polygon class="st3" points="235,464 254.3,451.6 290.4,451.9 307.8,464.4 288.8,476.7 252,476.6 				"/>
				<polygon class="st4" points="362.6,452.3 344.9,439.8 309.1,439.5 290.4,451.9 307.8,464.4 344.2,464.6 				"/>
				<polygon class="st4" points="362.6,452.3 344.9,439.8 309.1,439.5 290.4,451.9 307.8,464.4 344.2,464.6 				"/>
				<polygon class="st1" points="237.6,439.1 256.6,426.7 292,427 309.1,439.5 290.4,451.9 254.3,451.6 				"/>
				<polygon class="st1" points="237.6,439.1 256.6,426.7 292,427 309.1,439.5 290.4,451.9 254.3,451.6 				"/>
				<polygon class="st3" points="362.9,427.5 345.5,414.9 310.4,414.7 292,427 309.1,439.5 344.9,439.8 				"/>
				<polygon class="st4" points="240.2,414.1 258.9,401.8 293.7,402.1 310.4,414.7 292,427 256.6,426.7 				"/>
				<polygon class="st4" points="240.2,414.1 258.9,401.8 293.7,402.1 310.4,414.7 292,427 256.6,426.7 				"/>
				<polygon class="st1" points="245.2,551.3 227.2,538.8 188.8,538.7 167.9,551.2 185.6,563.7 224.6,563.7 				"/>
				<g>
					<polygon class="st3" points="242.9,576.2 224.6,563.7 185.6,563.7 164.3,576.2 182.4,588.7 222,588.7 					"/>
				</g>
				<g>
					<polygon class="st1" points="245.2,551.3 227.2,538.8 188.8,538.7 167.9,551.2 185.6,563.7 224.6,563.7 					"/>
				</g>
				<polygon class="st3" points="112.2,538.5 133.5,526.1 171.5,526.2 188.8,538.7 167.9,551.2 129.3,551.1 				"/>
				<polygon class="st4" points="247.5,526.4 229.8,513.9 192.1,513.8 171.5,526.2 188.8,538.7 227.2,538.8 				"/>
				<polygon class="st4" points="247.5,526.4 229.8,513.9 192.1,513.8 171.5,526.2 188.8,538.7 227.2,538.8 				"/>
				<polygon class="st1" points="116.7,513.5 137.7,501.1 175,501.2 192.1,513.8 171.5,526.2 133.5,526.1 				"/>
				<polygon class="st1" points="116.7,513.5 137.7,501.1 175,501.2 192.1,513.8 171.5,526.2 133.5,526.1 				"/>
				<polygon class="st3" points="249.8,501.5 232.4,488.9 195.3,488.8 175,501.2 192.1,513.8 229.8,513.9 				"/>
				<polygon class="st2" points="121.2,488.5 141.9,476 178.6,476.2 195.3,488.8 175,501.2 137.7,501.1 				"/>
				<polygon class="st2" points="121.2,488.5 141.9,476 178.6,476.2 195.3,488.8 175,501.2 137.7,501.1 				"/>
				<polygon class="st4" points="252,476.6 235,464 198.6,463.8 178.6,476.2 195.3,488.8 232.4,488.9 				"/>
				<polygon class="st4" points="252,476.6 235,464 198.6,463.8 178.6,476.2 195.3,488.8 232.4,488.9 				"/>
				<polygon class="st3" points="125.8,463.4 146.1,451 182.2,451.2 198.6,463.8 178.6,476.2 141.9,476 				"/>
				<polygon class="st2" points="254.3,451.6 237.6,439.1 201.8,438.8 182.2,451.2 198.6,463.8 235,464 				"/>
				<polygon class="st2" points="254.3,451.6 237.6,439.1 201.8,438.8 182.2,451.2 198.6,463.8 235,464 				"/>
				<polygon class="st4" points="130.3,438.4 150.3,426 185.7,426.2 201.8,438.8 182.2,451.2 146.1,451 				"/>
				<polygon class="st4" points="130.3,438.4 150.3,426 185.7,426.2 201.8,438.8 182.2,451.2 146.1,451 				"/>
				<polygon class="st3" points="256.6,426.7 240.2,414.1 205.1,413.9 185.7,426.2 201.8,438.8 237.6,439.1 				"/>
				<polygon class="st3" points="137.7,501.1 121.3,488.5 84.2,488.3 62.9,500.8 79,513.4 116.7,513.5 				"/>
				<polygon class="st4" points="141.9,476 125.8,463.4 89.4,463.2 68.4,475.7 84.2,488.3 121.2,488.5 				"/>
				<polygon class="st4" points="141.9,476 125.8,463.4 89.4,463.2 68.4,475.7 84.2,488.3 121.2,488.5 				"/>
			</g>
		</g>
		<g>
			<g>
				<g>
					<g id="Plate_25_">
						<g class="st6">
							<path d="M534.7,397.7c-3.4,3.8-8.1,5.9-13.2,5.8l-91.5-2.3l-146.7-3.7v-45.9v-45.9l144.5-3.6l90.2-2.3
								c4.9-0.1,9.8,2,13.4,5.8l36.2,38.6c3.8,4.1,4.1,10.9,0.6,15L534.7,397.7z"/>
							<path d="M518.1,305.4c3.8-0.1,7.5,1.5,10.2,4.4l36.2,38.6c0.8,0.9,1.3,2,1.4,3.2c0,1.2-0.3,2.3-1.1,3.2l-33.5,38.6
								c-2.6,2.9-6.2,4.5-10,4.4l-91.5-2.1L288,392.6l0-41l0-41l140-3.1L518.1,305.4 M518,299.7l-90.2,2.3l-144.5,3.6v45.9v45.9
								l146.7,3.7l91.5,2.3c5,0.1,9.8-1.9,13.2-5.8l33.5-38.6c3.5-4.1,3.2-10.9-0.6-15l-36.2-38.6
								C527.7,301.7,522.9,299.6,518,299.7L518,299.7z"/>
							<path d="M518.1,304.2c4.2-0.1,8.4,1.7,11.5,5l36.2,38.6c1.2,1.3,2,3.1,2,4.9c0.1,1.9-0.5,3.6-1.6,4.9l-33.5,38.6
								c-2.9,3.2-7,5-11.3,4.9l-235.4-5.7l0-86L518.1,304.2 M518,302l-233.8,5.6l0,89.9l237.3,6c4.8,0.1,9.3-1.9,12.5-5.5l33.5-38.6
								c1.5-1.8,2.3-4.1,2.2-6.6c-0.1-2.5-1.1-4.9-2.7-6.7l-36.2-38.6C527.4,303.9,522.7,301.9,518,302L518,302z"/>
							<path d="M518.1,303.1c4.2-0.1,8.4,1.7,11.5,5l36.2,38.6c1.2,1.3,2,3.1,2,4.9c0.1,1.9-0.5,3.6-1.6,4.9l-33.5,38.6
								c-2.9,3.2-7,5-11.3,4.9l-235.3-5.5l0-86L518.1,303.1 M518,300.9l-233.8,5.7l0,89.9l237.3,5.8c4.7,0.1,9.3-1.9,12.5-5.5
								l33.5-38.6c1.5-1.8,2.3-4.1,2.2-6.7c-0.1-2.5-1.1-4.9-2.7-6.7l-36.2-38.6C527.3,302.7,522.7,300.7,518,300.9L518,300.9z"/>
							<path d="M518,300.8c4.7-0.1,9.3,1.9,12.8,5.5l36.2,38.6c1.6,1.8,2.6,4.1,2.7,6.7c0.1,2.5-0.7,4.9-2.2,6.7L534,396.8
								c-3.2,3.6-7.8,5.6-12.5,5.5l-91.5-2.3l-145.7-3.6l0-45l0-45l143.6-3.5L518,300.8 M518,299.7l-90.2,2.3l-144.5,3.6v45.9v45.9
								l146.7,3.7l91.5,2.3c5,0.1,9.8-1.9,13.2-5.8l33.5-38.6c3.5-4.1,3.2-10.9-0.6-15l-36.2-38.6
								C527.7,301.7,522.9,299.6,518,299.7L518,299.7z"/>
						</g>
						<g>
							<linearGradient id="SVGID_2_" gradientUnits="userSpaceOnUse" x1="283.2639" y1="350.4576" x2="570.567" y2="350.4576">
								<stop  offset="0" style="stop-color:#FFFFFF"/>
								<stop  offset="0" style="stop-color:#DEDADB"/>
								<stop  offset="0" style="stop-color:#B9B1B2"/>
								<stop  offset="0" style="stop-color:#988B8E"/>
								<stop  offset="0" style="stop-color:#7B6B6E"/>
								<stop  offset="0" style="stop-color:#634F53"/>
								<stop  offset="0" style="stop-color:#4F393E"/>
								<stop  offset="0" style="stop-color:#40282D"/>
								<stop  offset="0" style="stop-color:#361D21"/>
								<stop  offset="0" style="stop-color:#30161B"/>
								<stop  offset="0" style="stop-color:#2E1419"/>
								<stop  offset="5.911330e-002" style="stop-color:#4C4F51"/>
								<stop  offset="0.5074" style="stop-color:#4C4F51"/>
							</linearGradient>
							<path class="st7" d="M534.6,396.5c-3.4,3.8-8.1,5.9-13.2,5.8l-91.5-2.3l-146.7-3.6v-45.9v-45.9l144.5-3.7l90.2-2.3
								c4.9-0.1,9.8,1.9,13.4,5.8l36.2,38.6c3.8,4.1,4.1,10.9,0.6,15L534.6,396.5z"/>
							<g class="st8">
								<path class="st9" d="M518.1,304.2c3.8-0.1,7.5,1.5,10.2,4.4l36.2,38.6c0.8,0.9,1.3,2,1.4,3.2c0,1.2-0.3,2.3-1.1,3.2
									l-33.5,38.6c-2.6,2.9-6.2,4.5-10,4.4l-91.5-2L288,391.6l0-41l0-41l140-3.2L518.1,304.2 M517.9,298.6l-90.2,2.3l-144.5,3.7
									v45.9v45.9l146.7,3.6l91.5,2.3c5,0.1,9.8-2,13.2-5.8l33.5-38.6c3.5-4.1,3.2-10.9-0.6-15l-36.2-38.6
									C527.7,300.5,522.9,298.5,517.9,298.6L517.9,298.6z"/>
							</g>
							<g>
								<g class="st6">
									<path d="M518.1,303.1c4.2-0.1,8.4,1.7,11.5,5l36.2,38.6c1.2,1.3,2,3.1,2,4.9c0.1,1.9-0.5,3.6-1.6,4.9l-33.5,38.6
										c-2.9,3.2-7,5-11.3,4.9l-235.3-5.5l0-86L518.1,303.1 M518,300.9l-233.8,5.7l0,89.9l237.3,5.8c4.7,0.1,9.3-1.9,12.5-5.5
										l33.5-38.6c1.5-1.8,2.3-4.1,2.2-6.7c-0.1-2.5-1.1-4.9-2.7-6.7l-36.2-38.6C527.3,302.7,522.7,300.7,518,300.9L518,300.9z"/>
								</g>
								<linearGradient id="SVGID_3_" gradientUnits="userSpaceOnUse" x1="284.1928" y1="350.4574" x2="569.6302" y2="350.4574">
									<stop  offset="0" style="stop-color:#FFFFFF"/>
									<stop  offset="0" style="stop-color:#F4F4F4"/>
									<stop  offset="0" style="stop-color:#DEDEDE"/>
									<stop  offset="0" style="stop-color:#CDCDCD"/>
									<stop  offset="0" style="stop-color:#C2C2C2"/>
									<stop  offset="0" style="stop-color:#BBBBBB"/>
									<stop  offset="0" style="stop-color:#B9B9B9"/>
									<stop  offset="5.911330e-002" style="stop-color:#E1E1E1"/>
									<stop  offset="1" style="stop-color:#E1E1E1"/>
								</linearGradient>
								<path class="st10" d="M518,302c4.2-0.1,8.4,1.7,11.5,4.9l36.2,38.6c1.2,1.3,2,3.1,2,4.9c0.1,1.9-0.5,3.6-1.6,4.9L532.7,394
									c-2.9,3.2-7,5.1-11.3,5l-235.3-5.4l0-86L518,302 M518,299.7l-233.8,5.8l0,89.9l237.2,5.7c4.7,0.1,9.3-1.9,12.5-5.5
									l33.5-38.6c1.5-1.8,2.3-4.1,2.2-6.7c-0.1-2.5-1.1-4.9-2.7-6.7l-36.2-38.6C527.3,301.6,522.6,299.6,518,299.7L518,299.7z"/>
							</g>
							<path class="st5" d="M518,299.7c4.7-0.1,9.3,1.9,12.8,5.5l36.2,38.6c1.6,1.8,2.6,4.1,2.7,6.7c0.1,2.5-0.7,4.9-2.2,6.7
								L534,395.7c-3.2,3.6-7.8,5.6-12.5,5.5l-91.5-2.2l-145.7-3.5l0-45l0-45l143.6-3.6L518,299.7 M517.9,298.6l-90.2,2.3
								l-144.5,3.7v45.9v45.9l146.7,3.6l91.5,2.3c5,0.1,9.8-2,13.2-5.8l33.5-38.6c3.5-4.1,3.2-10.9-0.6-15l-36.2-38.6
								C527.7,300.5,522.9,298.5,517.9,298.6L517.9,298.6z"/>
						</g>
					</g>
					<g>
						<polygon class="st11" points="311.7,397.2 292.7,396.7 292.6,304.3 311.2,303.9 						"/>
					</g>
					<g>
						<path class="st12" d="M375,359.5c0,0.3-0.1,0.5-0.5,0.5c-0.2,0-0.9-0.1-2-0.4c-1.1-0.3-1.8-0.5-2.1-0.6c-2.5,1-5,1.5-7.3,1.5
							c-3.8,0-6.9-1.3-9.4-3.9c-2.4-2.5-3.7-5.7-3.7-9.6c0-3.9,1.1-7.2,3.4-9.8c2.4-2.7,5.4-4.1,9.3-4.1c1.9,0,3.6,0.3,5.2,1
							c1.8,0.8,3.2,1.9,4.2,3.4c0.2,0.3,0.3,0.5,0.3,0.6c0,0.4-0.5,1.3-1.6,2.7c-1.1,1.4-1.8,2.1-2.1,2.1c-0.1,0-0.4-0.3-0.9-0.8
							c-0.6-0.6-1.2-1.1-1.9-1.4c-0.9-0.5-2-0.8-3.1-0.8c-1.8,0-3.3,0.7-4.3,2.1c-1,1.3-1.5,2.9-1.4,4.8c0,2,0.6,3.6,1.6,4.8
							c1.1,1.2,2.6,1.8,4.6,1.8c1.2,0,2.6-0.3,4.2-1c0-0.4-0.2-1.5-0.4-3.2c-0.2-1.3-0.3-2.4-0.3-3.2c0-0.2,0.1-0.4,0.2-0.4
							c0.1,0,0.2,0,0.3,0c0.4,0,0.9,0,1.6,0.1c0.7,0.1,1.3,0.1,1.6,0.1c0.4,0,1,0,1.8-0.1c0.8-0.1,1.4-0.1,1.8-0.1
							c0.3,0,0.5,0.2,0.5,0.6c0,0.6,0,1.5-0.1,2.7c-0.1,1.2-0.1,2.1-0.1,2.7c0,1.6,0.2,4,0.5,7.3L375,359.5z"/>
						<path class="st12" d="M396,342.9c0,0.9,0,2.3-0.1,4.2c-0.1,1.9-0.1,3.3-0.1,4.2c0,0.9,0.1,2.3,0.2,4.1
							c0.1,1.8,0.1,3.2,0.2,4.1c0,0.3-0.1,0.6-0.4,0.6c-0.5,0.1-1.4,0.2-3,0.2c-1.3,0-2.3,0-2.8-0.1c-0.2,0-0.4-0.2-0.4-0.5
							c0-0.4-0.1-0.8-0.1-1.1c-0.1-0.6-0.2-0.9-0.3-0.9c0.2,0-0.4,0.4-1.8,1.3c-1.4,0.9-2.7,1.3-3.8,1.3c-3.2,0-5.2-1.5-5.8-4.5
							c-0.3-1.4-0.5-3.4-0.5-6.1c0-2.9,0.2-5.1,0.6-6.8c0.1-0.5,0.4-0.8,0.7-0.8c0.6,0,1.4,0,2.6,0c1.1,0,2,0,2.6,0
							c0.4,0,0.6,0.2,0.6,0.5c0,0.1,0,0.2,0,0.4c-0.2,1.7-0.3,3.5-0.3,5.2c0,2.2,0.1,3.7,0.3,4.5c0.2,1.4,1.1,2.1,2.4,2.1
							c0.5,0,1.1-0.2,1.7-0.7c0.6-0.5,0.9-1,1-1.5c0-0.5,0-3.6-0.1-9.5c0-0.4,0-0.7,0.1-0.7c0.1-0.1,0.3-0.2,0.7-0.2
							c0.6,0,1.5,0,2.7,0c1.2,0,2.1,0,2.7,0c0.4,0,0.6,0.1,0.6,0.3C396,342.6,396,342.7,396,342.9z"/>
						<path class="st12" d="M406,351.5c0,0.9,0.1,2.3,0.1,4.2c0.1,1.8,0.1,3.2,0.1,4.1c0,0.3-0.1,0.4-0.5,0.5
							c-0.4,0.1-1.4,0.1-2.8,0.1c-1.5,0-2.4,0-2.8-0.1c-0.3-0.1-0.4-0.1-0.5-0.3c0-0.1,0-0.2,0-0.6c0-0.9,0-2.2,0-4c0-1.8,0-3.1,0-4
							c-0.1-3.6-0.3-6.5-0.6-8.6c0-0.2,0-0.3,0-0.4c0-0.3,0.2-0.4,0.5-0.4c0.3,0,0.9,0,1.6,0.1c0.7,0.1,1.2,0.1,1.6,0.1
							c0.4,0,0.9,0,1.6-0.1c0.7-0.1,1.2-0.1,1.6-0.1c0.3,0,0.4,0.1,0.4,0.4c0,0.1,0,0.2,0,0.4C406,345.3,405.9,348.2,406,351.5z
							 M406.2,337.3c0,2.2-1.1,3.3-3.5,3.4c-1,0-1.9-0.3-2.6-0.8c-0.7-0.6-1.1-1.4-1.1-2.5c0-1,0.3-1.8,1.1-2.5
							c0.7-0.6,1.5-0.9,2.5-0.9c1,0,1.8,0.3,2.5,0.9C405.8,335.5,406.2,336.3,406.2,337.3z"/>
						<path class="st12" d="M428.6,332.9c0-0.3,0,0.1-0.1,1.3c-0.1,1.4-0.2,3.3-0.2,5.5c0,2.5,0,5.4,0,8.6c0.1,5.3,0.3,9.1,0.7,11.4
							c0,0.2,0,0.4,0,0.5c0,0.1-0.1,0.2-0.3,0.3c-0.4,0.1-2.1,0.1-4.9,0.1c-0.7,0-1-0.1-1.1-0.4c0-0.5-0.1-1-0.1-1.5
							c0-0.1-0.1-0.2-0.2-0.3c-0.1,0-0.2,0.1-0.3,0.2c-1.3,1.4-2.9,2-4.9,2c-2.6,0-4.7-1-6.3-2.9c-1.5-1.8-2.3-4.1-2.4-6.8
							c-0.1-2.8,0.6-5.1,2-6.9c1.5-1.9,3.6-2.9,6.2-2.9c1.8,0,3.3,0.6,4.3,1.8c0.2,0.2,0.3,0.3,0.4,0.3c0.1,0,0.2-0.2,0.2-0.5
							c0-1-0.1-2.5-0.2-4.4c-0.1-2-0.1-3.4-0.2-4.4c0-0.4,0.1-0.6,0.3-0.6c0.8,0,1.9-0.1,3.2-0.3c2.4-0.3,3.5-0.5,3.2-0.5
							C428.4,332.4,428.6,332.6,428.6,332.9z M422.1,350.7c0-1-0.4-1.9-1.1-2.7c-0.7-0.8-1.5-1.1-2.5-1.1c-1,0-1.8,0.4-2.4,1.2
							c-0.6,0.8-0.9,1.7-0.8,2.7c0,1,0.3,1.9,1,2.6c0.6,0.8,1.4,1.2,2.4,1.2c1,0,1.8-0.4,2.4-1.2
							C421.8,352.7,422.1,351.8,422.1,350.7z"/>
						<path class="st12" d="M448.5,349.9c0,1.3-0.3,2.1-1.1,2.2c-0.1,0-1.4,0.2-3.8,0.4c-1.4,0.2-3.6,0.4-6.4,0.6
							c0.2,0.8,0.7,1.5,1.6,1.9c0.7,0.4,1.5,0.5,2.4,0.6c1.1,0,2.2-0.3,3.3-0.9c0.5-0.3,0.9-0.6,1.4-0.9c0.3,0.1,0.7,0.8,1.3,2
							c0.6,1.2,1,2,1,2.3c0,0.1-0.1,0.2-0.3,0.4c-1.5,1.7-3.8,2.5-6.9,2.5c-2.9,0-5.3-0.9-7.1-2.7c-1.9-1.8-2.9-4.3-2.9-7.3
							c-0.1-3,0.7-5.4,2.3-7.3c1.6-2,3.9-3,6.6-3c2.3,0,4.4,0.9,6,2.7C447.5,345.2,448.4,347.4,448.5,349.9z M442,348.7
							c0-0.8-0.3-1.5-0.9-2.1c-0.6-0.6-1.2-0.9-1.9-0.9c-0.8,0-1.4,0.3-1.9,1c-0.5,0.6-0.7,1.4-0.6,2.2c0,0.4,0.2,0.5,0.5,0.5
							c0.9,0,2.3-0.2,4.2-0.5C441.8,348.9,442,348.8,442,348.7z"/>
					</g>
				</g>
			</g>
			<polygon class="st13" points="530.2,370.7 552.3,348.7 530.2,326.6 552.3,348.7 			"/>
			<g id="signPlate">
				<g>
					<g id="Plate_24_">
						<g class="st6">
							<path d="M443.4,175.4c-2.3,2.6-5.3,4.2-8.5,4.6l-58.3,5.9l-93.4,9.4v-45.9v-45.9l93.4,7.2l58.3,4.5c3.2,0.2,6.3,1.8,8.5,4.4
								l22.3,23.5c2.4,2.3,2.4,6,0,8.4L443.4,175.4z"/>
							<path d="M434.9,118.7c2.4,0.2,4.8,1.4,6.5,3.3l22.3,23.5c0.5,0.5,0.8,1.1,0.8,1.8c0,0.7-0.3,1.3-0.8,1.8l-22.3,24
								c-1.7,1.9-4.1,3.2-6.5,3.4l-58.3,5.3l-90.4,8.2v-40.7v-40.7l90.4,6.1L434.9,118.7 M434.9,115.2l-58.3-4.5l-93.4-7.2v45.9
								v45.9l93.4-9.4l58.3-5.9c3.2-0.3,6.3-2,8.5-4.6l22.3-24c2.4-2.4,2.4-6.1,0-8.4l-22.3-23.5C441.1,117,438.1,115.4,434.9,115.2
								L434.9,115.2z"/>
							<path d="M434.9,118c2.7,0.2,5.4,1.5,7.3,3.7l22.3,23.4c0.8,0.7,1.2,1.7,1.2,2.8s-0.4,2-1.2,2.8l-22.3,24.1
								c-1.9,2.2-4.6,3.6-7.3,3.9l-149.8,14.5v-85.6L434.9,118 M434.9,116.6l-151-11.1v89.8l151-15.2c3-0.3,6-1.9,8.1-4.4l22.3-24.1
								c1-1,1.6-2.3,1.6-3.7c0-1.4-0.6-2.7-1.6-3.7L443,120.7C440.9,118.3,437.9,116.8,434.9,116.6L434.9,116.6z"/>
							<path d="M434.9,117.3c2.7,0.2,5.4,1.6,7.3,3.7l22.3,23.5c0.8,0.7,1.2,1.7,1.2,2.8s-0.4,2-1.2,2.8l-22.3,24
								c-1.9,2.2-4.6,3.6-7.3,3.9l-149.8,14.2v-85.6L434.9,117.3 M434.9,115.9l-151-11.4v89.8l151-14.9c3-0.3,6-1.9,8.1-4.3l22.3-24
								c1-1,1.6-2.3,1.6-3.7c0-1.4-0.6-2.7-1.6-3.7L443,120C440.9,117.6,437.9,116.1,434.9,115.9L434.9,115.9z"/>
							<path d="M434.9,115.9c3,0.2,6,1.7,8.1,4.1l22.3,23.5c1,1,1.6,2.3,1.6,3.7s-0.6,2.7-1.6,3.7L443,175c-2.1,2.4-5.1,4-8.1,4.3
								l-58.3,5.8l-92.8,9.2v-44.9v-44.9l92.8,7L434.9,115.9 M434.9,115.2l-58.3-4.5l-93.4-7.2v45.9v45.9l93.4-9.4l58.3-5.9
								c3.2-0.3,6.3-2,8.5-4.6l22.3-24c2.4-2.4,2.4-6.1,0-8.4l-22.3-23.5C441.1,117,438.1,115.4,434.9,115.2L434.9,115.2z"/>
						</g>
						<g>
							<linearGradient id="SVGID_4_" gradientUnits="userSpaceOnUse" x1="283.2639" y1="148.3678" x2="467.4976" y2="148.3678">
								<stop  offset="0" style="stop-color:#FFFFFF"/>
								<stop  offset="0" style="stop-color:#DEDADB"/>
								<stop  offset="0" style="stop-color:#B9B1B2"/>
								<stop  offset="0" style="stop-color:#988B8E"/>
								<stop  offset="0" style="stop-color:#7B6B6E"/>
								<stop  offset="0" style="stop-color:#634F53"/>
								<stop  offset="0" style="stop-color:#4F393E"/>
								<stop  offset="0" style="stop-color:#40282D"/>
								<stop  offset="0" style="stop-color:#361D21"/>
								<stop  offset="0" style="stop-color:#30161B"/>
								<stop  offset="0" style="stop-color:#2E1419"/>
								<stop  offset="5.911330e-002" style="stop-color:#4C4F51"/>
								<stop  offset="0.5074" style="stop-color:#4C4F51"/>
							</linearGradient>
							<path class="st14" d="M443.4,174.8c-2.3,2.6-5.3,4.2-8.5,4.6l-58.3,5.8l-93.4,9.2v-45.9v-45.9l93.4,7.4l58.3,4.6
								c3.2,0.3,6.3,1.8,8.5,4.4l22.3,23.5c2.4,2.3,2.4,6,0,8.4L443.4,174.8z"/>
							<g class="st8">
								<path class="st9" d="M434.9,118c2.4,0.2,4.8,1.4,6.5,3.3l22.3,23.5c0.5,0.5,0.8,1.1,0.8,1.8c0,0.7-0.3,1.3-0.8,1.8l-22.3,24
									c-1.7,1.9-4.1,3.2-6.5,3.4l-58.3,5.2l-90.4,8.1v-40.7v-40.7l90.4,6.3L434.9,118 M434.9,114.4l-58.3-4.6l-93.4-7.4v45.9v45.9
									l93.4-9.2l58.3-5.8c3.2-0.3,6.3-2,8.5-4.6l22.3-24c2.4-2.4,2.4-6.1,0-8.4l-22.3-23.5C441.1,116.3,438.1,114.7,434.9,114.4
									L434.9,114.4z"/>
							</g>
							<g>
								<g class="st6">
									<path d="M434.9,117.3c2.7,0.2,5.4,1.6,7.3,3.7l22.3,23.5c0.8,0.7,1.2,1.7,1.2,2.8s-0.4,2-1.2,2.8l-22.3,24
										c-1.9,2.2-4.6,3.6-7.3,3.9l-149.8,14.2v-85.6L434.9,117.3 M434.9,115.9l-151-11.4v89.8l151-14.9c3-0.3,6-1.9,8.1-4.3
										l22.3-24c1-1,1.6-2.3,1.6-3.7c0-1.4-0.6-2.7-1.6-3.7L443,120C440.9,117.6,437.9,116.1,434.9,115.9L434.9,115.9z"/>
								</g>
								<linearGradient id="SVGID_5_" gradientUnits="userSpaceOnUse" x1="283.864" y1="148.3618" x2="466.8974" y2="148.3618">
									<stop  offset="0" style="stop-color:#FFFFFF"/>
									<stop  offset="0" style="stop-color:#F4F4F4"/>
									<stop  offset="0" style="stop-color:#DEDEDE"/>
									<stop  offset="0" style="stop-color:#CDCDCD"/>
									<stop  offset="0" style="stop-color:#C2C2C2"/>
									<stop  offset="0" style="stop-color:#BBBBBB"/>
									<stop  offset="0" style="stop-color:#B9B9B9"/>
									<stop  offset="5.911330e-002" style="stop-color:#E1E1E1"/>
									<stop  offset="1" style="stop-color:#E1E1E1"/>
								</linearGradient>
								<path class="st15" d="M434.9,116.6c2.7,0.2,5.4,1.6,7.3,3.7l22.3,23.5c0.8,0.7,1.2,1.7,1.2,2.8c0,1-0.4,2-1.2,2.8l-22.3,24
									c-1.9,2.2-4.6,3.6-7.3,3.9l-149.8,14v-85.6L434.9,116.6 M434.9,115.2l-151-11.7v89.8l151-14.7c3-0.3,6-1.9,8.1-4.3l22.3-24
									c1-1,1.6-2.3,1.6-3.7c0-1.4-0.6-2.7-1.6-3.7L443,119.3C440.9,116.9,437.9,115.4,434.9,115.2L434.9,115.2z"/>
							</g>
							<path class="st5" d="M434.9,115.2c3,0.2,6,1.8,8.1,4.2l22.3,23.5c1,1,1.6,2.3,1.6,3.7s-0.6,2.7-1.6,3.7l-22.3,24
								c-2.1,2.4-5.1,4-8.1,4.3l-58.3,5.7l-92.8,9v-44.9v-44.9l92.8,7.2L434.9,115.2 M434.9,114.4l-58.3-4.6l-93.4-7.4v45.9v45.9
								l93.4-9.2l58.3-5.8c3.2-0.3,6.3-2,8.5-4.6l22.3-24c2.4-2.4,2.4-6.1,0-8.4l-22.3-23.5C441.1,116.3,438.1,114.7,434.9,114.4
								L434.9,114.4z"/>
						</g>
					</g>
					<g>
						<polygon class="st11" points="301.3,192.5 289.3,193.7 289.3,102.9 301.3,103.9 						"/>
					</g>
					<g>
						<path class="st12" d="M337.3,156.3c-0.7,0-1.6,0-2.6,0c-1.4,0-2.3,0-2.6,0l-3.5,0c-0.4,0-0.9,0-1.5,0c-0.2,0-0.3-0.2-0.3-0.5
							c0-1.2,0-3,0-5.4c0-2.4,0-4.2,0-5.4c0-1.3,0-3.2-0.1-5.7c-0.1-2.5-0.1-4.4-0.1-5.7c0-0.2,0.1-0.4,0.4-0.4c0.2,0,0.6,0,1.1,0.1
							c0.5,0,0.8,0.1,1,0.1c0.3,0,0.6,0,1.2,0c0.5,0,0.9,0,1.2,0c0.1,0,0.2,0.1,0.2,0.3l0,0.2c-0.1,2-0.2,5.1-0.3,9.2l0,4.3
							c0,1.4,0,2.4,0,3c0,0.1,0,0.3,0,0.4c0,0.1,0.1,0.2,0.2,0.2c0,0,0.1,0,0.3,0c0.7,0,1.8-0.1,3.2-0.2c1.4-0.1,2.5-0.2,3.2-0.2
							c0.2,0,0.3,0.1,0.3,0.4c0,1.8-0.1,3.4-0.3,4.7c0,0.3-0.1,0.4-0.2,0.5C337.8,156.3,337.6,156.3,337.3,156.3z"/>
						<path class="st12" d="M351.4,147.9c0,0.8,0,2,0.1,3.6c0.1,1.6,0.1,2.8,0.1,3.5c0,0.4-0.1,0.6-0.4,0.7c-1,0.1-2.1,0.2-3.3,0.2
							c-0.1,0-0.2-0.3-0.3-0.9c-0.1-0.6-0.1-0.9-0.2-0.9c-0.1,0-0.1,0.1-0.2,0.3c-0.9,1.2-1.8,1.8-2.8,1.9c-1.5,0-2.8-0.7-3.8-2.3
							c-0.9-1.5-1.4-3.3-1.4-5.5c0-2.5,0.5-4.4,1.5-6c1-1.5,2.4-2.3,4.2-2.3c1.2,0,2.2,0.6,2.9,1.7c0,0.1,0.1,0.1,0.1,0.1
							c0.1,0,0.2-0.3,0.2-0.8c0.1-0.5,0.2-0.8,0.3-0.8c0.3,0,0.8,0.1,1.7,0.3c0.8,0.2,1.3,0.4,1.7,0.5c0.1,0.1,0.2,0.1,0.2,0.2
							c0,0,0,0.2,0,0.3C351.6,143.8,351.4,145.8,351.4,147.9z M347.6,148c0-0.9-0.2-1.6-0.6-2.2c-0.4-0.6-1-0.9-1.6-0.9
							c-0.7,0-1.2,0.3-1.6,0.9c-0.4,0.6-0.6,1.3-0.6,2.2c0,0.9,0.2,1.6,0.7,2.2c0.4,0.6,1,0.9,1.6,0.9c0.7,0,1.2-0.3,1.6-0.9
							C347.4,149.7,347.6,148.9,347.6,148z"/>
						<path class="st12" d="M365.5,154.8c0,0.3-0.1,0.4-0.3,0.5c-0.2,0-0.8,0.1-1.7,0.1c-1,0-1.6,0-1.8,0c-0.2-0.1-0.4-0.3-0.4-0.6
							c0-0.5,0-1.2,0-2.2c0-1,0-1.7,0-2.2c0-0.4,0-0.9,0-1.7c0-0.7,0-1.3,0-1.7c0-1.4-0.5-2.1-1.4-2.1c-0.3,0-0.7,0.2-1.1,0.5
							c-0.4,0.4-0.7,0.8-0.7,1.2v8.3c0,0.3-0.1,0.5-0.4,0.6c-0.3,0-0.8,0.1-1.7,0.1c-0.9,0-1.5,0-1.8,0c-0.2,0-0.4-0.2-0.4-0.5
							c0-0.8,0-2,0-3.6c0-1.6,0-2.8,0-3.7c0-2.6-0.2-4.6-0.5-6.1c0-0.1,0-0.2,0-0.2c0-0.2,0.1-0.3,0.2-0.3c0.5-0.1,1.2-0.2,2-0.3
							c1.2-0.3,1.9-0.5,2.1-0.5c0.1,0,0.2,0.3,0.2,1c0,0.7,0.1,1,0.2,1c-0.1,0,0.3-0.4,1.3-1.1c0.9-0.7,1.7-1.1,2.4-1
							c1,0,1.8,0.3,2.5,0.9c0.7,0.7,1.1,1.7,1.1,2.9v4.8c0,0.7,0,1.6,0,2.9C365.5,153.2,365.5,154.2,365.5,154.8z"/>
						<path class="st12" d="M379.9,134.2c0-0.2,0,0.1-0.1,1c-0.1,1.1-0.2,2.5-0.2,4.1c-0.1,1.9-0.1,4.1-0.1,6.5c0,4,0.1,6.9,0.3,8.6
							c0,0.2,0,0.3,0,0.3c0,0.1-0.1,0.2-0.2,0.2c-0.3,0.1-1.3,0.1-3.1,0.2c-0.4,0-0.7-0.1-0.7-0.3c0-0.4,0-0.7,0-1.1
							c0-0.1,0-0.2-0.1-0.2c0,0-0.1,0.1-0.2,0.2c-0.8,1.1-1.9,1.6-3.2,1.7c-1.7,0-3-0.7-4-2.1c-0.9-1.4-1.4-3.2-1.4-5.3
							c0-2.2,0.5-4,1.4-5.4c1-1.5,2.3-2.2,4-2.2c1.2,0,2.1,0.5,2.8,1.4c0.1,0.2,0.2,0.2,0.2,0.2c0.1,0,0.1-0.1,0.1-0.4
							c0-0.8,0-1.9,0-3.4c0-1.5,0-2.6,0-3.4c0-0.3,0.1-0.4,0.2-0.5c0.5,0,1.2-0.1,2.1-0.1c1.6-0.2,2.3-0.3,2.1-0.3
							C379.8,133.8,379.9,133.9,379.9,134.2z M375.5,147.6c0-0.8-0.2-1.5-0.6-2c-0.4-0.6-1-0.9-1.6-0.9c-0.6,0-1.2,0.3-1.5,0.9
							c-0.4,0.6-0.6,1.3-0.6,2.1c0,0.8,0.2,1.5,0.6,2c0.4,0.6,0.9,0.9,1.5,0.9s1.2-0.3,1.6-0.9C375.3,149.1,375.5,148.4,375.5,147.6
							z"/>
					</g>
					<polygon class="st13" points="431.4,161.3 444.7,145.5 431.4,129.9 444.7,145.5 					"/>
				</g>
			</g>
			<g>
				<linearGradient id="SVGID_6_" gradientUnits="userSpaceOnUse" x1="251.4586" y1="296.1958" x2="281.5762" y2="296.1958">
					<stop  offset="0" style="stop-color:#FFFFFF"/>
					<stop  offset="0" style="stop-color:#D5D6D7"/>
					<stop  offset="0" style="stop-color:#ACAEAF"/>
					<stop  offset="0" style="stop-color:#86898B"/>
					<stop  offset="0" style="stop-color:#66696C"/>
					<stop  offset="0" style="stop-color:#4A4E52"/>
					<stop  offset="0" style="stop-color:#34393D"/>
					<stop  offset="0" style="stop-color:#23282D"/>
					<stop  offset="0" style="stop-color:#181C21"/>
					<stop  offset="0" style="stop-color:#11161B"/>
					<stop  offset="0" style="stop-color:#0F1419"/>
					<stop  offset="0.3547" style="stop-color:#64696E"/>
					<stop  offset="0.6502" style="stop-color:#373C41"/>
					<stop  offset="0.8079" style="stop-color:#5A5F64"/>
					<stop  offset="0.8895" style="stop-color:#494E53"/>
					<stop  offset="1" style="stop-color:#373C41"/>
				</linearGradient>
				<path class="st16" d="M281.6,533.3c0,0.5-0.4,1.4-0.8,1.8c-8.1,7.2-20.4,7.2-28.4,0c-0.5-0.4-0.8-1.3-0.8-1.8
					c0-158.9,0-317.9,0-476.8c0-0.5,0.4-1.2,0.9-1.5c8.9-4.2,19.3-4.2,28.2,0c0.5,0.2,0.9,0.9,0.9,1.5
					C281.6,215.4,281.6,374.4,281.6,533.3z"/>
			</g>
			
				<radialGradient id="SVGID_7_" cx="223.5948" cy="17.8838" r="13.31" gradientTransform="matrix(0.8297 0 0 0.7594 77.9927 30.0339)" gradientUnits="userSpaceOnUse">
				<stop  offset="0" style="stop-color:#FFFFFF"/>
				<stop  offset="0" style="stop-color:#F5F5F5"/>
				<stop  offset="0" style="stop-color:#EAEAEA"/>
				<stop  offset="0" style="stop-color:#E3E3E3"/>
				<stop  offset="0" style="stop-color:#E1E1E1"/>
				<stop  offset="1" style="stop-color:#5F5F5F"/>
			</radialGradient>
			<ellipse class="st17" cx="266.5" cy="47.9" rx="11" ry="10.1"/>
			
				<radialGradient id="SVGID_8_" cx="220.9548" cy="30.0811" r="17.338" gradientTransform="matrix(0.8297 0 0 0.7594 77.9927 30.0339)" gradientUnits="userSpaceOnUse">
				<stop  offset="0" style="stop-color:#FFFFFF"/>
				<stop  offset="0" style="stop-color:#F5F5F5"/>
				<stop  offset="0" style="stop-color:#EAEAEA"/>
				<stop  offset="0" style="stop-color:#E3E3E3"/>
				<stop  offset="0" style="stop-color:#E1E1E1"/>
				<stop  offset="1" style="stop-color:#5F5F5F"/>
			</radialGradient>
			<path class="st18" d="M266.5,48.1c-10.5,0-19.1,3.3-19.1,7.4v9.2h38.1v-9.2C285.6,51.4,277.1,48.1,266.5,48.1z"/>
			<g>
				<g>
					<linearGradient id="SVGID_9_" gradientUnits="userSpaceOnUse" x1="249.4654" y1="348.6843" x2="283.5986" y2="348.6843">
						<stop  offset="0" style="stop-color:#FFFFFF"/>
						<stop  offset="0" style="stop-color:#D5D6D7"/>
						<stop  offset="0" style="stop-color:#ACAEAF"/>
						<stop  offset="0" style="stop-color:#86898B"/>
						<stop  offset="0" style="stop-color:#66696C"/>
						<stop  offset="0" style="stop-color:#4A4E52"/>
						<stop  offset="0" style="stop-color:#34393D"/>
						<stop  offset="0" style="stop-color:#23282D"/>
						<stop  offset="0" style="stop-color:#181C21"/>
						<stop  offset="0" style="stop-color:#11161B"/>
						<stop  offset="0" style="stop-color:#0F1419"/>
						<stop  offset="0.3547" style="stop-color:#64696E"/>
						<stop  offset="0.6502" style="stop-color:#373C41"/>
						<stop  offset="0.8079" style="stop-color:#5A5F64"/>
						<stop  offset="0.8895" style="stop-color:#494E53"/>
						<stop  offset="1" style="stop-color:#373C41"/>
					</linearGradient>
					<rect x="249.5" y="300.9" class="st19" width="34.1" height="95.6"/>
					<rect x="249.5" y="300.9" class="st20" width="34.1" height="95.6"/>
				</g>
				<g>
					<linearGradient id="SVGID_10_" gradientUnits="userSpaceOnUse" x1="249.4654" y1="247.6072" x2="283.5986" y2="247.6072">
						<stop  offset="0" style="stop-color:#FFFFFF"/>
						<stop  offset="0" style="stop-color:#D5D6D7"/>
						<stop  offset="0" style="stop-color:#ACAEAF"/>
						<stop  offset="0" style="stop-color:#86898B"/>
						<stop  offset="0" style="stop-color:#66696C"/>
						<stop  offset="0" style="stop-color:#4A4E52"/>
						<stop  offset="0" style="stop-color:#34393D"/>
						<stop  offset="0" style="stop-color:#23282D"/>
						<stop  offset="0" style="stop-color:#181C21"/>
						<stop  offset="0" style="stop-color:#11161B"/>
						<stop  offset="0" style="stop-color:#0F1419"/>
						<stop  offset="0.3547" style="stop-color:#64696E"/>
						<stop  offset="0.6502" style="stop-color:#373C41"/>
						<stop  offset="0.8079" style="stop-color:#5A5F64"/>
						<stop  offset="0.8895" style="stop-color:#494E53"/>
						<stop  offset="1" style="stop-color:#373C41"/>
					</linearGradient>
					<rect x="249.5" y="199.8" class="st21" width="34.1" height="95.6"/>
					<rect x="249.5" y="199.8" class="st20" width="34.1" height="95.6"/>
				</g>
				<g>
					<linearGradient id="SVGID_11_" gradientUnits="userSpaceOnUse" x1="249.4654" y1="146.53" x2="283.5986" y2="146.53">
						<stop  offset="0" style="stop-color:#FFFFFF"/>
						<stop  offset="0" style="stop-color:#D5D6D7"/>
						<stop  offset="0" style="stop-color:#ACAEAF"/>
						<stop  offset="0" style="stop-color:#86898B"/>
						<stop  offset="0" style="stop-color:#66696C"/>
						<stop  offset="0" style="stop-color:#4A4E52"/>
						<stop  offset="0" style="stop-color:#34393D"/>
						<stop  offset="0" style="stop-color:#23282D"/>
						<stop  offset="0" style="stop-color:#181C21"/>
						<stop  offset="0" style="stop-color:#11161B"/>
						<stop  offset="0" style="stop-color:#0F1419"/>
						<stop  offset="0.3547" style="stop-color:#64696E"/>
						<stop  offset="0.6502" style="stop-color:#373C41"/>
						<stop  offset="0.8079" style="stop-color:#5A5F64"/>
						<stop  offset="0.8895" style="stop-color:#494E53"/>
						<stop  offset="1" style="stop-color:#373C41"/>
					</linearGradient>
					<rect x="249.5" y="98.7" class="st22" width="34.1" height="95.6"/>
					<rect x="249.5" y="98.7" class="st20" width="34.1" height="95.6"/>
				</g>
			</g>
			<linearGradient id="SVGID_12_" gradientUnits="userSpaceOnUse" x1="49.6858" y1="156.944" x2="49.6858" y2="156.944">
				<stop  offset="0" style="stop-color:#FFFFFF"/>
				<stop  offset="0" style="stop-color:#DEDADB"/>
				<stop  offset="0" style="stop-color:#B9B1B2"/>
				<stop  offset="0" style="stop-color:#988B8E"/>
				<stop  offset="0" style="stop-color:#7B6B6E"/>
				<stop  offset="0" style="stop-color:#634F53"/>
				<stop  offset="0" style="stop-color:#4F393E"/>
				<stop  offset="0" style="stop-color:#40282D"/>
				<stop  offset="0" style="stop-color:#361D21"/>
				<stop  offset="0" style="stop-color:#30161B"/>
				<stop  offset="0" style="stop-color:#2E1419"/>
				<stop  offset="5.911330e-002" style="stop-color:#4C4F51"/>
				<stop  offset="0.5074" style="stop-color:#4C4F51"/>
			</linearGradient>
			<path class="st23" d="M49.7,156.9"/>
			<g>
				<g>
					<g id="signPlate_20_">
						<g id="Plate_29_">
							<g class="st6">
								<path d="M67.9,286c2.6,3,6,4.8,9.6,4.9l65.9,2.1l105.6,3.4v-45.9v-45.9l-105.6,4.3l-65.9,2.7c-3.6,0.1-7.1,2-9.6,5
									l-25.3,29.4c-2.7,3-2.7,7.9,0,10.9L67.9,286z"/>
								<path d="M245.6,209.6v40.8v40.8l-102.2-2.9l-65.9-1.8c-2.7-0.1-5.4-1.4-7.3-3.7l-25.3-29.2c-0.6-0.6-0.9-1.5-0.9-2.4
									s0.3-1.7,0.9-2.4l25.3-29.4c1.9-2.3,4.6-3.7,7.3-3.8l65.9-2.4L245.6,209.6 M249,204.5l-105.6,4.3l-65.9,2.7
									c-3.6,0.1-7.1,2-9.6,5l-25.3,29.4c-2.7,3-2.7,7.9,0,10.9L67.9,286c2.6,3,6,4.8,9.6,4.9l65.9,2.1l105.6,3.4v-45.9V204.5
									L249,204.5z"/>
								<path d="M247,208.6v85.7l-169.4-5.1c-3.1-0.1-6.1-1.6-8.3-4.2L44,255.8c-0.9-1-1.3-2.2-1.3-3.6c0-1.3,0.5-2.6,1.3-3.6
									l25.3-29.4c2.2-2.6,5.2-4.1,8.3-4.3L247,208.6 M248.3,206.5l-170.8,6.7c-3.4,0.1-6.8,1.9-9.2,4.7l-25.3,29.4
									c-1.1,1.3-1.8,3-1.8,4.8c0,1.8,0.6,3.5,1.8,4.8l25.3,29.2c2.4,2.9,5.8,4.6,9.2,4.7l170.8,5.5V206.5L248.3,206.5z"/>
								<path d="M247,207.6v85.7l-169.4-5c-3.1-0.1-6.1-1.6-8.3-4.2L44,254.9c-0.9-1-1.3-2.2-1.3-3.6c0-1.3,0.5-2.6,1.3-3.6
									l25.3-29.4c2.2-2.6,5.2-4.1,8.3-4.3L247,207.6 M248.3,205.5l-170.8,6.8c-3.4,0.1-6.8,1.9-9.2,4.8l-25.3,29.4
									c-1.1,1.3-1.8,3-1.8,4.8c0,1.8,0.6,3.5,1.8,4.8l25.3,29.2c2.4,2.9,5.8,4.6,9.2,4.7l170.8,5.3V205.5L248.3,205.5z"/>
								<path d="M248.3,205.5v44.9v44.9l-104.9-3.3L77.5,290c-3.4-0.1-6.8-1.8-9.2-4.7l-25.3-29.2c-1.1-1.3-1.8-3-1.8-4.8
									c0-1.8,0.6-3.5,1.8-4.8l25.3-29.4c2.4-2.9,5.8-4.6,9.2-4.8l65.9-2.6L248.3,205.5 M249,204.5l-105.6,4.3l-65.9,2.7
									c-3.6,0.1-7.1,2-9.6,5l-25.3,29.4c-2.7,3-2.7,7.9,0,10.9L67.9,286c2.6,3,6,4.8,9.6,4.9l65.9,2.1l105.6,3.4v-45.9V204.5
									L249,204.5z"/>
							</g>
							<g>
								
									<linearGradient id="SVGID_13_" gradientUnits="userSpaceOnUse" x1="608.083" y1="249.4449" x2="816.4425" y2="249.4449" gradientTransform="matrix(-1 0 0 1 857.071 0)">
									<stop  offset="0" style="stop-color:#FFFFFF"/>
									<stop  offset="0" style="stop-color:#DEDADB"/>
									<stop  offset="0" style="stop-color:#B9B1B2"/>
									<stop  offset="0" style="stop-color:#988B8E"/>
									<stop  offset="0" style="stop-color:#7B6B6E"/>
									<stop  offset="0" style="stop-color:#634F53"/>
									<stop  offset="0" style="stop-color:#4F393E"/>
									<stop  offset="0" style="stop-color:#40282D"/>
									<stop  offset="0" style="stop-color:#361D21"/>
									<stop  offset="0" style="stop-color:#30161B"/>
									<stop  offset="0" style="stop-color:#2E1419"/>
									<stop  offset="5.911330e-002" style="stop-color:#4C4F51"/>
									<stop  offset="0.5074" style="stop-color:#4C4F51"/>
								</linearGradient>
								<path class="st24" d="M67.9,285.1c2.6,3,6,4.8,9.6,4.9l65.9,2.1l105.6,3.3v-45.9v-45.9l-105.6,4.4l-65.9,2.7
									c-3.6,0.1-7.1,2-9.6,5l-25.3,29.4c-2.7,3-2.7,7.9,0,10.9L67.9,285.1z"/>
								<g class="st8">
									<path class="st9" d="M245.6,208.6v40.8v40.8l-102.2-2.8l-65.9-1.8c-2.7-0.1-5.4-1.4-7.3-3.7l-25.3-29.2
										c-0.6-0.6-0.9-1.5-0.9-2.4s0.3-1.7,0.9-2.4l25.3-29.4c1.9-2.3,4.6-3.7,7.3-3.8l65.9-2.5L245.6,208.6 M249,203.5l-105.6,4.4
										l-65.9,2.7c-3.6,0.1-7.1,2-9.6,5l-25.3,29.4c-2.7,3-2.7,7.9,0,10.9l25.3,29.2c2.6,3,6,4.8,9.6,4.9l65.9,2.1l105.6,3.3
										v-45.9V203.5L249,203.5z"/>
								</g>
								<g>
									<g class="st6">
										<path d="M247,207.6v85.7l-169.4-5c-3.1-0.1-6.1-1.6-8.3-4.2L44,254.9c-0.9-1-1.3-2.2-1.3-3.6c0-1.3,0.5-2.6,1.3-3.6
											l25.3-29.4c2.2-2.6,5.2-4.1,8.3-4.3L247,207.6 M248.3,205.5l-170.8,6.8c-3.4,0.1-6.8,1.9-9.2,4.8l-25.3,29.4
											c-1.1,1.3-1.8,3-1.8,4.8c0,1.8,0.6,3.5,1.8,4.8l25.3,29.2c2.4,2.9,5.8,4.6,9.2,4.7l170.8,5.3V205.5L248.3,205.5z"/>
									</g>
									<linearGradient id="SVGID_14_" gradientUnits="userSpaceOnUse" x1="248.3096" y1="249.4486" x2="41.3072" y2="249.4486">
										<stop  offset="0" style="stop-color:#FFFFFF"/>
										<stop  offset="0" style="stop-color:#F4F4F4"/>
										<stop  offset="0" style="stop-color:#DEDEDE"/>
										<stop  offset="0" style="stop-color:#CDCDCD"/>
										<stop  offset="0" style="stop-color:#C2C2C2"/>
										<stop  offset="0" style="stop-color:#BBBBBB"/>
										<stop  offset="0" style="stop-color:#B9B9B9"/>
										<stop  offset="5.911330e-002" style="stop-color:#E1E1E1"/>
										<stop  offset="1" style="stop-color:#E1E1E1"/>
									</linearGradient>
									<path class="st25" d="M247,206.6v85.8l-169.4-4.9c-3.1-0.1-6.1-1.6-8.3-4.2L44,254.1c-0.9-1-1.3-2.2-1.3-3.6
										c0-1.3,0.5-2.6,1.3-3.6l25.3-29.4c2.2-2.6,5.2-4.1,8.3-4.3L247,206.6 M248.3,204.5l-170.8,6.9c-3.4,0.1-6.8,1.9-9.2,4.8
										l-25.3,29.4c-1.1,1.3-1.8,3-1.8,4.8c0,1.8,0.6,3.5,1.8,4.8l25.3,29.2c2.4,2.9,5.8,4.6,9.2,4.7l170.8,5.2V204.5L248.3,204.5
										z"/>
								</g>
								<path class="st5" d="M248.3,204.5v44.9v44.9l-104.9-3.2l-65.9-2c-3.4-0.1-6.8-1.8-9.2-4.7l-25.3-29.2
									c-1.1-1.3-1.8-3-1.8-4.8c0-1.8,0.6-3.5,1.8-4.8l25.3-29.4c2.4-2.9,5.8-4.6,9.2-4.8l65.9-2.7L248.3,204.5 M249,203.5
									l-105.6,4.4l-65.9,2.7c-3.6,0.1-7.1,2-9.6,5l-25.3,29.4c-2.7,3-2.7,7.9,0,10.9l25.3,29.2c2.6,3,6,4.8,9.6,4.9l65.9,2.1
									l105.6,3.3v-45.9V203.5L249,203.5z"/>
							</g>
						</g>
						<g>
							<polygon class="st11" points="228.6,294.8 242.2,295.2 242.2,203.8 228.6,204.3 							"/>
						</g>
						<polygon class="st13" points="81.4,267.8 66.4,248.8 81.4,229.6 66.4,248.8 						"/>
					</g>
					<g>
						<path class="st12" d="M132.6,258.2c0,0.1-0.1,0.1-0.3,0.2c-0.3,0.1-1.2,0.1-2.5,0.1c-1.2,0-2,0-2.4-0.1
							c-0.2,0-0.3-0.1-0.3-0.1c-0.1,0-0.1-0.1-0.2-0.3c-0.1-0.4-0.3-1-0.6-1.9c-0.3-1.1-0.9-2.7-1.6-4.8c-0.2-0.4-0.5-0.7-1.1-0.7
							c0.3,0-0.2,0-1.4,0c-0.1,0-0.2,0.3-0.2,0.8c0,0.7,0.1,1.8,0.2,3.3c0.1,1.5,0.2,2.5,0.2,3.3c0,0.2,0,0.3-0.1,0.3
							c-0.1,0-0.2,0-0.4,0c-0.5,0-1.3,0.1-2.4,0.1c-1.3,0-2,0-2.3-0.1c-0.3-0.1-0.4-0.2-0.4-0.5c0-1.2,0-3,0.1-5.3
							c0.1-2.4,0.1-4.2,0.1-5.4c0-4.5-0.1-8.1-0.3-10.6l0-0.2c0-0.2,0.1-0.3,0.4-0.4c0.3-0.1,1.6-0.2,4.1-0.3
							c1.6-0.1,2.9-0.1,3.9-0.1c2,0,3.7,0.5,4.9,1.6c1.4,1.2,2.2,3,2.2,5.4c0,1.6-0.2,2.9-0.6,3.8c-0.4,0.9-1.1,1.9-2.1,2.8
							c-0.2,0.2-0.3,0.3-0.3,0.5c0,0,0.5,1.3,1.6,4.1C132.1,256.4,132.6,257.9,132.6,258.2z M127.1,243.7c0-1.3-0.4-2.2-1.1-2.7
							c-0.6-0.4-1.4-0.6-2.6-0.5c-0.8,0-1.3,0.2-1.3,0.5c-0.1,0.4-0.1,1.4-0.1,3.2c0,0.2,0,0.6,0,1.1c0,0.5,0,0.8,0,1.1
							c0,0.1,0.1,0.1,0.4,0.2c0.5,0.1,1.1,0.1,1.7,0.1C126.1,246.5,127.1,245.6,127.1,243.7z"/>
						<path class="st12" d="M146.2,249.5c0,1.1-0.3,1.7-0.9,1.9c-0.1,0-1,0.1-2.8,0.4c-1,0.1-2.6,0.3-4.7,0.5
							c0.1,0.7,0.5,1.2,1.1,1.6c0.5,0.3,1.1,0.5,1.8,0.5c0.8,0,1.6-0.3,2.4-0.8c0.3-0.3,0.7-0.5,1-0.8c0.2,0.1,0.5,0.7,0.9,1.7
							c0.4,1,0.7,1.7,0.7,1.9c0,0.1-0.1,0.2-0.2,0.4c-1.1,1.4-2.8,2.2-5,2.1c-2.1,0-3.8-0.8-5.1-2.3c-1.3-1.5-2-3.6-2-6.1
							c0-2.5,0.6-4.6,1.8-6.2c1.2-1.7,2.8-2.5,4.9-2.5c1.7,0,3.1,0.7,4.3,2.3C145.7,245.5,146.2,247.3,146.2,249.5z M141.6,248.5
							c0-0.7-0.2-1.3-0.6-1.8c-0.4-0.5-0.9-0.8-1.4-0.8c-0.6,0-1,0.3-1.4,0.9c-0.3,0.5-0.5,1.2-0.5,1.9c0,0.3,0.1,0.4,0.4,0.4
							c0.7,0,1.7-0.1,3.1-0.4C141.4,248.7,141.6,248.6,141.6,248.5z"/>
						<path class="st12" d="M161,254.1c0,3.2-0.5,5.4-1.6,6.8c-1.1,1.4-2.9,2.1-5.5,2.1c-0.7,0-1.8-0.2-3-0.5
							c-1.6-0.4-2.5-0.8-2.5-1.3c0-0.2,0.2-1.3,0.6-3.2c0.1-0.3,0.2-0.5,0.3-0.5c0,0,0.1,0,0.1,0.1c1.4,0.8,2.6,1.3,3.8,1.3
							c0.6,0,1.3-0.2,1.9-0.6c0.8-0.5,1.1-1.1,1.1-1.8v-1.1c-0.9,1.1-2.1,1.6-3.5,1.6c-1.7,0-3-0.7-4.1-2.2c-1-1.4-1.6-3.2-1.6-5.3
							c0-2.1,0.5-3.8,1.5-5.2c1-1.5,2.4-2.2,4.1-2.2c1.3,0,2.4,0.6,3.1,1.8c0.1,0.2,0.2,0.4,0.3,0.4c0.1,0,0.1-0.2,0.1-0.6
							c0-0.9,0.1-1.3,0.2-1.3c0.1,0,0.9,0.1,2.3,0.2c1.4,0.2,2.1,0.3,2.2,0.3c0.2,0.1,0.2,0.2,0.2,0.4c0,0.8,0,1.9-0.1,3.4
							c0,1.5-0.1,2.7-0.1,3.4c0,0.5,0,1.1,0,2.1C161,253,161,253.7,161,254.1z M156.4,249.5c0-0.8-0.2-1.5-0.6-2.1
							c-0.4-0.6-1-0.9-1.6-0.9c-0.6,0-1.2,0.3-1.6,0.9c-0.4,0.6-0.6,1.3-0.6,2.1c0,0.8,0.2,1.5,0.7,2.1c0.4,0.6,1,0.9,1.6,0.9
							c0.6,0,1.2-0.3,1.6-0.9C156.1,251,156.4,250.3,156.4,249.5z"/>
						<path class="st12" d="M168.2,250.8c0,0.8,0,2,0,3.7c0,1.6,0,2.8,0,3.6c0,0.2-0.1,0.4-0.3,0.4c-0.3,0.1-1,0.1-2,0.1
							c-1.1,0-1.7,0-2-0.1c-0.2,0-0.3-0.1-0.4-0.2c0,0,0-0.2,0-0.5c0-0.8,0-1.9,0-3.5c0-1.5,0-2.7,0-3.5c0-3.2-0.1-5.7-0.3-7.6
							c0-0.2,0-0.3,0-0.4c0-0.2,0.1-0.3,0.4-0.3c0.2,0,0.6,0,1.1,0.1c0.5,0.1,0.9,0.1,1.2,0.1c0.3,0,0.6,0,1.2-0.1
							c0.5-0.1,0.9-0.1,1.2-0.1c0.2,0,0.3,0.1,0.3,0.3c0,0,0,0.2,0,0.3C168.3,245.3,168.2,247.9,168.2,250.8z M168.5,238.3
							c0,1.9-0.9,2.9-2.6,3c-0.7,0-1.4-0.2-1.8-0.7c-0.5-0.5-0.8-1.2-0.8-2.2c0-0.9,0.3-1.6,0.8-2.2c0.5-0.5,1.1-0.8,1.8-0.8
							c0.7,0,1.3,0.2,1.8,0.8C168.3,236.7,168.5,237.4,168.5,238.3z"/>
						<path class="st12" d="M178.5,244.8c0,0.1-0.1,0.3-0.2,0.5c-0.2-0.1-0.5-0.1-0.7-0.1c-0.5,0-1,0.2-1.3,0.5
							c-0.4,0.3-0.6,0.8-0.6,1.4c0,0.4,0.2,0.9,0.7,1.5c0.7,0.9,1.1,1.5,1.3,1.8c0.5,0.9,0.7,1.8,0.7,2.8c0,0.6-0.1,1.2-0.3,1.8
							c-0.2,0.7-0.5,1.2-0.8,1.6c-0.7,0.7-1.4,1.3-2.3,1.8c-0.9,0.5-1.8,0.8-2.6,0.8c-0.2,0-0.6-0.6-1.2-1.8c-0.6-1.2-0.9-2-0.9-2.2
							c0-0.1,0-0.2,0.1-0.2c0.6-0.1,1.2-0.3,1.9-0.4c0.8-0.3,1.2-0.8,1.2-1.6c0-0.5-0.2-1.1-0.7-1.7c-0.8-1.1-1.2-1.7-1.3-1.8
							c-0.5-0.8-0.7-1.7-0.7-2.6c0-1.7,0.7-3.1,2-4.3c1.2-1.1,2.5-1.6,3.9-1.6c0.1,0,0.5,0.6,1.1,1.8
							C178.3,243.9,178.5,244.6,178.5,244.8z"/>
						<path class="st12" d="M189.4,253.5c0,0.3,0,0.9-0.1,1.6c-0.1,0.7-0.1,1.2-0.1,1.5s0,0.5-0.1,0.6c-0.1,0.1-0.2,0.2-0.4,0.4
							c-1.1,0.8-2.4,1.2-3.8,1.2c-2.6,0-3.8-1.3-3.8-3.8c0-0.7,0-1.9,0.1-3.4c0-1.5,0.1-2.6,0.1-3.4c0-0.5-0.2-0.7-0.7-0.7
							c0,0-0.1,0-0.2,0c-0.1,0-0.1,0-0.2,0c-0.3,0-0.5-0.1-0.5-0.5c0-0.2,0-0.5,0-0.8c0-0.4,0-0.7,0-0.8c0-0.2,0-0.6,0-1.1
							c0-0.5,0-0.8,0-1.1c0-0.2,0.3-0.4,0.9-0.4c0.3,0,0.5-0.1,0.5-0.3c0.1-0.4,0.1-1.1,0.1-2c0-1.5-0.1-2.2-0.1-2.1
							c0-1.3,0.1-2,0.3-2c0.2,0,0.6,0.1,1,0.2c0.5,0.1,0.9,0.2,1.1,0.2c0.5,0.1,1.1,0.2,2,0.3c0.2,0,0.3,0.1,0.3,0.3
							c0,0.5,0,1.1-0.1,2.1c-0.1,0.9-0.1,1.6-0.1,2.1c0,0.6,0.1,0.8,0.4,0.8c0.3,0,0.8,0,1.4-0.1c0.6,0,1.1-0.1,1.4-0.1
							c0.2,0,0.3,0.1,0.3,0.3c0,0.3,0,0.7-0.1,1.2c0,0.5-0.1,0.9-0.1,1.2c0,0.3,0,0.7,0,1.2c0,0.5,0,0.9,0,1.2
							c0,0.2-0.1,0.4-0.4,0.4c-0.2,0-0.5,0-0.9,0c-0.4,0-0.7,0-0.9,0l-1,0c-0.1,0-0.2,0.3-0.2,0.8c0,0.3,0,0.7,0,1.2
							c0,0.5,0,0.9,0,1.2c0,1,0.1,1.6,0.3,2c0.2,0.5,0.7,0.7,1.4,0.7c0.2,0,0.5-0.1,1-0.2c0.4-0.1,0.7-0.2,0.9-0.2
							C189.3,253.1,189.4,253.2,189.4,253.5z"/>
						<path class="st12" d="M199.6,247.8c0,0.4-0.2,0.7-0.6,0.7c-0.2,0-0.4,0-0.7,0c-0.3,0-0.6,0-0.7,0c-0.7,0-1.2,0.2-1.5,0.5
							c-0.3,0.3-0.4,0.9-0.4,1.8c0,0.5,0,1.2,0,2.2c0,1,0,1.8,0,2.2c0,0.3,0,0.8,0.1,1.5c0,0.7,0.1,1.1,0.1,1.5
							c0,0.3-0.1,0.4-0.4,0.5c-0.4,0-1.1,0.1-2,0.1c-0.8,0-1.5,0-2-0.1c-0.3,0-0.4-0.2-0.4-0.6c0-0.9,0-2.3,0-4.1c0-1.8,0-3.2,0-4.1
							c0-2.7-0.2-4.9-0.6-6.6c0-0.1,0-0.2,0-0.3c0-0.2,0.1-0.3,0.2-0.3c0.5-0.1,1.2-0.2,2.1-0.4c1.4-0.4,2.1-0.6,2.2-0.6
							c0.2,0,0.3,0.4,0.3,1.1c0,0.7,0.1,1.1,0.2,1.1c-0.1,0,0.2-0.3,1.1-0.9c0.9-0.6,1.7-0.9,2.5-0.9c0.5,0,0.7,0.1,0.7,0.4
							c0,0.3,0,0.8-0.1,1.4c-0.1,0.7-0.1,1.1-0.1,1.4c0,0.3,0,0.8,0,1.3C199.6,247.1,199.6,247.6,199.6,247.8z"/>
						<path class="st12" d="M214.2,246.1c0,2.3-0.1,3.6-0.2,4.1c-0.1,0.6-1.1,2.7-2.9,6.3c-0.3,0.6-1,1.9-2.2,3.9
							c-1.3,2.3-2,3.5-2.2,3.6c-0.2,0.2-1.6,0.2-4.1,0.2c-0.4,0-0.6-0.1-0.8-0.2c-0.1-0.5-0.3-1-0.4-1.7c-0.1-0.4-0.3-0.8-0.4-1.2
							c-0.2-0.6-0.3-1-0.3-1.2c0-0.2,0.1-0.3,0.2-0.3c2.5,0,3.7-0.7,3.7-2.2c0-0.1-0.6-1.3-1.8-3.4c-1.3-2.2-1.9-3.6-2.1-4.2
							c-0.1-0.3-0.1-1.5-0.1-3.6c0-0.4,0-1,0-1.9c0-0.8,0-1.5,0-1.9c0-0.3,0.1-0.5,0.4-0.5c0.5,0,1.1,0,2.1,0c0.9,0,1.6,0,2.1,0
							c0.2,0,0.3,0.2,0.3,0.5c0,0.3,0,0.8,0,1.5c0,0.7,0,1.1,0,1.5c0,1.5,0,2.4,0.1,3c0,0.4,0.3,1.2,0.8,2.2
							c0.5,1.1,0.9,1.7,1.2,1.7c0.2,0,0.5-0.6,1-1.7c0.5-1.1,0.7-1.8,0.7-2.2c0.1-1,0.1-2.1,0.1-3.3c0-0.3,0-0.8-0.1-1.4
							c0-0.6-0.1-1.1-0.1-1.4c0-0.2,0.1-0.3,0.3-0.3c0.5,0,1.1,0,2-0.1c0.9-0.1,1.6-0.1,2-0.1c0.2,0,0.4,0.1,0.5,0.4
							C214.1,242.9,214.2,244.2,214.2,246.1z"/>
					</g>
				</g>
			</g>
		</g>
	</g>
</g>
<g id="Plate">
</g>
<g id="Layer_2">
</g>
</svg>
