<svg xmlns="http://www.w3.org/2000/svg" xmlns:xlink="http://www.w3.org/1999/xlink" viewBox="0 0 556.6 562.9"><defs><style>.cls-1{isolation:isolate;}.cls-2{fill:url(#radial-gradient);}.cls-3{fill:#00b410;}.cls-4{opacity:0.3;}.cls-10,.cls-4,.cls-6{mix-blend-mode:soft-light;}.cls-5{fill:url(#linear-gradient);}.cls-6{opacity:0.2;}.cls-10,.cls-7{fill:#1d1d1b;}.cls-8{fill:url(#linear-gradient-2);}.cls-9{fill:#4c4f51;}.cls-10{opacity:0.21;}.cls-11,.cls-12{fill:#f5f5f5;}.cls-12{stroke:#e1e1e1;stroke-linecap:round;stroke-linejoin:round;stroke-width:3px;}.cls-13{fill:url(#linear-gradient-3);}.cls-14{fill:url(#linear-gradient-4);}.cls-15{fill:url(#linear-gradient-5);}.cls-16{fill:url(#radial-gradient-2);}.cls-17{fill:url(#radial-gradient-3);}.cls-18{fill:url(#linear-gradient-6);}.cls-19{fill:none;stroke:#1d1d1b;stroke-miterlimit:10;stroke-width:0.25px;}.cls-20{fill:url(#linear-gradient-7);}.cls-21{fill:url(#linear-gradient-8);}.cls-22{fill:url(#linear-gradient-9);}.cls-23{fill:url(#linear-gradient-10);}.cls-24{fill:url(#linear-gradient-11);}</style><radialGradient id="radial-gradient" cx="191.18" cy="168.59" r="278.3" gradientUnits="userSpaceOnUse"><stop offset="0" stop-color="#fff"/><stop offset="0" stop-color="#f5fbff"/><stop offset="0" stop-color="#eaf6ff"/><stop offset="0" stop-color="#e3f4ff"/><stop offset="0" stop-color="#e1f3ff"/><stop offset="0.35" stop-color="#81ffff"/><stop offset="0.54" stop-color="#78e6f8"/><stop offset="1" stop-color="#64ace9"/></radialGradient><linearGradient id="linear-gradient" x1="283.26" y1="350.46" x2="570.57" y2="350.46" gradientUnits="userSpaceOnUse"><stop offset="0" stop-color="#fff"/><stop offset="0" stop-color="#dedadb"/><stop offset="0" stop-color="#b9b1b2"/><stop offset="0" stop-color="#988b8e"/><stop offset="0" stop-color="#7b6b6e"/><stop offset="0" stop-color="#634f53"/><stop offset="0" stop-color="#4f393e"/><stop offset="0" stop-color="#40282d"/><stop offset="0" stop-color="#361d21"/><stop offset="0" stop-color="#30161b"/><stop offset="0" stop-color="#2e1419"/><stop offset="0.06" stop-color="#4c4f51"/><stop offset="0.51" stop-color="#4c4f51"/></linearGradient><linearGradient id="linear-gradient-2" x1="284.19" y1="350.46" x2="569.63" y2="350.46" gradientUnits="userSpaceOnUse"><stop offset="0" stop-color="#fff"/><stop offset="0" stop-color="#f4f4f4"/><stop offset="0" stop-color="#dedede"/><stop offset="0" stop-color="#cdcdcd"/><stop offset="0" stop-color="#c2c2c2"/><stop offset="0" stop-color="#bbb"/><stop offset="0" stop-color="#b9b9b9"/><stop offset="0.06" stop-color="#e1e1e1"/><stop offset="1" stop-color="#e1e1e1"/></linearGradient><linearGradient id="linear-gradient-3" x1="283.26" y1="148.37" x2="467.5" y2="148.37" xlink:href="#linear-gradient"/><linearGradient id="linear-gradient-4" x1="283.86" y1="148.36" x2="466.9" y2="148.36" xlink:href="#linear-gradient-2"/><linearGradient id="linear-gradient-5" x1="251.46" y1="296.2" x2="281.58" y2="296.2" gradientUnits="userSpaceOnUse"><stop offset="0" stop-color="#fff"/><stop offset="0" stop-color="#d5d6d7"/><stop offset="0" stop-color="#acaeaf"/><stop offset="0" stop-color="#86898b"/><stop offset="0" stop-color="#66696c"/><stop offset="0" stop-color="#4a4e52"/><stop offset="0" stop-color="#34393d"/><stop offset="0" stop-color="#23282d"/><stop offset="0" stop-color="#181c21"/><stop offset="0" stop-color="#11161b"/><stop offset="0" stop-color="#0f1419"/><stop offset="0.35" stop-color="#64696e"/><stop offset="0.65" stop-color="#373c41"/><stop offset="0.81" stop-color="#5a5f64"/><stop offset="0.89" stop-color="#494e53"/><stop offset="1" stop-color="#373c41"/></linearGradient><radialGradient id="radial-gradient-2" cx="223.59" cy="17.88" r="13.31" gradientTransform="translate(53.95 3.94) scale(0.83 0.76)" gradientUnits="userSpaceOnUse"><stop offset="0" stop-color="#fff"/><stop offset="0" stop-color="#f5f5f5"/><stop offset="0" stop-color="#eaeaea"/><stop offset="0" stop-color="#e3e3e3"/><stop offset="0" stop-color="#e1e1e1"/><stop offset="1" stop-color="#5f5f5f"/></radialGradient><radialGradient id="radial-gradient-3" cx="220.95" cy="30.08" r="17.34" gradientTransform="translate(77.99 30.03) scale(0.83 0.76)" xlink:href="#radial-gradient-2"/><linearGradient id="linear-gradient-6" x1="225.43" y1="322.59" x2="259.56" y2="322.59" xlink:href="#linear-gradient-5"/><linearGradient id="linear-gradient-7" x1="225.43" y1="221.51" x2="259.56" y2="221.51" xlink:href="#linear-gradient-5"/><linearGradient id="linear-gradient-8" x1="225.43" y1="120.43" x2="259.56" y2="120.43" xlink:href="#linear-gradient-5"/><linearGradient id="linear-gradient-9" x1="49.69" y1="156.94" x2="49.69" y2="156.94" xlink:href="#linear-gradient"/><linearGradient id="linear-gradient-10" x1="608.08" y1="249.44" x2="816.44" y2="249.44" gradientTransform="matrix(-1, 0, 0, 1, 857.07, 0)" xlink:href="#linear-gradient"/><linearGradient id="linear-gradient-11" x1="248.31" y1="249.45" x2="41.31" y2="249.45" xlink:href="#linear-gradient-2"/></defs><title>SignpostCC</title><g class="cls-1"><g id="Layer_1" data-name="Layer 1"><circle class="cls-2" cx="278.3" cy="278.3" r="278.3"/><ellipse class="cls-3" cx="250.46" cy="514.4" rx="214.5" ry="48.5"/><text x="-24.04" y="-26.1"/><g id="Plate"><g class="cls-4"><path d="M534.69,397.67a16.93,16.93,0,0,1-13.17,5.78L430,401.15l-146.72-3.69V305.58L427.78,302,518,299.72a17.9,17.9,0,0,1,13.41,5.79l36.19,38.59c3.83,4.14,4.11,10.87.61,15Z" transform="translate(-24.04 -26.1)"/><path d="M518.15,305.37a13.78,13.78,0,0,1,10.22,4.39l36.19,38.6a5.08,5.08,0,0,1,1.36,3.24,4.7,4.7,0,0,1-1.1,3.24l-33.46,38.58a13,13,0,0,1-10,4.39l-91.47-2.05L288,392.57l0-41,0-41,140-3.11,90.25-2M518,299.72L427.78,302l-144.52,3.61v91.89L430,401.15l91.55,2.3a16.93,16.93,0,0,0,13.17-5.78l33.47-38.57c3.5-4.14,3.23-10.87-.61-15l-36.19-38.59A17.9,17.9,0,0,0,518,299.72h0Z" transform="translate(-24.04 -26.1)"/><path d="M518.11,304.24a15.49,15.49,0,0,1,11.5,5l36.2,38.61a7.74,7.74,0,0,1,2,4.95,7.16,7.16,0,0,1-1.64,4.94l-33.47,38.56a14.63,14.63,0,0,1-11.29,4.94l-235.36-5.66,0-86,232.06-5.28M518,302l-233.84,5.58v89.93l237.32,6A16.24,16.24,0,0,0,534.07,398l33.47-38.55a9.62,9.62,0,0,0,2.18-6.65A10.4,10.4,0,0,0,567,346.1L530.8,307.49A17.19,17.19,0,0,0,518,302h0Z" transform="translate(-24.04 -26.1)"/><path d="M518.07,303.11a15.48,15.48,0,0,1,11.5,5l36.19,38.59a7.73,7.73,0,0,1,2,4.95,7.16,7.16,0,0,1-1.64,4.94l-33.46,38.58a14.64,14.64,0,0,1-11.28,4.95l-235.32-5.53,0-86,232-5.41M518,300.85l-233.8,5.71v89.93l237.28,5.83a16.25,16.25,0,0,0,12.54-5.5l33.47-38.57a9.62,9.62,0,0,0,2.18-6.65,10.4,10.4,0,0,0-2.72-6.65l-36.19-38.59A17.18,17.18,0,0,0,518,300.85h0Z" transform="translate(-24.04 -26.1)"/><path d="M518,300.85a17.18,17.18,0,0,1,12.77,5.51L567,344.95a10.39,10.39,0,0,1,2.72,6.65,9.62,9.62,0,0,1-2.18,6.65L534,396.82a16.24,16.24,0,0,1-12.54,5.5L430,400.07l-145.75-3.58V306.56l143.61-3.5,90.19-2.2m0-1.13L427.78,302l-144.52,3.61v91.89L430,401.15l91.55,2.3a16.93,16.93,0,0,0,13.17-5.78l33.47-38.57c3.5-4.14,3.23-10.87-.61-15l-36.19-38.59A17.9,17.9,0,0,0,518,299.72h0Z" transform="translate(-24.04 -26.1)"/></g><path class="cls-5" d="M534.65,396.54a16.94,16.94,0,0,1-13.16,5.79L430,400.07l-146.69-3.61V304.58l144.49-3.69,90.16-2.3a17.89,17.89,0,0,1,13.4,5.78l36.18,38.57c3.83,4.14,4.11,10.87.61,15Z" transform="translate(-24.04 -26.1)"/><g class="cls-6"><path class="cls-7" d="M518.11,304.24a13.76,13.76,0,0,1,10.22,4.39l36.19,38.58a5.08,5.08,0,0,1,1.36,3.24,4.7,4.7,0,0,1-1.1,3.24l-33.46,38.6a13,13,0,0,1-10,4.39l-91.46-2L288,391.57l0-41,0-41,140-3.18,90.23-2.05m-0.19-5.64-90.16,2.3-144.49,3.69v91.89L430,400.07l91.53,2.25a16.94,16.94,0,0,0,13.16-5.79l33.46-38.59c3.5-4.14,3.23-10.87-.61-15l-36.18-38.57a17.89,17.89,0,0,0-13.4-5.78h0Z" transform="translate(-24.04 -26.1)"/></g><g class="cls-4"><path d="M518.07,303.11a15.48,15.48,0,0,1,11.5,5l36.19,38.59a7.73,7.73,0,0,1,2,4.95,7.16,7.16,0,0,1-1.64,4.94l-33.46,38.58a14.64,14.64,0,0,1-11.28,4.95l-235.32-5.53,0-86,232-5.41M518,300.85l-233.8,5.71v89.93l237.28,5.83a16.25,16.25,0,0,0,12.54-5.5l33.47-38.57a9.62,9.62,0,0,0,2.18-6.65,10.4,10.4,0,0,0-2.72-6.65l-36.19-38.59A17.18,17.18,0,0,0,518,300.85h0Z" transform="translate(-24.04 -26.1)"/></g><path class="cls-8" d="M518,302a15.47,15.47,0,0,1,11.5,4.95l36.18,38.57a7.73,7.73,0,0,1,2,4.95,7.16,7.16,0,0,1-1.64,4.95L532.65,394a14.64,14.64,0,0,1-11.28,5l-235.28-5.41,0-86L518,302M518,299.72l-233.76,5.83v89.93l237.24,5.71A16.25,16.25,0,0,0,534,395.69l33.46-38.59a9.63,9.63,0,0,0,2.18-6.65,10.39,10.39,0,0,0-2.71-6.65l-36.18-38.57a17.17,17.17,0,0,0-12.77-5.5h0Z" transform="translate(-24.04 -26.1)"/><path class="cls-9" d="M518,299.72a17.16,17.16,0,0,1,12.77,5.5l36.18,38.57a10.39,10.39,0,0,1,2.72,6.65,9.62,9.62,0,0,1-2.18,6.65L534,395.69a16.25,16.25,0,0,1-12.54,5.51L429.93,399l-145.72-3.5V305.55L427.78,302,518,299.72m0-1.13-90.16,2.3-144.49,3.69v91.89L430,400.07l91.53,2.25a16.94,16.94,0,0,0,13.16-5.79l33.46-38.59c3.5-4.14,3.23-10.87-.61-15l-36.18-38.57a17.89,17.89,0,0,0-13.4-5.78h0Z" transform="translate(-24.04 -26.1)"/></g><polygon class="cls-10" points="287.62 371.07 268.69 370.6 268.55 278.24 287.19 277.77 287.62 371.07"/><path class="cls-11" d="M375,359.54a0.43,0.43,0,0,1-.51.51,13.55,13.55,0,0,1-2-.42q-1.67-.42-2.06-0.57a19.53,19.53,0,0,1-7.35,1.5,12.47,12.47,0,0,1-9.36-3.88,13.45,13.45,0,0,1-3.7-9.55,14.09,14.09,0,0,1,3.37-9.81,11.88,11.88,0,0,1,9.27-4.11,12.76,12.76,0,0,1,5.25,1,10,10,0,0,1,4.22,3.35,1.47,1.47,0,0,1,.32.64q0,0.6-1.6,2.71T368.73,343a3.63,3.63,0,0,1-.85-0.77,7.82,7.82,0,0,0-1.85-1.42,6.28,6.28,0,0,0-3.09-.75,5.18,5.18,0,0,0-4.33,2.12,7.52,7.52,0,0,0-1.45,4.81,7.11,7.11,0,0,0,1.62,4.82,5.85,5.85,0,0,0,4.59,1.84,11,11,0,0,0,4.17-1q-0.06-.62-0.37-3.15a27.07,27.07,0,0,1-.28-3.15,0.39,0.39,0,0,1,.23-0.43,0.83,0.83,0,0,1,.29,0q0.53,0,1.61.1t1.62,0.1q0.59,0,1.76-.09t1.76-.09c0.3,0,.46.21,0.47,0.62q0,0.91-.06,2.73t-0.06,2.73q0,2.43.45,7.27Z" transform="translate(-24.04 -26.1)"/><path class="cls-11" d="M396,342.93q0,1.41-.05,4.23t-0.06,4.23q0,1.37.16,4.12t0.16,4.1a0.59,0.59,0,0,1-.45.65,14.11,14.11,0,0,1-3,.18,23,23,0,0,1-2.79-.13,0.54,0.54,0,0,1-.45-0.46l-0.13-1.14a1.12,1.12,0,0,0-.27-0.87q0.26,0-1.83,1.28a7.4,7.4,0,0,1-3.82,1.27q-4.87,0-5.84-4.54a34.52,34.52,0,0,1-.49-6.08,26.86,26.86,0,0,1,.58-6.79,0.81,0.81,0,0,1,.74-0.78h5.13a0.48,0.48,0,0,1,.58.49,3.3,3.3,0,0,1,0,.4,35.24,35.24,0,0,0-.3,5.23,32.84,32.84,0,0,0,.27,4.51,2.25,2.25,0,0,0,2.44,2.09,2.88,2.88,0,0,0,1.74-.74,2.11,2.11,0,0,0,1-1.54q0-.7-0.12-9.53a1.62,1.62,0,0,1,.08-0.74,0.76,0.76,0,0,1,.66-0.19h5.41a0.59,0.59,0,0,1,.65.28A2.11,2.11,0,0,1,396,342.93Z" transform="translate(-24.04 -26.1)"/><path class="cls-11" d="M406,351.5q0,1.4.13,4.16t0.13,4.15a0.45,0.45,0,0,1-.45.48,20.36,20.36,0,0,1-2.81.1,20.77,20.77,0,0,1-2.83-.13,0.7,0.7,0,0,1-.5-0.25,2.26,2.26,0,0,1,0-.57q0-1.32,0-4t0-4a72.86,72.86,0,0,0-.56-8.62c0-.2,0-0.34,0-0.4q0-.38.49-0.38T401,342.2q1.06,0.11,1.59.11t1.59-.1q1.06-.1,1.59-0.1a0.37,0.37,0,0,1,.45.38c0,0.05,0,.17,0,0.36A81.66,81.66,0,0,0,406,351.5Zm0.21-14.23q0.06,3.33-3.53,3.35a3.89,3.89,0,0,1-2.56-.83,3.1,3.1,0,0,1-1.14-2.47,3,3,0,0,1,1.09-2.45,3.93,3.93,0,0,1,5,0A3.1,3.1,0,0,1,406.2,337.27Z" transform="translate(-24.04 -26.1)"/><path class="cls-11" d="M428.58,332.91q0-.43-0.12,1.28-0.15,2.15-.19,5.5-0.06,3.8,0,8.64a105.47,105.47,0,0,0,.67,11.39c0,0.25,0,.4,0,0.46a0.25,0.25,0,0,1-.27.25q-0.66.09-4.87,0.07a1.14,1.14,0,0,1-1.15-.41l-0.1-1.47a0.62,0.62,0,0,0-.15-0.31,1.17,1.17,0,0,0-.27.23,6.45,6.45,0,0,1-4.92,2,7.83,7.83,0,0,1-6.27-2.87,10.6,10.6,0,0,1-2.35-6.83,10.48,10.48,0,0,1,2-6.89,7.45,7.45,0,0,1,6.17-2.91,5.37,5.37,0,0,1,4.34,1.83,0.77,0.77,0,0,0,.37.31c0.11,0,.16-0.17.15-0.5q0-1.49-.17-4.44t-0.17-4.42a0.56,0.56,0,0,1,.28-0.64q1.17-.07,3.22-0.26a26,26,0,0,0,3.23-.51A0.4,0.4,0,0,1,428.58,332.91Zm-6.52,17.8A4,4,0,0,0,421,348a3.2,3.2,0,0,0-2.46-1.14,2.82,2.82,0,0,0-2.37,1.15,4.27,4.27,0,0,0-.83,2.74,4.05,4.05,0,0,0,1,2.64,3,3,0,0,0,2.41,1.16,3,3,0,0,0,2.44-1.15A4,4,0,0,0,422.05,350.72Z" transform="translate(-24.04 -26.1)"/><path class="cls-11" d="M448.47,349.87q0,2-1.14,2.25-0.2,0-3.79.43-2.16.25-6.45,0.6a2.82,2.82,0,0,0,1.6,1.93,5.33,5.33,0,0,0,2.44.55,6.48,6.48,0,0,0,3.26-.93l1.37-.94a6.05,6.05,0,0,1,1.34,2,7.82,7.82,0,0,1,1,2.29,0.88,0.88,0,0,1-.26.45q-2.18,2.55-6.9,2.53a9.76,9.76,0,0,1-7.12-2.73,10.09,10.09,0,0,1-2.92-7.32,10.63,10.63,0,0,1,2.29-7.32,8.24,8.24,0,0,1,6.64-3,7.89,7.89,0,0,1,6,2.7A9.63,9.63,0,0,1,448.47,349.87ZM442,348.68a3.19,3.19,0,0,0-.86-2.12,2.54,2.54,0,0,0-1.95-.91,2.22,2.22,0,0,0-1.88,1,3.62,3.62,0,0,0-.64,2.24,0.47,0.47,0,0,0,.53.53,30.1,30.1,0,0,0,4.21-.45Q442,348.9,442,348.68Z" transform="translate(-24.04 -26.1)"/><polygon class="cls-12" points="506.19 344.64 528.27 322.59 506.19 300.53 528.27 322.59 506.19 344.64"/><g id="signPlate"><g id="Plate-2" data-name="Plate"><g class="cls-4"><path d="M443.4,175.44a13.19,13.19,0,0,1-8.52,4.57l-58.26,5.88-93.36,9.42V103.42l93.36,7.22,58.26,4.51a12.83,12.83,0,0,1,8.52,4.37L465.73,143a5.87,5.87,0,0,1,0,8.39Z" transform="translate(-24.04 -26.1)"/><path d="M434.89,118.68a9.69,9.69,0,0,1,6.49,3.26l22.33,23.47a2.55,2.55,0,0,1,.79,1.82,2.61,2.61,0,0,1-.79,1.84l-22.33,24a10,10,0,0,1-6.49,3.41l-58.26,5.31L286.26,190V108.63l90.36,6.11,58.26,3.94m0-3.53-58.26-4.51-93.36-7.22v91.89l93.36-9.42L434.89,180a13.19,13.19,0,0,0,8.52-4.57l22.33-24a5.87,5.87,0,0,0,0-8.39l-22.33-23.5a12.83,12.83,0,0,0-8.52-4.37h0Z" transform="translate(-24.04 -26.1)"/><path d="M434.89,118a11,11,0,0,1,7.3,3.69l22.33,23.44a3.85,3.85,0,0,1,1.18,2.76,4,4,0,0,1-1.18,2.79l-22.33,24.05a11.31,11.31,0,0,1-7.3,3.89L285.06,193.14V107.55L434.89,118m0-1.41-151-11.1v89.78l151-15.24a12.64,12.64,0,0,0,8.11-4.35l22.33-24.06a5.3,5.3,0,0,0,1.57-3.75,5.16,5.16,0,0,0-1.57-3.7L443,120.7a12.24,12.24,0,0,0-8.11-4.13h0Z" transform="translate(-24.04 -26.1)"/><path d="M434.89,117.27a11,11,0,0,1,7.3,3.7l22.33,23.48a3.86,3.86,0,0,1,1.18,2.76,4,4,0,0,1-1.18,2.79l-22.33,24a11.28,11.28,0,0,1-7.3,3.87L285.06,192.14V106.55l149.82,10.72m0-1.41-151-11.39v89.78l151-14.95A12.61,12.61,0,0,0,443,175l22.33-24a5.29,5.29,0,0,0,1.57-3.74,5.17,5.17,0,0,0-1.57-3.71L443,120a12.27,12.27,0,0,0-8.11-4.15h0Z" transform="translate(-24.04 -26.1)"/><path d="M434.89,115.86A12.27,12.27,0,0,1,443,120l22.33,23.49a5.16,5.16,0,0,1,1.57,3.71,5.29,5.29,0,0,1-1.57,3.74L443,175a12.61,12.61,0,0,1-8.11,4.34l-58.26,5.77-92.76,9.18V104.47l92.76,7,58.26,4.39m0-.71-58.26-4.51-93.36-7.22v91.89l93.36-9.42L434.89,180a13.19,13.19,0,0,0,8.52-4.57l22.33-24a5.87,5.87,0,0,0,0-8.39l-22.33-23.5a12.83,12.83,0,0,0-8.52-4.37h0Z" transform="translate(-24.04 -26.1)"/></g><path class="cls-13" d="M443.4,174.75a13.16,13.16,0,0,1-8.52,4.55l-58.26,5.77-93.36,9.24V102.42l93.36,7.4,58.26,4.62a12.86,12.86,0,0,1,8.52,4.39l22.33,23.54a5.87,5.87,0,0,1,0,8.39Z" transform="translate(-24.04 -26.1)"/><g class="cls-6"><path class="cls-7" d="M434.89,118a9.72,9.72,0,0,1,6.49,3.27l22.33,23.52a2.55,2.55,0,0,1,.79,1.82,2.6,2.6,0,0,1-.79,1.83l-22.33,24a9.94,9.94,0,0,1-6.49,3.4L376.63,181,286.26,189V107.63l90.36,6.29L434.89,118m0-3.53-58.26-4.62-93.36-7.4v91.89l93.36-9.24,58.26-5.77a13.16,13.16,0,0,0,8.52-4.55l22.33-24a5.87,5.87,0,0,0,0-8.39L443.4,118.83a12.86,12.86,0,0,0-8.52-4.39h0Z" transform="translate(-24.04 -26.1)"/></g><g class="cls-4"><path d="M434.89,117.27a11,11,0,0,1,7.3,3.7l22.33,23.48a3.86,3.86,0,0,1,1.18,2.76,4,4,0,0,1-1.18,2.79l-22.33,24a11.28,11.28,0,0,1-7.3,3.87L285.06,192.14V106.55l149.82,10.72m0-1.41-151-11.39v89.78l151-14.95A12.61,12.61,0,0,0,443,175l22.33-24a5.29,5.29,0,0,0,1.57-3.74,5.17,5.17,0,0,0-1.57-3.71L443,120a12.27,12.27,0,0,0-8.11-4.15h0Z" transform="translate(-24.04 -26.1)"/></g><path class="cls-14" d="M434.89,116.57a11,11,0,0,1,7.3,3.72l22.33,23.53a3.87,3.87,0,0,1,1.18,2.77,3.94,3.94,0,0,1-1.18,2.79l-22.33,24a11.26,11.26,0,0,1-7.3,3.86l-149.82,14V105.56l149.82,11m0-1.41-151-11.68v89.78l151-14.65a12.59,12.59,0,0,0,8.11-4.32l22.33-24a5.28,5.28,0,0,0,1.57-3.74,5.18,5.18,0,0,0-1.57-3.71L443,119.32a12.3,12.3,0,0,0-8.11-4.16h0Z" transform="translate(-24.04 -26.1)"/><path class="cls-9" d="M434.89,115.15a12.3,12.3,0,0,1,8.11,4.16l22.33,23.54a5.17,5.17,0,0,1,1.57,3.71,5.28,5.28,0,0,1-1.57,3.74l-22.33,24a12.58,12.58,0,0,1-8.11,4.32l-58.26,5.65-92.76,9V103.47l92.76,7.18,58.26,4.51m0-.71-58.26-4.62-93.36-7.4v91.89l93.36-9.24,58.26-5.77a13.16,13.16,0,0,0,8.52-4.55l22.33-24a5.87,5.87,0,0,0,0-8.39L443.4,118.83a12.86,12.86,0,0,0-8.52-4.39h0Z" transform="translate(-24.04 -26.1)"/></g><polygon class="cls-10" points="277.29 166.43 265.25 167.62 265.25 76.8 277.29 77.76 277.29 166.43"/><path class="cls-11" d="M340.25,152.37a1.46,1.46,0,0,1-.25.68,6.78,6.78,0,0,1-5.75,3.66,6.63,6.63,0,0,1-6-3.32,15.06,15.06,0,0,1-2.22-8.51,15.56,15.56,0,0,1,2.18-8.46q2.27-3.59,5.78-3.51a7,7,0,0,1,6,3.31,1.18,1.18,0,0,1,.24.63,11.82,11.82,0,0,1-.82,2.24,14.06,14.06,0,0,1-1,2.19,0.28,0.28,0,0,1-.23.13,3.49,3.49,0,0,1-.59-0.64,6.79,6.79,0,0,0-1.25-1.21,3.37,3.37,0,0,0-1.93-.66,3.08,3.08,0,0,0-2.77,1.76,8.12,8.12,0,0,0-1,4.1,8.24,8.24,0,0,0,1,4.14,3,3,0,0,0,2.77,1.78,3.49,3.49,0,0,0,1.94-.64,6.43,6.43,0,0,0,1.22-1.14,3.32,3.32,0,0,1,.58-0.62,0.31,0.31,0,0,1,.23.17q0.19,0.29,1,2A13,13,0,0,1,340.25,152.37Z" transform="translate(-24.04 -26.1)"/><path class="cls-11" d="M353.55,141.52q0,1.15-.08,3.44t-0.08,3.44q0,1.12.06,3.35t0.06,3.33a0.51,0.51,0,0,1-.29.54,7.23,7.23,0,0,1-1.89.21,11.35,11.35,0,0,1-1.79,0,0.38,0.38,0,0,1-.28-0.37l-0.07-.94a1.05,1.05,0,0,0-.16-0.72,4.08,4.08,0,0,1-1.19,1.1,4.26,4.26,0,0,1-2.46,1.14q-3.12.09-3.69-3.7a37.94,37.94,0,0,1-.26-5.12,29.6,29.6,0,0,1,.44-5.73,0.62,0.62,0,0,1,.48-0.65l1.65,0,1.65,0a0.35,0.35,0,0,1,.37.41c0,0.07,0,.18,0,0.33a38,38,0,0,0-.25,4.35,35.32,35.32,0,0,0,.13,3.75q0.21,1.73,1.54,1.71a1.72,1.72,0,0,0,1.12-.63,1.94,1.94,0,0,0,.63-1.28q0-.58,0-7.86a1.69,1.69,0,0,1,.06-0.61,0.43,0.43,0,0,1,.42-0.15l1.74,0,1.73,0a0.36,0.36,0,0,1,.41.23A2.16,2.16,0,0,1,353.55,141.52Z" transform="translate(-24.04 -26.1)"/><path class="cls-11" d="M363.29,145.9a0.49,0.49,0,0,1-.51.6l-0.65,0-0.64,0a1.75,1.75,0,0,0-1.33.41,2.56,2.56,0,0,0-.35,1.61q0,0.66,0,2t0,2q0,0.44,0,1.32t0,1.3a0.39,0.39,0,0,1-.39.42q-0.57.08-1.73,0.11a13.63,13.63,0,0,1-1.79,0,0.43,0.43,0,0,1-.39-0.5q0-1.23,0-3.69t0-3.69a29.1,29.1,0,0,0-.51-6,1.42,1.42,0,0,1,0-.23,0.3,0.3,0,0,1,.18-0.31q0.65-.09,1.89-0.33l1.92-.46a1.07,1.07,0,0,1,.27,1,1.33,1.33,0,0,0,.21,1,2.42,2.42,0,0,1,1-.8,3.76,3.76,0,0,1,2.18-.79q0.66,0,.66.37t-0.07,1.24q-0.07.86-.08,1.24t0,1.17Q363.29,145.61,363.29,145.9Z" transform="translate(-24.04 -26.1)"/><path class="cls-11" d="M369,148.32q0,1.09,0,3.25t0,3.24a0.35,0.35,0,0,1-.29.38,18.11,18.11,0,0,1-3.61.1,0.41,0.41,0,0,1-.32-0.19,2.17,2.17,0,0,1,0-.45q0-1,0-3.14t0-3.15q0-4.29-.26-6.83c0-.16,0-0.27,0-0.32a0.27,0.27,0,0,1,.32-0.3,8.41,8.41,0,0,1,1,.1,8.43,8.43,0,0,0,1,.1,10.22,10.22,0,0,0,1-.07q0.68-.07,1-0.07a0.26,0.26,0,0,1,.28.3s0,0.13,0,.28Q369,144.47,369,148.32Zm0.31-11.11q0,2.6-2.31,2.58a2.2,2.2,0,0,1-1.64-.68,2.72,2.72,0,0,1-.71-2,2.62,2.62,0,0,1,.73-1.92,2.12,2.12,0,0,1,1.61-.66,2.17,2.17,0,0,1,1.59.74A2.68,2.68,0,0,1,369.32,137.21Z" transform="translate(-24.04 -26.1)"/><path class="cls-11" d="M382.6,147.68a8.5,8.5,0,0,1-1.64,5.4,5.41,5.41,0,0,1-4.31,2.19,5.07,5.07,0,0,1-4.26-2,8.15,8.15,0,0,1-1.67-5.33,9.15,9.15,0,0,1,1.6-5.61,5.07,5.07,0,0,1,4.33-2.11,5.3,5.3,0,0,1,4.31,2.09A8.26,8.26,0,0,1,382.6,147.68Zm-3.86,0a3.64,3.64,0,0,0-.58-2,1.72,1.72,0,0,0-1.49-.88,1.79,1.79,0,0,0-1.53.92,4,4,0,0,0,0,4.09,1.74,1.74,0,0,0,1.53.89,1.81,1.81,0,0,0,1.52-.93A3.68,3.68,0,0,0,378.75,147.72Z" transform="translate(-24.04 -26.1)"/><path class="cls-11" d="M396.13,141.69q0,1-.08,3.11T396,147.92q0,1,.06,3t0.06,3a0.46,0.46,0,0,1-.29.48,8,8,0,0,1-1.89.19,12.53,12.53,0,0,1-1.79,0,0.36,0.36,0,0,1-.28-0.33l-0.07-.85a0.89,0.89,0,0,0-.16-0.65,3.93,3.93,0,0,1-1.19,1,4.49,4.49,0,0,1-2.46,1q-3.12.09-3.69-3.35a31.23,31.23,0,0,1-.26-4.64,24.4,24.4,0,0,1,.44-5.2,0.58,0.58,0,0,1,.48-0.59l1.65,0,1.65,0a0.33,0.33,0,0,1,.37.37,2.93,2.93,0,0,1,0,.3,31.23,31.23,0,0,0-.25,3.94,29,29,0,0,0,.13,3.4,1.48,1.48,0,0,0,1.54,1.54,1.78,1.78,0,0,0,1.12-.57,1.7,1.7,0,0,0,.63-1.16q0-.52,0-7.11a1.4,1.4,0,0,1,.06-0.55,0.45,0.45,0,0,1,.42-0.14l1.74,0,1.73,0a0.37,0.37,0,0,1,.41.21A1.77,1.77,0,0,1,396.13,141.69Z" transform="translate(-24.04 -26.1)"/><path class="cls-11" d="M405,143.1a0.7,0.7,0,0,1-.18.37,2.35,2.35,0,0,0-.66-0.1,1.87,1.87,0,0,0-1.16.36,1.37,1.37,0,0,0-.56,1.17,2.17,2.17,0,0,0,.6,1.22,13.49,13.49,0,0,1,1.12,1.49,4.38,4.38,0,0,1,.6,2.23,5.19,5.19,0,0,1-.24,1.49,3.08,3.08,0,0,1-.68,1.28,8.47,8.47,0,0,1-2,1.54,5.32,5.32,0,0,1-2.32.7,3.51,3.51,0,0,1-1.05-1.48,6.48,6.48,0,0,1-.82-1.83,0.15,0.15,0,0,1,.13-0.16l1.66-.4a1.37,1.37,0,0,0,1-1.3,2.46,2.46,0,0,0-.6-1.41q-1.07-1.39-1.12-1.48a4,4,0,0,1-.6-2.12,4.42,4.42,0,0,1,1.79-3.55,5.3,5.3,0,0,1,3.42-1.26,4,4,0,0,1,.93,1.48A7.77,7.77,0,0,1,405,143.1Z" transform="translate(-24.04 -26.1)"/><polygon class="cls-12" points="407.4 135.22 420.65 119.42 407.4 103.79 420.65 119.42 407.4 135.22"/></g><path class="cls-15" d="M281.58,533.3a2.83,2.83,0,0,1-.85,1.8,21.3,21.3,0,0,1-28.43,0,2.83,2.83,0,0,1-.85-1.8V56.47a1.78,1.78,0,0,1,.95-1.46,33.16,33.16,0,0,1,28.22,0,1.78,1.78,0,0,1,.95,1.46V533.3Z" transform="translate(-24.04 -26.1)"/><ellipse class="cls-16" cx="242.48" cy="21.8" rx="11.04" ry="10.11"/><path class="cls-17" d="M266.52,48.12c-10.53,0-19.07,3.29-19.07,7.35v9.19h38.15V55.47C285.59,51.41,277.05,48.12,266.52,48.12Z" transform="translate(-24.04 -26.1)"/><rect class="cls-18" x="225.43" y="274.8" width="34.13" height="95.56"/><rect class="cls-19" x="225.43" y="274.8" width="34.13" height="95.56"/><rect class="cls-20" x="225.43" y="173.73" width="34.13" height="95.56"/><rect class="cls-19" x="225.43" y="173.73" width="34.13" height="95.56"/><rect class="cls-21" x="225.43" y="72.65" width="34.13" height="95.56"/><rect class="cls-19" x="225.43" y="72.65" width="34.13" height="95.56"/><path class="cls-22" d="M49.69,156.94" transform="translate(-24.04 -26.1)"/><g id="signPlate-2" data-name="signPlate"><g id="Plate-3" data-name="Plate"><g class="cls-4"><path d="M67.88,286a13.24,13.24,0,0,0,9.63,4.92L143.4,293,249,296.39V204.5L143.4,208.8l-65.89,2.68a13.38,13.38,0,0,0-9.63,5L42.62,245.91a8.41,8.41,0,0,0,0,10.88Z" transform="translate(-24.04 -26.1)"/><path d="M245.6,209.63v81.67l-102.2-2.86-65.89-1.84a10.09,10.09,0,0,1-7.34-3.7l-25.25-29.2a3.55,3.55,0,0,1,0-4.71l25.25-29.42a10.19,10.19,0,0,1,7.34-3.77l65.89-2.42,102.2-3.75M249,204.5L143.4,208.8l-65.89,2.68a13.38,13.38,0,0,0-9.63,5L42.62,245.91a8.41,8.41,0,0,0,0,10.88L67.88,286a13.24,13.24,0,0,0,9.63,4.92L143.4,293,249,296.39V204.5h0Z" transform="translate(-24.04 -26.1)"/><path d="M247,208.58v85.75L77.51,289.18A11.39,11.39,0,0,1,69.25,285L44,255.77a5.5,5.5,0,0,1,0-7.18l25.25-29.4a11.48,11.48,0,0,1,8.26-4.25L247,208.58m1.36-2-170.8,6.68A12.8,12.8,0,0,0,68.34,218L43.08,247.36a7.44,7.44,0,0,0,0,9.64l25.25,29.22a12.69,12.69,0,0,0,9.18,4.68l170.8,5.45V206.53h0Z" transform="translate(-24.04 -26.1)"/><path d="M247,207.58v85.75l-169.44-5a11.38,11.38,0,0,1-8.26-4.19L44,254.93a5.5,5.5,0,0,1,0-7.18l25.25-29.42a11.49,11.49,0,0,1,8.26-4.26L247,207.58m1.36-2.05-170.8,6.81a12.81,12.81,0,0,0-9.18,4.76L43.08,246.52a7.44,7.44,0,0,0,0,9.64l25.25,29.2A12.68,12.68,0,0,0,77.51,290l170.8,5.32V205.53h0Z" transform="translate(-24.04 -26.1)"/><path d="M248.31,205.53v89.84L143.4,292.1,77.51,290a12.68,12.68,0,0,1-9.18-4.68l-25.25-29.2a7.44,7.44,0,0,1,0-9.65L68.34,217.1a12.81,12.81,0,0,1,9.18-4.76l65.89-2.63,104.91-4.19m0.68-1L143.4,208.8l-65.89,2.68a13.38,13.38,0,0,0-9.63,5L42.62,245.91a8.41,8.41,0,0,0,0,10.88L67.88,286a13.24,13.24,0,0,0,9.63,4.92L143.4,293,249,296.39V204.5h0Z" transform="translate(-24.04 -26.1)"/></g><path class="cls-23" d="M67.88,285.14A13.23,13.23,0,0,0,77.51,290l65.89,2.05L249,295.39V203.5L143.4,207.88l-65.89,2.73a13.39,13.39,0,0,0-9.63,5L42.62,245.07a8.41,8.41,0,0,0,0,10.88Z" transform="translate(-24.04 -26.1)"/><g class="cls-6"><path class="cls-7" d="M245.6,208.63V290.3l-102.2-2.78-65.89-1.79a10.08,10.08,0,0,1-7.34-3.7L44.91,252.86a3.55,3.55,0,0,1,0-4.71l25.25-29.44a10.2,10.2,0,0,1,7.34-3.77l65.89-2.47,102.2-3.84M249,203.5L143.4,207.88l-65.89,2.73a13.39,13.39,0,0,0-9.63,5L42.62,245.07a8.41,8.41,0,0,0,0,10.88l25.25,29.19A13.23,13.23,0,0,0,77.51,290l65.89,2.05L249,295.39V203.5h0Z" transform="translate(-24.04 -26.1)"/></g><g class="cls-4"><path d="M247,207.58v85.75l-169.44-5a11.38,11.38,0,0,1-8.26-4.19L44,254.93a5.5,5.5,0,0,1,0-7.18l25.25-29.42a11.49,11.49,0,0,1,8.26-4.26L247,207.58m1.36-2.05-170.8,6.81a12.81,12.81,0,0,0-9.18,4.76L43.08,246.52a7.44,7.44,0,0,0,0,9.64l25.25,29.2A12.68,12.68,0,0,0,77.51,290l170.8,5.32V205.53h0Z" transform="translate(-24.04 -26.1)"/></g><path class="cls-24" d="M247,206.58v85.75L77.51,287.46a11.37,11.37,0,0,1-8.26-4.18L44,254.09a5.5,5.5,0,0,1,0-7.18l25.25-29.44a11.5,11.5,0,0,1,8.26-4.27L247,206.58m1.36-2.05-170.8,6.95a12.82,12.82,0,0,0-9.18,4.76L43.08,245.69a7.44,7.44,0,0,0,0,9.64l25.25,29.18a12.67,12.67,0,0,0,9.18,4.67l170.8,5.18V204.53h0Z" transform="translate(-24.04 -26.1)"/><path class="cls-9" d="M248.31,204.53v89.84L143.4,291.18l-65.89-2a12.67,12.67,0,0,1-9.18-4.67L43.08,255.33a7.44,7.44,0,0,1,0-9.65l25.25-29.45a12.82,12.82,0,0,1,9.18-4.76l65.89-2.68,104.91-4.27m0.68-1L143.4,207.88l-65.89,2.73a13.39,13.39,0,0,0-9.63,5L42.62,245.07a8.41,8.41,0,0,0,0,10.88l25.25,29.19A13.23,13.23,0,0,0,77.51,290l65.89,2.05L249,295.39V203.5h0Z" transform="translate(-24.04 -26.1)"/></g><polygon class="cls-10" points="204.51 268.65 218.14 269.08 218.14 177.69 204.51 178.25 204.51 268.65"/><polygon class="cls-12" points="57.37 241.75 42.38 222.72 57.37 203.49 42.38 222.72 57.37 241.75"/></g><path class="cls-11" d="M132.33,254.71a1.37,1.37,0,0,1-.28.68,7.51,7.51,0,0,1-6.51,3.55,8.07,8.07,0,0,1-6.73-3.45,13.41,13.41,0,0,1-2.51-8.35,13.94,13.94,0,0,1,2.46-8.33,7.92,7.92,0,0,1,6.53-3.69,7.84,7.84,0,0,1,6.76,3.12,1.1,1.1,0,0,1,.27.63,11.48,11.48,0,0,1-.92,2.31,14,14,0,0,1-1.16,2.24,0.33,0.33,0,0,1-.27.13,3.65,3.65,0,0,1-.67-0.64,7.08,7.08,0,0,0-1.41-1.2,4.05,4.05,0,0,0-2.18-.62,3.64,3.64,0,0,0-3.13,1.82,8.32,8.32,0,0,0,0,8.19,3.56,3.56,0,0,0,3.13,1.8,4.23,4.23,0,0,0,2.2-.62,6.86,6.86,0,0,0,1.38-1.14,3.57,3.57,0,0,1,.65-0.62,0.36,0.36,0,0,1,.27.18q0.21,0.29,1.16,2A12.7,12.7,0,0,1,132.33,254.71Z" transform="translate(-24.04 -26.1)"/><path class="cls-11" d="M142.49,248.17a0.54,0.54,0,0,1-.57.64l-0.74,0-0.73,0a2.05,2.05,0,0,0-1.5.44,2.63,2.63,0,0,0-.4,1.72q0,0.7,0,2.14t0,2.14q0,0.48.05,1.42t0.05,1.4a0.42,0.42,0,0,1-.44.44q-0.64.06-2,.06a16.52,16.52,0,0,1-2-.1,0.48,0.48,0,0,1-.44-0.54q0-1.3,0-3.91t0-3.91a28.74,28.74,0,0,0-.57-6.31,1.4,1.4,0,0,1,0-.24,0.32,0.32,0,0,1,.2-0.33q0.73-.11,2.14-0.38,2.1-.53,2.17-0.53,0.24,0,.31,1a1.36,1.36,0,0,0,.24,1,2.75,2.75,0,0,1,1.09-.87,4.48,4.48,0,0,1,2.46-.89q0.75,0,.75.39t-0.08,1.35q-0.08.94-.09,1.35t0,1.27Q142.49,247.86,142.49,248.17Z" transform="translate(-24.04 -26.1)"/><path class="cls-11" d="M157.42,250.12q0,1.28.12,3.81t0.12,3.8a0.58,0.58,0,0,1-.47.71q-1.65.15-3.78,0.14-0.25,0-.34-1a1.76,1.76,0,0,0-.21-1,1.33,1.33,0,0,0-.28.28,4.14,4.14,0,0,1-3.19,1.87,5.05,5.05,0,0,1-4.3-2.55,9.83,9.83,0,0,1-1.61-5.66,10.36,10.36,0,0,1,1.66-6.14,5.6,5.6,0,0,1,4.74-2.46,3.72,3.72,0,0,1,3.3,1.79,0.14,0.14,0,0,0,.09.08,1.32,1.32,0,0,0,.27-0.81,0.92,0.92,0,0,1,.37-0.81,9.47,9.47,0,0,1,1.88.33,15.76,15.76,0,0,1,1.89.54,0.3,0.3,0,0,1,.2.26s0,0.16,0,.35A45.68,45.68,0,0,0,157.42,250.12Zm-4.28.12a3.68,3.68,0,0,0-.71-2.33,2.22,2.22,0,0,0-1.86-.91,2.25,2.25,0,0,0-1.85.92,3.71,3.71,0,0,0-.71,2.33,3.62,3.62,0,0,0,.75,2.29,2.22,2.22,0,0,0,1.81,1,2.25,2.25,0,0,0,1.85-.92A3.71,3.71,0,0,0,153.14,250.24Z" transform="translate(-24.04 -26.1)"/><path class="cls-11" d="M174.49,250.22a10.41,10.41,0,0,1-1.6,5.93,5.14,5.14,0,0,1-4.44,2.52,4,4,0,0,1-3.22-1.45,0.25,0.25,0,0,0-.16-0.1,0.78,0.78,0,0,0-.25.62,1,1,0,0,1-.27.69,36.77,36.77,0,0,1-3.79.08q-0.84,0-.84-0.39s0-.12,0-0.25q0.27-2.65.27-10.11,0-7.13-.4-12.39v-0.18q0-.27.41-0.31t2.32-.29a20.91,20.91,0,0,1,2.32-.21q0.25,0,.25.55T165,236.64q-0.08,1.33-.09,1.74-0.07,1.66-.07,4.52,0,0.52.21,0.52a0.26,0.26,0,0,0,.2-0.14,3.79,3.79,0,0,1,3.14-1.65A5.08,5.08,0,0,1,173,244.1,11,11,0,0,1,174.49,250.22Zm-4.82-.16a4,4,0,0,0-.68-2.36,2.1,2.1,0,0,0-3.53,0,4.22,4.22,0,0,0-.65,2.39,4.09,4.09,0,0,0,.63,2.38,2.09,2.09,0,0,0,1.81,1,2.07,2.07,0,0,0,1.8-1A4.19,4.19,0,0,0,169.68,250.06Z" transform="translate(-24.04 -26.1)"/></g></g></svg>